<svg id="Layer_1" data-name="Layer 1" xmlns="http://www.w3.org/2000/svg" xmlns:xlink="http://www.w3.org/1999/xlink" viewBox="0 0 135.25 134.5"><defs><style>.cls-1{fill:url(#linear-gradient);}.cls-2{fill:url(#linear-gradient-2);}.cls-3{fill:#231f20;stroke:#231f20;stroke-miterlimit:10;stroke-width:0.2px;}</style><linearGradient id="linear-gradient" x1="575.95" y1="105.86" x2="696.8" y2="105.86" gradientUnits="userSpaceOnUse"><stop offset="0" stop-color="#60c29e"/><stop offset="0.37" stop-color="#33bdb0"/><stop offset="0.68" stop-color="#0aafe4"/><stop offset="1" stop-color="#2b80b3"/></linearGradient><linearGradient id="linear-gradient-2" x1="590.35" y1="65.22" x2="711.2" y2="65.22" xlink:href="#linear-gradient"/></defs><title>Citra Process - 6. Handover</title><path class="cls-1" d="M693.69,125.79a5.43,5.43,0,0,0-2.24-.49,5.36,5.36,0,0,0-5.36,5.35,5.28,5.28,0,0,0,.64,2.53A64.23,64.23,0,0,1,589,119.56c-.6-1-1.17-1.92-1.72-2.91a63.9,63.9,0,0,1-8-31.11,64.55,64.55,0,0,1,2-15.9h0A5.35,5.35,0,0,0,584.54,60,5.25,5.25,0,0,0,581.81,59a4.36,4.36,0,0,0-.51,0,5.35,5.35,0,0,0-2.87,9.87,67.19,67.19,0,0,0,7.16,50.76c.55.94,1.12,1.86,1.72,2.77a67.17,67.17,0,0,0,101.47,13,5.34,5.34,0,0,0,8-4.64,5.27,5.27,0,0,0-.88-2.94A5.39,5.39,0,0,0,693.69,125.79Zm-114.8-61.5a2.41,2.41,0,0,1,1.69-2.3,2.47,2.47,0,0,1,.72-.12,2.41,2.41,0,0,1,2,1.13,2.36,2.36,0,0,1,.38,1.29,2.42,2.42,0,0,1-1.59,2.26,2.54,2.54,0,0,1-.83.15,2.42,2.42,0,0,1-2.41-2.41Zm112.56,68.78a3,3,0,0,1-.31,0,2.42,2.42,0,0,1-2.08-2.08,3,3,0,0,1,0-.31,2.42,2.42,0,0,1,2.42-2.42l.16,0a2.42,2.42,0,0,1,2.21,1.94,2.32,2.32,0,0,1,0,.46A2.42,2.42,0,0,1,691.45,133.07Z" transform="translate(-575.95 -18.29)"/><path class="cls-2" d="M593.46,45.28a5.25,5.25,0,0,0,2.24.5,5.37,5.37,0,0,0,5.36-5.36,5.24,5.24,0,0,0-.64-2.52,64.24,64.24,0,0,1,97.7,13.61c.6,1,1.17,1.93,1.72,2.91a64.33,64.33,0,0,1,6,47h0a5.35,5.35,0,0,0-3.23,9.61,5.26,5.26,0,0,0,2.73,1.08l.5,0a5.34,5.34,0,0,0,2.87-9.86,67.25,67.25,0,0,0-7.15-50.77c-.55-.93-1.13-1.85-1.72-2.76a67.17,67.17,0,0,0-101.47-13,5.28,5.28,0,0,0-2.67-.72,5.35,5.35,0,0,0-2.24,10.21Zm114.8,61.51a2.41,2.41,0,0,1-1.69,2.29,2.2,2.2,0,0,1-.73.13,2.4,2.4,0,0,1-2-1.14,2.35,2.35,0,0,1-.38-1.28,2.41,2.41,0,0,1,1.59-2.26,2.26,2.26,0,0,1,.82-.16,2.45,2.45,0,0,1,2,1A2.43,2.43,0,0,1,708.26,106.79ZM595.7,38a3,3,0,0,1,.31,0,2.4,2.4,0,0,1,2.08,2.08c0,.1,0,.2,0,.3a2.42,2.42,0,0,1-2.42,2.42l-.16,0A2.41,2.41,0,0,1,595.7,38Z" transform="translate(-575.95 -18.29)"/><path class="cls-3" d="M655,72.84l-16.19-5.59a6.28,6.28,0,0,0-4.72.29l-.82.39a4.56,4.56,0,0,1-3.55.2l-1.39-.5a.75.75,0,0,0-.2-.1l-8.28-2.82a.8.8,0,0,0-1,.48l-7,20.31a.79.79,0,0,0,.49,1l8.3,2.84a.6.6,0,0,0,.26,0,.68.68,0,0,0,.34-.08.77.77,0,0,0,.39-.44l6.7-19.53.84.3a6.22,6.22,0,0,0,4.77-.28l.81-.39a4.58,4.58,0,0,1,3.52-.22l15.58,5.37a3.68,3.68,0,0,1-1.29,2.4,3.58,3.58,0,0,1-3.25.06l-6.81-2.32a.8.8,0,0,0-1,.56,9.57,9.57,0,0,1-4.17,5.44c-2,1.07-4.46,1.11-7.33.13a.78.78,0,0,0-1,.48.79.79,0,0,0,.48,1,13.61,13.61,0,0,0,4.34.78,8.85,8.85,0,0,0,4.25-1A10.69,10.69,0,0,0,642.77,76l6.05,2.08a5,5,0,0,0,4.66-.27c1.94-1.33,2-4.09,2-4.2a.78.78,0,0,0-.52-.76ZM620.46,87.6l-6.81-2.34,6.45-18.81,6.63,2.27.16.08h0Zm0,0" transform="translate(-575.95 -18.29)"/><path class="cls-3" d="M675.8,84.46l-9.47-19.23a.77.77,0,0,0-.44-.39.81.81,0,0,0-.61,0l-7.88,3.85a.79.79,0,0,0-.36,1l9.17,18.75-3.08,2.82a37.24,37.24,0,0,1-8.74,6l-15.09,7.38a1.69,1.69,0,0,1-1.34.08,1.81,1.81,0,0,1-1-.89,1.69,1.69,0,0,1-.07-1.34,1.74,1.74,0,0,1,.89-1l8.43-4.13a.78.78,0,1,0-.69-1.41l-8.24,4-4.16,2a1.75,1.75,0,0,1-1.54-3.15L643.68,93a.78.78,0,1,0-.68-1.41L634,96l-3.15,1.53-1.48.72a1.75,1.75,0,1,1-1.54-3.14l1.49-.74L640.19,89a.78.78,0,0,0,.37-1,.79.79,0,0,0-1-.37l-7,3.41-3.88,1.9a1.73,1.73,0,0,1-1.34.08,1.81,1.81,0,0,1-1-.89,1.73,1.73,0,0,1-.08-1.34,1.79,1.79,0,0,1,.9-1l5.75-2.82a.79.79,0,0,0-.68-1.42l-5.76,2.82a3.36,3.36,0,0,0-1.69,1.92,3.33,3.33,0,0,0,1.56,4,3.32,3.32,0,0,0,2.34,5.68l.43,0a3.28,3.28,0,0,0,.29,2,3.31,3.31,0,0,0,3,1.87,3.19,3.19,0,0,0,1.45-.35l1.43-.7a3.11,3.11,0,0,0,.33,1.79,3.28,3.28,0,0,0,1.91,1.69,3.42,3.42,0,0,0,1.09.19,3.32,3.32,0,0,0,1.45-.34l15.09-7.38a38.41,38.41,0,0,0,9.11-6.23l3.42-3.15,7.78-3.8a.79.79,0,0,0,.37-1.05Zm-8.26,3.2-8.75-17.87,6.48-3.15L674,84.5Zm0,0" transform="translate(-575.95 -18.29)"/></svg>