<svg id="Layer_1" data-name="Layer 1" xmlns="http://www.w3.org/2000/svg" xmlns:xlink="http://www.w3.org/1999/xlink" viewBox="0 0 135.25 134.5"><defs><style>.cls-1{fill:url(#linear-gradient);}.cls-2{fill:url(#linear-gradient-2);}.cls-3{fill:#231f20;}</style><linearGradient id="linear-gradient" x1="463.42" y1="105.86" x2="584.27" y2="105.86" gradientUnits="userSpaceOnUse"><stop offset="0" stop-color="#60c29e"/><stop offset="0.37" stop-color="#33bdb0"/><stop offset="0.68" stop-color="#0aafe4"/><stop offset="1" stop-color="#2b80b3"/></linearGradient><linearGradient id="linear-gradient-2" x1="477.81" y1="65.22" x2="598.67" y2="65.22" xlink:href="#linear-gradient"/></defs><title>Citra Process - 5. Testing</title><path class="cls-1" d="M581.15,125.79a5.35,5.35,0,0,0-7.59,4.86,5.28,5.28,0,0,0,.64,2.53,64.24,64.24,0,0,1-97.71-13.62c-.59-1-1.17-1.92-1.72-2.91a64.31,64.31,0,0,1-6-47h0A5.35,5.35,0,0,0,472,60,5.28,5.28,0,0,0,469.27,59a4.07,4.07,0,0,0-.5,0,5.35,5.35,0,0,0-2.87,9.87,67.19,67.19,0,0,0,7.16,50.76c.55.94,1.12,1.86,1.71,2.77a67.17,67.17,0,0,0,101.47,13,5.35,5.35,0,0,0,8-4.64,5.38,5.38,0,0,0-3.12-4.86Zm-114.8-61.5a2.42,2.42,0,0,1,1.7-2.3,2.47,2.47,0,0,1,.72-.12,2.41,2.41,0,0,1,2,1.13,2.36,2.36,0,0,1,.38,1.29,2.41,2.41,0,0,1-1.6,2.26,2.48,2.48,0,0,1-.82.15,2.44,2.44,0,0,1-2.42-2.41Zm112.56,68.78-.31,0a2.42,2.42,0,0,1-2.07-2.08,3,3,0,0,1,0-.31,2.42,2.42,0,0,1,2.41-2.42l.16,0a2.41,2.41,0,0,1,2.21,1.94,2.31,2.31,0,0,1,.05.46A2.42,2.42,0,0,1,578.91,133.07Z" transform="translate(-463.42 -18.29)"/><path class="cls-2" d="M480.93,45.28a5.25,5.25,0,0,0,2.24.5,5.36,5.36,0,0,0,4.72-7.88,64.24,64.24,0,0,1,97.7,13.61c.6,1,1.17,1.93,1.72,2.91a64.33,64.33,0,0,1,6.05,47h-.05a5.36,5.36,0,0,0-.5,10.69l.5,0a5.34,5.34,0,0,0,2.87-9.86A67.25,67.25,0,0,0,589,51.51c-.56-.93-1.13-1.85-1.72-2.76a67.17,67.17,0,0,0-101.47-13,5.28,5.28,0,0,0-2.67-.72,5.35,5.35,0,0,0-2.24,10.21Zm114.8,61.51a2.41,2.41,0,0,1-1.7,2.29,2.18,2.18,0,0,1-.72.13,2.41,2.41,0,0,1-.82-4.68,2.26,2.26,0,0,1,.82-.16,2.42,2.42,0,0,1,2,1A2.36,2.36,0,0,1,595.73,106.79ZM483.17,38l.31,0a2.4,2.4,0,0,1,2.07,2.08,1.53,1.53,0,0,1,0,.3,2.41,2.41,0,0,1-2.41,2.42l-.16,0a2.41,2.41,0,0,1,.16-4.81Z" transform="translate(-463.42 -18.29)"/><path class="cls-3" d="M508.1,107.31h23.59v-1.82H508.1a2.72,2.72,0,0,1-2.72-2.72V62.86a2.72,2.72,0,0,1,2.72-2.72H548a2.72,2.72,0,0,1,2.72,2.72V83.72h1.82V62.86A4.53,4.53,0,0,0,548,58.33H508.1a4.53,4.53,0,0,0-4.53,4.53v39.91a4.55,4.55,0,0,0,4.53,4.54Zm0,0" transform="translate(-463.42 -18.29)"/><rect class="cls-3" x="43.78" y="43.67" width="1.81" height="1.81"/><rect class="cls-3" x="47.41" y="43.67" width="1.81" height="1.81"/><rect class="cls-3" x="51.04" y="43.67" width="1.81" height="1.81"/><rect class="cls-3" x="43.78" y="47.29" width="41.72" height="1.81"/><path class="cls-3" d="M516.53,69.48l-2.3,2.3a4.55,4.55,0,1,0,1.28,1.28l2.31-2.3Zm-4.8,8.8a2.72,2.72,0,0,1,0-5.44,2.64,2.64,0,0,1,1.17.27l-1.81,1.81,1.28,1.28,1.81-1.81a2.67,2.67,0,0,1,.27,1.17,2.72,2.72,0,0,1-2.72,2.72Zm0,0" transform="translate(-463.42 -18.29)"/><rect class="cls-3" x="55.57" y="54.55" width="15.42" height="1.81"/><rect class="cls-3" x="55.57" y="58.18" width="6.35" height="1.81"/><rect class="cls-3" x="63.74" y="58.18" width="12.7" height="1.81"/><rect class="cls-3" x="72.81" y="54.55" width="9.07" height="1.81"/><path class="cls-3" d="M516.53,80.36l-2.3,2.3A4.57,4.57,0,1,0,515.51,84l2.31-2.31Zm-4.8,8.81a2.73,2.73,0,0,1,0-5.45,2.65,2.65,0,0,1,1.17.28l-1.81,1.8,1.28,1.28,1.81-1.8a2.6,2.6,0,0,1,.27,1.16,2.72,2.72,0,0,1-2.72,2.73Zm0,0" transform="translate(-463.42 -18.29)"/><rect class="cls-3" x="55.57" y="65.44" width="15.42" height="1.81"/><rect class="cls-3" x="55.57" y="69.06" width="6.35" height="1.81"/><rect class="cls-3" x="63.74" y="69.06" width="7.26" height="1.81"/><rect class="cls-3" x="72.81" y="65.44" width="3.63" height="1.81"/><path class="cls-3" d="M516.53,91.25l-2.3,2.3a4.55,4.55,0,1,0,1.28,1.28l2.31-2.3Zm-4.8,8.8a2.72,2.72,0,0,1,0-5.44,2.64,2.64,0,0,1,1.17.27l-1.81,1.81L512.37,98l1.81-1.81a2.64,2.64,0,0,1,.27,1.17,2.72,2.72,0,0,1-2.72,2.72Zm0,0" transform="translate(-463.42 -18.29)"/><rect class="cls-3" x="55.57" y="76.32" width="11.79" height="1.81"/><rect class="cls-3" x="55.57" y="79.95" width="6.35" height="1.81"/><rect class="cls-3" x="63.74" y="79.95" width="3.63" height="1.81"/><path class="cls-3" d="M546.2,112.75a13.61,13.61,0,1,0-13.61-13.61,13.61,13.61,0,0,0,13.61,13.61Zm0-25.4a11.79,11.79,0,1,1-11.79,11.79A11.79,11.79,0,0,1,546.2,87.35Zm0,0" transform="translate(-463.42 -18.29)"/><path class="cls-3" d="M540.67,99.64l-1.63.82,1.82,3.62a.9.9,0,0,0,.66.49l.14,0a.91.91,0,0,0,.65-.27l10.88-10.88-1.28-1.29-10,10Zm0,0" transform="translate(-463.42 -18.29)"/></svg>