<?xml version="1.0" encoding="utf-8"?>
<!-- Generator: Adobe Illustrator 16.0.0, SVG Export Plug-In . SVG Version: 6.00 Build 0)  -->
<!DOCTYPE svg PUBLIC "-//W3C//DTD SVG 1.1//EN" "http://www.w3.org/Graphics/SVG/1.1/DTD/svg11.dtd">
<svg version="1.1" id="Layer_1" xmlns="http://www.w3.org/2000/svg" xmlns:xlink="http://www.w3.org/1999/xlink" x="0px" y="0px"
	 width="93px" height="80px" viewBox="0 0 93 80" enable-background="new 0 0 93 80" xml:space="preserve">
<g>
	<g transform="translate(-1226 -1594)">
		<g>
			<g>
				<path id="cle2a" fill="#0B232F" d="M1246.3,1631.4v-19.72l23.271,13.1v21.13L1246.3,1631.4z M1255.38,1605.34l23.54,12.68
					l-7.94,4.23l-23.26-13.1L1255.38,1605.34z M1270.98,1597.03l23.411,12.68l-6.101,3.24l-23.4-12.68L1270.98,1597.03z
					 M1261.91,1601.82l24.97,13.52v7.05l-3.55,1.97v-6.62c0-0.14,0-0.28-0.141-0.42c-0.14-0.15-0.279-0.15-0.42-0.29l-0.149-0.14
					l-0.14-0.14l-24.261-13.1L1261.91,1601.82z M1272.41,1646.21v-21.42l8.08-4.37v6.34c0,0.56,0.279,0.99,0.71,1.27
					c0.28,0.14,0.43,0.14,0.71,0.14c0.279,0,0.43,0,0.699-0.14l6.4-3.53c0.42-0.28,0.7-0.7,0.7-1.26v-7.75l6.239-3.39v21.7
					L1272.41,1646.21z M1271.7,1649.71l26.39-13.94c0.43-0.279,0.71-0.699,0.71-1.27v-24.8c0-0.561-0.43-1.12-0.85-1.26
					l-26.25-14.23c-0.43-0.28-1-0.28-1.28,0l-9.08,4.8c-10.79,5.63-3.55,1.96-17.03,9c-0.28,0.15-0.43,0.43-0.57,0.57
					c-0.14,0.14-0.14,0.42-0.14,0.56v22.83c0,0.42,0.28,0.98,0.71,1.12l25.97,16.63c0.28,0.14,0.42,0.14,0.7,0.28
					c0.3-0.141,0.57-0.141,0.72-0.28V1649.71z"/>
			</g>
		</g>
		<g>
			<g>
				<path id="cle2b" fill="#0B232F" d="M1316.15,1642.34c0,0.15,0,0.43-0.141,0.57l-9.1,12.57c-0.682,1.1-1.021,2.376-0.98,3.67
					v2.26h-12.319v-8.75c0-0.57,0.14-1.131,0.42-1.561l7.84-10.029c0.28-0.42,0.7-0.561,1.26-0.7c0.421,0,0.98,0.14,1.261,0.42
					l0.14,0.14c0.979,0.85,0.979,2.4,0.14,3.4l-1.4,1.689c-0.42,0.561-0.42,1.4,0.141,1.971c0.561,0.569,1.4,0.43,1.96-0.141
					l6.58-7.619c0.28-0.291,0.42-0.711,0.42-1v-14.971c0-0.99,0.84-1.83,1.819-1.83c0.98,0,1.82,0.84,1.82,1.83v18.08H1316.15z
					 M1309.42,1671.17h-18.88v-7.061h18.88V1671.17z M1314.32,1619.6c-2.554,0.033-4.609,2.106-4.62,4.66v14.131l-1.96,2.119
					c-0.28-0.699-0.7-1.41-1.26-1.979h-0.141c-0.964-0.852-2.215-1.306-3.5-1.271c-1.25,0.141-2.369,0.7-3.21,1.7l-7.97,10.17
					c-0.7,1-0.98,2.12-0.98,3.25v8.761h-1.399c-0.84,0-1.681,0.699-1.681,1.699v9.46c0,0.851,0.7,1.7,1.681,1.7h21.26
					c0.84,0,1.681-0.7,1.681-1.7v-9.46c0-0.85-0.7-1.699-1.681-1.699h-1.96v-2.261c0-0.7,0.141-1.41,0.561-1.979l9.1-12.57
					c0.393-0.635,0.585-1.374,0.55-2.12v-17.95c0.1-2.472-1.823-4.557-4.296-4.657
					C1314.436,1619.602,1314.378,1619.6,1314.32,1619.6L1314.32,1619.6z"/>
			</g>
		</g>
		<g>
			<g>
				<path id="cle2c" fill="#0B232F" d="M1254.4,1671.03h-18.89v-7.061h18.9L1254.4,1671.03z M1237.89,1655.21l-8.95-12.43
					c-0.14-0.14-0.14-0.431-0.14-0.57v-18.08c0-1,0.84-1.84,1.82-1.84s1.81,0.85,1.81,1.84v14.55c0,0.28,0.14,0.851,0.42,0.99
					l6.58,7.631c0.56,0.56,1.4,0.699,1.95,0.14c0.56-0.57,0.7-1.41,0.14-1.98l-1.4-1.7c-0.79-1.009-0.727-2.443,0.15-3.379
					l0.14-0.15c0.42-0.28,0.83-0.561,1.25-0.42c0.42,0,0.98,0.279,1.26,0.699l7.83,10.041c0.28,0.42,0.56,1.129,0.56,1.699v8.9
					h-12.3v-2.271C1239.01,1657.61,1238.59,1656.34,1237.89,1655.21z M1255.52,1661.141h-1.4v-8.761
					c-0.05-1.212-0.438-2.387-1.12-3.39l-7.83-10.03c-0.771-1.013-1.948-1.636-3.22-1.7c-1.293-0.073-2.56,0.39-3.5,1.28
					c-0.548,0.569-0.976,1.243-1.26,1.979l-1.82-2.119v-14.13c0-2.54-2.1-4.66-4.61-4.66c-2.481-0.144-4.609,1.751-4.752,4.232
					c-0.006,0.096-0.008,0.191-0.008,0.287v18.08c0,0.7,0.28,1.41,0.7,2.12l8.95,12.43c0.42,0.57,0.56,1.28,0.56,2.12v2.261h-1.96
					c-0.83,0-1.67,0.709-1.67,1.699v9.46c0,0.851,0.7,1.7,1.67,1.7h21.27c0.84,0,1.68-0.7,1.68-1.7v-9.46
					C1257.2,1661.85,1256.5,1661.141,1255.52,1661.141L1255.52,1661.141z"/>
			</g>
		</g>
	</g>
</g>
</svg>
