<?xml version="1.0" encoding="utf-8"?>
<!-- Generator: Adobe Illustrator 16.0.0, SVG Export Plug-In . SVG Version: 6.00 Build 0)  -->
<!DOCTYPE svg PUBLIC "-//W3C//DTD SVG 1.1//EN" "http://www.w3.org/Graphics/SVG/1.1/DTD/svg11.dtd">
<svg version="1.1" id="Layer_1" xmlns="http://www.w3.org/2000/svg" xmlns:xlink="http://www.w3.org/1999/xlink" x="0px" y="0px"
	 width="605px" height="832px" viewBox="0 0 605 832" enable-background="new 0 0 605 832" xml:space="preserve">
<g>
	<g transform="translate(-115 -2732)">
		<g>
			
				<linearGradient id="hgwua_1_" gradientUnits="userSpaceOnUse" x1="62.8496" y1="-367.6016" x2="777.951" y2="799.781" gradientTransform="matrix(1 0 0 -1 -115 3565)">
				<stop  offset="0" style="stop-color:#C2E59C"/>
				<stop  offset="1" style="stop-color:#2693C9"/>
			</linearGradient>
			<path id="hgwua" fill="url(#hgwua_1_)" d="M278,3306.93c0,20.58,3.83,39.26,11.48,56.03s17.78,31.06,30.4,42.88
				c12.63,11.811,27.74,20.96,45.33,27.439c17.64,6.488,36.295,9.78,55.09,9.721c19.891,0,38.061-3.24,54.5-9.721
				c16.149-6.289,30.951-15.603,43.61-27.439c12.62-11.82,22.38-26.11,29.26-42.88c6.891-16.771,10.33-35.07,10.33-54.89
				c0-19.061-3.63-36.4-10.9-52.03c-7.104-15.408-17.255-29.219-29.84-40.601c-12.708-11.486-27.512-20.416-43.6-26.3
				c-16.45-6.1-34.24-9.14-53.36-9.14c-39.79,0-73.45,10.86-100.99,32.59C291.77,3234.32,278,3265.76,278,3306.93L278,3306.93z
				 M148.23,2950.59c0-35.86,8.02-67.53,24.06-95c15.688-27.074,36.98-50.483,62.45-68.66c25.59-18.3,54.43-32.04,86.51-41.2
				c31.667-9.096,64.452-13.717,97.4-13.73c49.649,0,91.659,7.63,126.04,22.89c34.369,15.26,62.06,33.76,83.069,55.5
				c21,21.75,36.101,45.021,45.26,69.811c9.171,24.8,13.75,47.12,13.75,66.95c0,39.68-9.739,74.39-29.22,104.15
				c-19.479,29.75-48.7,51.11-87.649,64.08v2.3c48.119,10.67,85.17,33.37,111.14,68.09c25.97,34.711,38.96,77.24,38.96,127.601
				c0,42.729-8.6,79.729-25.78,111.01c-17.189,31.28-39.909,57.22-68.18,77.82c-28.26,20.601-60.35,36.05-96.25,46.351
				c-35.762,10.279-72.79,15.48-110,15.449c-38.96,0-76.58-4.77-112.86-14.3c-36.29-9.54-68.75-24.61-97.4-45.21
				c-28.64-20.6-51.56-46.54-68.75-77.82C123.6,3395.39,115,3358,115,3314.5c0-51.11,13.18-93.84,39.53-128.17
				c26.36-34.33,63.6-57.22,111.72-68.67v-2.29c-38.96-10.68-68.37-30.9-88.23-60.65c-19.86-29.76-29.8-64.47-29.8-104.14
				L148.23,2950.59z M297,2964.86c0,34.28,12.23,60.38,36.68,78.28c24.45,17.9,53.1,26.86,85.97,26.86
				c34.38,0,63.04-8.95,85.96-26.86c22.93-17.9,34.39-44,34.39-78.28c0-10.67-1.53-22.29-4.58-34.86
				c-3.06-12.57-8.979-24.57-17.77-36s-21.021-20.95-36.681-28.57c-15.67-7.62-36.1-11.43-61.319-11.43
				c-16.05,0-31.521,2.48-46.431,7.43c-14.9,4.95-28.08,12-39.54,21.14c-11.507,9.197-20.728,20.934-26.94,34.29
				C300.24,2930.57,297,2946.57,297,2964.86L297,2964.86z"/>
		</g>
	</g>
</g>
</svg>
