<svg id="Layer_1" data-name="Layer 1" xmlns="http://www.w3.org/2000/svg" xmlns:xlink="http://www.w3.org/1999/xlink" viewBox="0 0 135.25 134.5"><defs><style>.cls-1{fill:url(#linear-gradient);}.cls-2{fill:url(#linear-gradient-2);}.cls-3{fill:#231f20;stroke:#231f20;stroke-miterlimit:10;stroke-width:0.5px;}</style><linearGradient id="linear-gradient" x1="140.21" y1="65.22" x2="261.07" y2="65.22" gradientUnits="userSpaceOnUse"><stop offset="0" stop-color="#60c29e"/><stop offset="0.37" stop-color="#33bdb0"/><stop offset="0.68" stop-color="#0aafe4"/><stop offset="1" stop-color="#2b80b3"/></linearGradient><linearGradient id="linear-gradient-2" x1="125.82" y1="105.86" x2="246.67" y2="105.86" xlink:href="#linear-gradient"/></defs><title>Citra Process - 2. Systems Thinking</title><path class="cls-1" d="M143.33,45.28a5.25,5.25,0,0,0,2.24.5,5.36,5.36,0,0,0,4.72-7.88A64.24,64.24,0,0,1,248,51.51c.6,1,1.17,1.93,1.72,2.91a64.33,64.33,0,0,1,6,47h0a5.36,5.36,0,0,0-.5,10.69l.5,0a5.34,5.34,0,0,0,2.87-9.86,67.25,67.25,0,0,0-7.15-50.77c-.55-.93-1.13-1.85-1.72-2.76a67.17,67.17,0,0,0-101.47-13,5.28,5.28,0,0,0-2.67-.72,5.35,5.35,0,0,0-2.24,10.21Zm114.8,61.51a2.41,2.41,0,0,1-1.7,2.29,2.09,2.09,0,0,1-.72.13,2.41,2.41,0,0,1-.82-4.68,2.26,2.26,0,0,1,.82-.16,2.42,2.42,0,0,1,2,1A2.36,2.36,0,0,1,258.13,106.79ZM145.57,38a3,3,0,0,1,.31,0A2.41,2.41,0,0,1,148,40.12c0,.1,0,.2,0,.3a2.42,2.42,0,0,1-2.42,2.42l-.16,0a2.41,2.41,0,0,1,.16-4.81Z" transform="translate(-125.82 -18.29)"/><path class="cls-2" d="M243.56,125.79a5.43,5.43,0,0,0-2.24-.49,5.36,5.36,0,0,0-5.36,5.35,5.28,5.28,0,0,0,.64,2.53,64.24,64.24,0,0,1-97.71-13.62c-.59-1-1.17-1.92-1.71-2.91a64.26,64.26,0,0,1-6.06-47h0A5.35,5.35,0,0,0,134.41,60,5.25,5.25,0,0,0,131.67,59a4.07,4.07,0,0,0-.5,0,5.35,5.35,0,0,0-2.87,9.87,67.19,67.19,0,0,0,7.16,50.76c.55.94,1.12,1.86,1.72,2.77a67.17,67.17,0,0,0,101.47,13,5.35,5.35,0,0,0,7.14-7.58A5.46,5.46,0,0,0,243.56,125.79Zm-114.8-61.5a2.41,2.41,0,0,1,1.69-2.3,2.47,2.47,0,0,1,.72-.12,2.41,2.41,0,0,1,2,1.13,2.36,2.36,0,0,1,.38,1.29,2.42,2.42,0,0,1-4.83,0Zm112.56,68.78c-.11,0-.21,0-.32,0a2.42,2.42,0,0,1-2.07-2.08,3,3,0,0,1,0-.31,2.42,2.42,0,0,1,2.42-2.42l.16,0a2.39,2.39,0,0,1,2.2,1.94,2.31,2.31,0,0,1,0,.46A2.42,2.42,0,0,1,241.32,133.07Z" transform="translate(-125.82 -18.29)"/><path class="cls-3" d="M185.76,86.32A6.23,6.23,0,1,0,193.21,91,6.23,6.23,0,0,0,185.76,86.32Zm2.49,11.13a5.17,5.17,0,1,1,3.92-6.18A5.18,5.18,0,0,1,188.25,97.45Z" transform="translate(-125.82 -18.29)"/><path class="cls-3" d="M186.43,89.31a3.17,3.17,0,1,0,3.79,2.4A3.17,3.17,0,0,0,186.43,89.31Zm1.15,5.14a2.1,2.1,0,1,1,1.6-2.51A2.1,2.1,0,0,1,187.58,94.45Z" transform="translate(-125.82 -18.29)"/><path class="cls-3" d="M207.36,88.66l-2.93-7.4-3.65,1.45a16.9,16.9,0,0,0-3.55-3.66l1.56-3.61-7.3-3.15-1.56,3.6a17.08,17.08,0,0,0-5.1-.08l-1.45-3.65L176,75.09l1.45,3.65a16.73,16.73,0,0,0-3.67,3.55l-3.6-1.56L167,88l3.61,1.56a16.76,16.76,0,0,0-.09,5.1l-3.65,1.45,2.93,7.39,3.65-1.44a17,17,0,0,0,3.56,3.66l-1.56,3.6,7.3,3.16,1.56-3.61a16.74,16.74,0,0,0,5.1.09l1.45,3.65,7.39-2.93-1.45-3.65a16.72,16.72,0,0,0,3.66-3.56l3.61,1.56,3.15-7.3-3.6-1.56a16.75,16.75,0,0,0,.08-5.1Zm-4.67,1.85a16,16,0,0,1-.07,4.26c-.06.36-.13.72-.2,1.07l1,.43,2.42,1-2.31,5.35-2.43-1.06-1-.42c-.21.3-.43.59-.65.88a15.91,15.91,0,0,1-3.05,3c-.29.21-.6.42-.9.61l1.37,3.46-5.42,2.15-1.37-3.47c-.36.08-.72.13-1.07.18a16,16,0,0,1-4.27-.07l-1.07-.2-.43,1-1,2.43-5.35-2.31,1-2.43.42-1c-.29-.2-.59-.42-.88-.64a15.68,15.68,0,0,1-3-3.06c-.21-.28-.41-.59-.61-.9l-3.46,1.37-2.14-5.41,3.46-1.37q-.1-.54-.18-1.08a15.56,15.56,0,0,1,.08-4.26c.06-.36.12-.72.2-1.07l-3.42-1.48,2.31-5.35,2.43,1.06,1,.42c.2-.3.42-.59.64-.88a15.68,15.68,0,0,1,3.06-3c.29-.22.59-.42.9-.61l-1.37-3.46,5.42-2.15L184.16,77c.35-.07.71-.13,1.07-.17a15.57,15.57,0,0,1,4.26.08c.36,0,.72.12,1.07.2l.43-1,1-2.43L197.39,76l-1.48,3.42c.3.2.6.42.88.64a15.62,15.62,0,0,1,3,3c.22.3.42.6.61.9l3.46-1.36L206,88.06l-3.46,1.37C202.59,89.79,202.65,90.15,202.69,90.51Z" transform="translate(-125.82 -18.29)"/><path class="cls-3" d="M209.87,68.72A1.79,1.79,0,1,0,212,70.08,1.8,1.8,0,0,0,209.87,68.72Zm.56,2.47a.73.73,0,1,1-.32-1.43.73.73,0,0,1,.32,1.43Z" transform="translate(-125.82 -18.29)"/><path class="cls-3" d="M222.08,73.52l.22-5-2.34-.1a9.91,9.91,0,0,0-.91-2.51l1.73-1.58-3.42-3.73-1.72,1.58A10.08,10.08,0,0,0,213.22,61l.1-2.34-5-.22-.11,2.34a10,10,0,0,0-2.51.91L204.07,60l-3.73,3.42,1.58,1.72a10.08,10.08,0,0,0-1.13,2.42l-2.33-.1-.23,5,2.34.11a10,10,0,0,0,.91,2.51l-1.72,1.58,3.41,3.73,1.73-1.58A9.74,9.74,0,0,0,207.32,80l-.1,2.33,5.05.23.1-2.34a9.91,9.91,0,0,0,2.51-.91L216.46,81l3.73-3.41-1.58-1.73a9.74,9.74,0,0,0,1.13-2.42Zm-3.15-1.2A8.32,8.32,0,0,1,217.87,75a8.87,8.87,0,0,1-.62.89l.72.79.72.78-2.17,2-1.43-1.57a8.92,8.92,0,0,1-1,.54,8.39,8.39,0,0,1-1.72.62,9.6,9.6,0,0,1-1.07.2l-.1,2.13-2.93-.13.1-2.13a8.24,8.24,0,0,1-3.61-1.69l-.79.73-.78.71-2-2.16L202,76l.79-.73a7.9,7.9,0,0,1-.54-.94,9.4,9.4,0,0,1-.63-1.73c-.08-.35-.14-.7-.19-1.07l-2.13-.09.13-2.93,2.13.09c.08-.36.17-.71.28-1.05a9,9,0,0,1,.78-1.66,7.94,7.94,0,0,1,.63-.89l-.73-.8-.71-.77,2.16-2,.71.78.72.79a9,9,0,0,1,.95-.55,9.12,9.12,0,0,1,1.73-.62,7.48,7.48,0,0,1,1.07-.19l.09-2.13,2.93.13-.09,2.13a7.37,7.37,0,0,1,1,.28,9.69,9.69,0,0,1,1.66.78,7.86,7.86,0,0,1,.89.62l.79-.72.78-.72,2,2.17-.78.71-.79.72a8.19,8.19,0,0,1,1.17,2.67,9.58,9.58,0,0,1,.19,1.07l2.13.1-.13,2.93Z" transform="translate(-125.82 -18.29)"/><path class="cls-3" d="M190.09,105.63a13.56,13.56,0,1,1,10.26-16.2A13.57,13.57,0,0,1,190.09,105.63Zm-5.7-25.42a12.49,12.49,0,1,0,14.93,9.46A12.5,12.5,0,0,0,184.39,80.21Z" transform="translate(-125.82 -18.29)"/><path class="cls-3" d="M211.7,76.89a6.5,6.5,0,1,1,4.93-7.77A6.51,6.51,0,0,1,211.7,76.89Zm-2.61-11.66a5.44,5.44,0,1,0,6.5,4.12A5.46,5.46,0,0,0,209.09,65.23Z" transform="translate(-125.82 -18.29)"/></svg>