<svg id="Layer_1" data-name="Layer 1" xmlns="http://www.w3.org/2000/svg" xmlns:xlink="http://www.w3.org/1999/xlink" viewBox="0 0 135.25 134.5"><defs><style>.cls-1{fill:url(#linear-gradient);}.cls-2{fill:url(#linear-gradient-2);}.cls-3{fill:#231f20;}</style><linearGradient id="linear-gradient" x1="238.35" y1="105.86" x2="359.2" y2="105.86" gradientUnits="userSpaceOnUse"><stop offset="0" stop-color="#60c29e"/><stop offset="0.37" stop-color="#33bdb0"/><stop offset="0.68" stop-color="#0aafe4"/><stop offset="1" stop-color="#2b80b3"/></linearGradient><linearGradient id="linear-gradient-2" x1="252.75" y1="65.22" x2="373.6" y2="65.22" xlink:href="#linear-gradient"/></defs><title>Citra Process - 3. Engagement</title><path class="cls-1" d="M356.09,125.79a5.36,5.36,0,0,0-7.6,4.86,5.28,5.28,0,0,0,.64,2.53,64.23,64.23,0,0,1-97.7-13.62c-.6-1-1.17-1.92-1.72-2.91a63.9,63.9,0,0,1-8.05-31.11,64.55,64.55,0,0,1,2-15.9h0A5.35,5.35,0,0,0,246.94,60,5.25,5.25,0,0,0,244.21,59a4.36,4.36,0,0,0-.51,0,5.35,5.35,0,0,0-2.87,9.87A67.33,67.33,0,0,0,248,119.56c.55.94,1.12,1.86,1.72,2.77a67.17,67.17,0,0,0,101.47,13,5.34,5.34,0,0,0,8-4.64,5.27,5.27,0,0,0-.88-2.94A5.39,5.39,0,0,0,356.09,125.79Zm-114.8-61.5A2.41,2.41,0,0,1,243,62a2.47,2.47,0,0,1,.72-.12,2.41,2.41,0,0,1,2,1.13,2.36,2.36,0,0,1,.38,1.29,2.42,2.42,0,0,1-1.59,2.26,2.54,2.54,0,0,1-.83.15,2.42,2.42,0,0,1-2.41-2.41Zm112.56,68.78a3,3,0,0,1-.31,0,2.42,2.42,0,0,1-2.08-2.08c0-.11,0-.2,0-.31a2.43,2.43,0,0,1,2.42-2.42l.16,0a2.42,2.42,0,0,1,2.21,1.94,2.32,2.32,0,0,1,0,.46A2.42,2.42,0,0,1,353.85,133.07Z" transform="translate(-238.35 -18.29)"/><path class="cls-2" d="M255.86,45.28a5.25,5.25,0,0,0,2.24.5,5.36,5.36,0,0,0,5.36-5.36,5.24,5.24,0,0,0-.64-2.52,64.24,64.24,0,0,1,97.7,13.61c.6,1,1.17,1.93,1.72,2.91a64,64,0,0,1,8.05,31.12,64.67,64.67,0,0,1-2,15.9h-.05A5.35,5.35,0,0,0,365,111a5.26,5.26,0,0,0,2.73,1.08l.51,0a5.35,5.35,0,0,0,2.87-9.86A67.35,67.35,0,0,0,364,51.51c-.55-.93-1.12-1.85-1.72-2.76a67.17,67.17,0,0,0-101.47-13,5.28,5.28,0,0,0-2.67-.72,5.35,5.35,0,0,0-2.24,10.21Zm114.8,61.51a2.4,2.4,0,0,1-1.69,2.29,2.18,2.18,0,0,1-.72.13,2.42,2.42,0,0,1-2-1.14,2.35,2.35,0,0,1-.38-1.28,2.41,2.41,0,0,1,1.59-2.26,2.31,2.31,0,0,1,.83-.16,2.42,2.42,0,0,1,2.41,2.42ZM258.1,38a3,3,0,0,1,.31,0,2.4,2.4,0,0,1,2.08,2.08c0,.1,0,.2,0,.3a2.42,2.42,0,0,1-2.42,2.42l-.16,0A2.41,2.41,0,0,1,258.1,38Z" transform="translate(-238.35 -18.29)"/><path class="cls-3" d="M285,108.3h12.43v2.17a.78.78,0,0,0,.79.78h19.1a.78.78,0,0,0,.79-.78V108.3h12.43a.78.78,0,0,0,.78-.78v-4.11A7.31,7.31,0,0,0,324,96.12h-6.06a7.21,7.21,0,0,0-3.57.94A7.43,7.43,0,0,0,312,99.17a7.66,7.66,0,0,0-1.26-.11H304.7a7.45,7.45,0,0,0-1.25.11,7.45,7.45,0,0,0-2.36-2.11,7.19,7.19,0,0,0-3.57-.94h-6a7.31,7.31,0,0,0-7.3,7.29v4.12A.77.77,0,0,0,285,108.3Zm30.18-9.88a5.63,5.63,0,0,1,2.8-.73H324a5.72,5.72,0,0,1,5.72,5.72v3.33H318.05v-.47h0v-.18h0v-.18h0v-.26h0v-.09h0v-.09h0v-.26h0v-.16h0v-.17h0v0h0v-.23h0v-.07h0v-.07l0-.13h0v-.06h0v-.21l-.07-.21h0a7.36,7.36,0,0,0-4-4.16A6.19,6.19,0,0,1,315.13,98.42Zm-10.43,2.22h6.06a5.74,5.74,0,0,1,5.68,5h0a1.42,1.42,0,0,0,0,.35h0v3.7H299v-3.57h0v-.58h0v-.18h0v0h0v-.06h0v-.12h0l0-.13h0l.06-.19h0l0-.13h0a5.76,5.76,0,0,1,5.44-4Zm-19,2.77a5.73,5.73,0,0,1,5.73-5.72h6a5.6,5.6,0,0,1,2.8.73,5.67,5.67,0,0,1,1.52,1.24,7.34,7.34,0,0,0-4.38,6v.39h0v.31h0v.38H285.74Z" transform="translate(-238.35 -18.29)"/><circle class="cls-3" cx="69.41" cy="52.05" r="0.89"/><path class="cls-3" d="M294.49,83.76A5.52,5.52,0,1,0,300,89.28a5.51,5.51,0,0,0-5.51-5.52Zm2.8,8.31a4,4,0,1,1,1.15-2.8A4,4,0,0,1,297.29,92.07Z" transform="translate(-238.35 -18.29)"/><circle class="cls-3" cx="75.14" cy="52.05" r="0.89"/><path class="cls-3" d="M320.88,70.5A9.75,9.75,0,0,0,317,62.9a15.41,15.41,0,0,0-18.46,0,9.75,9.75,0,0,0-3.92,7.6,9.06,9.06,0,0,0,1.12,4.32,11,11,0,0,0,2.75,3.24l-.62,4.14h0a.78.78,0,0,0,.65.88A.75.75,0,0,0,299,83l4.23-2.47a14.32,14.32,0,0,0,2,.46,15.84,15.84,0,0,0,2.48.19A14.76,14.76,0,0,0,317,78.1,9.79,9.79,0,0,0,320.88,70.5ZM316,76.89a13.17,13.17,0,0,1-8.26,2.7,13.86,13.86,0,0,1-2.23-.16,13.3,13.3,0,0,1-2.16-.51.81.81,0,0,0-.63.07h0l-3.08,1.83.44-3a.77.77,0,0,0-.32-.75,9.53,9.53,0,0,1-2.7-3,7.56,7.56,0,0,1-.92-3.57,8.21,8.21,0,0,1,3.33-6.39,14,14,0,0,1,16.51,0,7.81,7.81,0,0,1,0,12.78Z" transform="translate(-238.35 -18.29)"/><path class="cls-3" d="M321,94.79a5.51,5.51,0,1,0-3.9-1.62A5.53,5.53,0,0,0,321,94.79Zm-2.78-8.31A3.94,3.94,0,1,1,317,89.27,3.94,3.94,0,0,1,318.18,86.48Z" transform="translate(-238.35 -18.29)"/><circle class="cls-3" cx="63.69" cy="52.05" r="0.89"/><path class="cls-3" d="M303.83,88.32a5.5,5.5,0,1,0,3.9-1.62A5.52,5.52,0,0,0,303.83,88.32Zm7.85,3.9a4,4,0,1,1-1.16-2.79A3.9,3.9,0,0,1,311.68,92.22Z" transform="translate(-238.35 -18.29)"/></svg>