<svg id="Layer_1" data-name="Layer 1" xmlns="http://www.w3.org/2000/svg" xmlns:xlink="http://www.w3.org/1999/xlink" viewBox="0 0 135.25 134.5"><defs><style>.cls-1{fill:url(#linear-gradient);}.cls-2{fill:url(#linear-gradient-2);}.cls-3,.cls-4{fill:#231f20;stroke:#231f20;stroke-miterlimit:10;}.cls-3{stroke-width:0.75px;}.cls-4{stroke-width:0.25px;}</style><linearGradient id="linear-gradient" x1="365.28" y1="65.22" x2="486.13" y2="65.22" gradientUnits="userSpaceOnUse"><stop offset="0" stop-color="#60c29e"/><stop offset="0.37" stop-color="#33bdb0"/><stop offset="0.68" stop-color="#0aafe4"/><stop offset="1" stop-color="#2b80b3"/></linearGradient><linearGradient id="linear-gradient-2" x1="350.88" y1="105.86" x2="471.74" y2="105.86" xlink:href="#linear-gradient"/></defs><title>Citra Process - 4. Design</title><path class="cls-1" d="M368.39,45.28a5.28,5.28,0,0,0,2.24.5A5.36,5.36,0,0,0,376,40.42a5.24,5.24,0,0,0-.64-2.52,64.25,64.25,0,0,1,97.71,13.61c.59,1,1.17,1.93,1.71,2.91a64.29,64.29,0,0,1,6.06,47h-.05a5.35,5.35,0,0,0-3.24,9.61,5.26,5.26,0,0,0,2.74,1.08l.5,0a5.35,5.35,0,0,0,2.87-9.86,67.21,67.21,0,0,0-7.16-50.77c-.55-.93-1.12-1.86-1.72-2.76a67.17,67.17,0,0,0-101.47-13,5.23,5.23,0,0,0-2.67-.72,5.35,5.35,0,0,0-2.24,10.21ZM483.2,106.79a2.41,2.41,0,0,1-1.7,2.29,2.18,2.18,0,0,1-.72.13,2.42,2.42,0,0,1-2-1.14,2.35,2.35,0,0,1-.38-1.28,2.4,2.4,0,0,1,1.6-2.26,2.22,2.22,0,0,1,.82-.16,2.44,2.44,0,0,1,2.42,2.42ZM370.63,38c.11,0,.21,0,.32,0A2.4,2.4,0,0,1,373,40.12c0,.1,0,.2,0,.3a2.42,2.42,0,0,1-2.42,2.42l-.16,0a2.38,2.38,0,0,1-2.2-1.93A2.39,2.39,0,0,1,370.63,38Z" transform="translate(-350.88 -18.29)"/><path class="cls-2" d="M468.62,125.79a5.36,5.36,0,0,0-7,7.39A64.23,64.23,0,0,1,364,119.56c-.6-1-1.17-1.92-1.72-2.91a64.31,64.31,0,0,1-6.05-47h.05a5.35,5.35,0,0,0,.5-10.68,4.19,4.19,0,0,0-.5,0,5.35,5.35,0,0,0-2.87,9.87,67.23,67.23,0,0,0,7.15,50.76c.55.94,1.13,1.86,1.72,2.77a67.17,67.17,0,0,0,101.47,13,5.35,5.35,0,0,0,8-4.64,5.28,5.28,0,0,0-.89-2.94A5.39,5.39,0,0,0,468.62,125.79Zm-114.8-61.5a2.42,2.42,0,1,1,3.24,2.26,2.48,2.48,0,0,1-.82.15,2.39,2.39,0,0,1-2-1A2.33,2.33,0,0,1,353.82,64.29Zm112.56,68.78a3,3,0,0,1-.31,0A2.41,2.41,0,0,1,464,131a1.55,1.55,0,0,1,0-.31,2.43,2.43,0,0,1,2.42-2.42l.16,0a2.42,2.42,0,0,1,2.21,1.94,2.31,2.31,0,0,1,.05.46A2.43,2.43,0,0,1,466.38,133.07Z" transform="translate(-350.88 -18.29)"/><path class="cls-3" d="M420.26,67.44a14.91,14.91,0,0,0-11.26,4,15,15,0,0,0-2.82,18.32,54,54,0,0,1,3.5,7.24l2.54,6.72a1.36,1.36,0,0,0,1.26.87h11.61a1.35,1.35,0,0,0,1.26-.87l2.65-7a50,50,0,0,1,3.35-6.88,15,15,0,0,0-12.09-22.44Zm11.2,21.93a49.28,49.28,0,0,0-3.42,7l-2.65,7a.33.33,0,0,1-.3.2H413.48a.33.33,0,0,1-.3-.2l-2.54-6.72a55,55,0,0,0-3.57-7.39,14,14,0,0,1-1.79-6.85,14,14,0,0,1,14-14l.92,0a14,14,0,0,1,11.26,20.91Z" transform="translate(-350.88 -18.29)"/><path class="cls-3" d="M425.07,106.25H413.5a.52.52,0,0,0,0,1h11.57a.52.52,0,0,0,0-1Z" transform="translate(-350.88 -18.29)"/><path class="cls-3" d="M423.91,108.91h-9.25a.52.52,0,0,0,0,1h9.25a.52.52,0,1,0,0-1Z" transform="translate(-350.88 -18.29)"/><path class="cls-3" d="M423.23,111.56h-7.88a.52.52,0,1,0,0,1h7.88a.52.52,0,0,0,0-1Z" transform="translate(-350.88 -18.29)"/><path class="cls-3" d="M420.79,114.22h-3a.51.51,0,1,0,0,1h3a.51.51,0,0,0,0-1Z" transform="translate(-350.88 -18.29)"/><path class="cls-3" d="M422.37,88.31a1,1,0,0,0,0,.17v-.17Z" transform="translate(-350.88 -18.29)"/><path class="cls-3" d="M416.21,88.33v.15a.27.27,0,0,0,0-.13Z" transform="translate(-350.88 -18.29)"/><path class="cls-3" d="M401,83.22h-8.43a.42.42,0,0,1,0-.84H401a.42.42,0,0,1,0,.84Z" transform="translate(-350.88 -18.29)"/><path class="cls-3" d="M445.62,83.22H437.2a.42.42,0,0,1,0-.84h8.42a.42.42,0,1,1,0,.84Z" transform="translate(-350.88 -18.29)"/><path class="cls-3" d="M396.08,96.5a.43.43,0,0,1-.36-.21.42.42,0,0,1,.15-.58l7.3-4.22a.43.43,0,0,1,.58.16.42.42,0,0,1-.15.58l-7.3,4.21A.43.43,0,0,1,396.08,96.5Z" transform="translate(-350.88 -18.29)"/><path class="cls-3" d="M434.77,74.16a.43.43,0,0,1-.37-.21.44.44,0,0,1,.16-.58l7.3-4.21a.42.42,0,0,1,.42.73L435,74.1A.42.42,0,0,1,434.77,74.16Z" transform="translate(-350.88 -18.29)"/><path class="cls-3" d="M428.14,67.53a.39.39,0,0,1-.21-.06.42.42,0,0,1-.16-.57L432,59.6a.42.42,0,1,1,.72.42l-4.21,7.3A.43.43,0,0,1,428.14,67.53Z" transform="translate(-350.88 -18.29)"/><path class="cls-3" d="M419.08,65.1a.42.42,0,0,1-.42-.42V56.25a.42.42,0,0,1,.42-.42.42.42,0,0,1,.42.42v8.43A.42.42,0,0,1,419.08,65.1Z" transform="translate(-350.88 -18.29)"/><path class="cls-3" d="M410,67.53a.44.44,0,0,1-.37-.21L405.44,60a.42.42,0,0,1,.15-.58.44.44,0,0,1,.58.16l4.21,7.3a.41.41,0,0,1-.15.57A.42.42,0,0,1,410,67.53Z" transform="translate(-350.88 -18.29)"/><path class="cls-3" d="M442.07,96.49a.38.38,0,0,1-.21,0l-7.3-4.22a.42.42,0,0,1-.16-.57.44.44,0,0,1,.58-.16l7.3,4.22a.41.41,0,0,1,.15.57A.4.4,0,0,1,442.07,96.49Z" transform="translate(-350.88 -18.29)"/><path class="cls-3" d="M403.39,74.16a.43.43,0,0,1-.22-.06l-7.29-4.21a.42.42,0,1,1,.42-.73l7.3,4.21a.42.42,0,0,1,.15.58A.43.43,0,0,1,403.39,74.16Z" transform="translate(-350.88 -18.29)"/><path class="cls-4" d="M416.89,93.24a2.87,2.87,0,0,1-2-4.9.48.48,0,0,1,.68,0,.47.47,0,0,1,0,.67,1.92,1.92,0,1,0,3.27,1.39.45.45,0,0,1,.48-.47.48.48,0,0,1,.48.48,2.89,2.89,0,0,1-.85,2A2.85,2.85,0,0,1,416.89,93.24Z" transform="translate(-350.88 -18.29)"/><path class="cls-4" d="M414,81a2.88,2.88,0,0,1,0-5.75,2.84,2.84,0,0,1,1.91.73.47.47,0,0,1,0,.67.48.48,0,0,1-.68,0,1.89,1.89,0,0,0-1.27-.48A1.92,1.92,0,0,0,414,80a.47.47,0,0,1,.48.48A.48.48,0,0,1,414,81Z" transform="translate(-350.88 -18.29)"/><path class="cls-4" d="M411.06,86.42a.48.48,0,0,1-.2,0,1.92,1.92,0,0,1,.77-3.67.47.47,0,0,1,.48.48.48.48,0,0,1-.48.48,1,1,0,0,0-1,1,1,1,0,0,0,.58.87.48.48,0,0,1,.24.63A.46.46,0,0,1,411.06,86.42Z" transform="translate(-350.88 -18.29)"/><path class="cls-4" d="M411.63,83.67a2.39,2.39,0,0,1-2.39-2.39,2.42,2.42,0,0,1,2.89-2.34.47.47,0,0,1-.19.93,1.46,1.46,0,0,0-1.74,1.41,1.43,1.43,0,0,0,1.43,1.43.47.47,0,0,1,.48.48A.48.48,0,0,1,411.63,83.67Z" transform="translate(-350.88 -18.29)"/><path class="cls-4" d="M417.37,77.93a2.4,2.4,0,1,1,2.39-2.39.48.48,0,0,1-.95,0A1.44,1.44,0,1,0,417.37,77a.47.47,0,0,1,.48.48A.48.48,0,0,1,417.37,77.93Z" transform="translate(-350.88 -18.29)"/><path class="cls-4" d="M414,91.32a3.83,3.83,0,0,1-2.71-6.53,3.76,3.76,0,0,1,2.7-1.12h0a3.8,3.8,0,0,1,2.71,1.12.48.48,0,0,1,0,.68.5.5,0,0,1-.68,0,2.82,2.82,0,0,0-2-.85h0a2.87,2.87,0,1,0,.45,5.71.49.49,0,0,1,.54.4.48.48,0,0,1-.4.55A3.69,3.69,0,0,1,414,91.32Z" transform="translate(-350.88 -18.29)"/><path class="cls-4" d="M421.68,93.24a2.87,2.87,0,0,1-2.87-2.83.48.48,0,0,1,1,0,1.83,1.83,0,0,0,.56,1.32A1.91,1.91,0,0,0,423,89a.48.48,0,0,1,0-.67.48.48,0,0,1,.68,0,2.87,2.87,0,0,1-2,4.9Z" transform="translate(-350.88 -18.29)"/><path class="cls-4" d="M424.55,81a.49.49,0,0,1-.48-.48.48.48,0,0,1,.48-.48,1.92,1.92,0,1,0-1.27-3.35.48.48,0,0,1-.68,0,.48.48,0,0,1,0-.67,2.87,2.87,0,1,1,1.91,5Z" transform="translate(-350.88 -18.29)"/><path class="cls-4" d="M427.52,86.42a.48.48,0,0,1-.44-.29.47.47,0,0,1,.25-.63,1,1,0,0,0-.39-1.83.49.49,0,0,1-.48-.48.48.48,0,0,1,.48-.48,1.91,1.91,0,0,1,.77,3.67A.43.43,0,0,1,427.52,86.42Z" transform="translate(-350.88 -18.29)"/><path class="cls-4" d="M426.94,83.67a.49.49,0,0,1-.48-.48.48.48,0,0,1,.48-.48,1.44,1.44,0,0,0,1.44-1.43,1.46,1.46,0,0,0-1.74-1.41.48.48,0,1,1-.2-.93,2.41,2.41,0,0,1,2.89,2.34A2.39,2.39,0,0,1,426.94,83.67Z" transform="translate(-350.88 -18.29)"/><path class="cls-4" d="M421.2,77.93a.49.49,0,0,1-.48-.48.48.48,0,0,1,.48-.48,1.44,1.44,0,1,0-1.43-1.43.48.48,0,0,1-.48.47.47.47,0,0,1-.48-.47,2.39,2.39,0,1,1,2.39,2.39Z" transform="translate(-350.88 -18.29)"/><path class="cls-4" d="M424.54,91.32a3.77,3.77,0,0,1-.58,0,.48.48,0,0,1,.15-1,2.87,2.87,0,1,0,.44-5.71h0a2.82,2.82,0,0,0-2,.85.48.48,0,1,1-.68-.68,3.8,3.8,0,0,1,2.71-1.12h0a3.83,3.83,0,0,1,2.71,6.53A3.84,3.84,0,0,1,424.54,91.32Z" transform="translate(-350.88 -18.29)"/><path class="cls-4" d="M419.29,90.88a.47.47,0,0,1-.48-.48V75.54a.47.47,0,0,1,.48-.48.48.48,0,0,1,.48.48V90.4A.48.48,0,0,1,419.29,90.88Z" transform="translate(-350.88 -18.29)"/><path class="cls-4" d="M420.72,87.5a2.23,2.23,0,0,1-1.86-1.23.48.48,0,0,1,.85-.43,1.32,1.32,0,0,0,1,.7.48.48,0,0,1,.48.48A.49.49,0,0,1,420.72,87.5Z" transform="translate(-350.88 -18.29)"/><path class="cls-4" d="M417.85,87.5a.48.48,0,0,1-.48-.48.47.47,0,0,1,.48-.48,1.27,1.27,0,0,0,1-.7.5.5,0,0,1,.65-.21.48.48,0,0,1,.21.64A2.25,2.25,0,0,1,417.85,87.5Z" transform="translate(-350.88 -18.29)"/><path class="cls-4" d="M421.68,81.75c-2.27,0-2.87-1.56-2.87-2.39a.48.48,0,0,1,.48-.48.49.49,0,0,1,.48.48c0,.14.07,1.44,1.91,1.44a.48.48,0,1,1,0,1Z" transform="translate(-350.88 -18.29)"/><path class="cls-4" d="M416.89,81.75a.48.48,0,1,1,0-1c1.83,0,1.91-1.3,1.91-1.44a.46.46,0,0,1,.49-.47.47.47,0,0,1,.47.47C419.76,80.19,419.16,81.75,416.89,81.75Z" transform="translate(-350.88 -18.29)"/></svg>