<svg id="Layer_1" data-name="Layer 1" xmlns="http://www.w3.org/2000/svg" xmlns:xlink="http://www.w3.org/1999/xlink" viewBox="0 0 134.88 134.5"><defs><style>.cls-1{fill:url(#linear-gradient);}.cls-2,.cls-3{fill:#231f20;}.cls-2{stroke:#231f20;stroke-miterlimit:10;stroke-width:0.5px;}</style><linearGradient id="linear-gradient" x1="13.66" y1="85.54" x2="148.53" y2="85.54" gradientUnits="userSpaceOnUse"><stop offset="0" stop-color="#60c29e"/><stop offset="0.37" stop-color="#33bdb0"/><stop offset="0.68" stop-color="#0aafe4"/><stop offset="1" stop-color="#2b80b3"/></linearGradient></defs><title>Citra Process - 1. Identification</title><path class="cls-1" d="M131,125.79a5.36,5.36,0,0,0-7,7.39,64.29,64.29,0,1,1,11.4-81.67c.59,1,1.17,1.93,1.72,2.91a64.33,64.33,0,0,1,6,47h0a5.35,5.35,0,0,0-3.24,9.61,5.3,5.3,0,0,0,2.74,1.08l.5,0a5.35,5.35,0,0,0,2.87-9.86,67.21,67.21,0,0,0-7.16-50.77q-.82-1.4-1.71-2.76a67.27,67.27,0,1,0-11.07,86.54,5.35,5.35,0,0,0,8-4.64,5.28,5.28,0,0,0-.89-2.94A5.39,5.39,0,0,0,131,125.79Zm14.58-19a2.41,2.41,0,0,1-1.7,2.29,2.18,2.18,0,0,1-.72.13,2.41,2.41,0,0,1-.82-4.68,2.26,2.26,0,0,1,.82-.16,2.44,2.44,0,0,1,2.42,2.42Zm-16.82,26.28-.31,0A2.42,2.42,0,0,1,126.4,131a1.55,1.55,0,0,1,0-.31,2.42,2.42,0,0,1,2.41-2.42l.16,0a2.42,2.42,0,0,1,2.21,1.94,2.31,2.31,0,0,1,0,.46A2.42,2.42,0,0,1,128.78,133.07Z" transform="translate(-13.66 -18.29)"/><path class="cls-2" d="M107.68,105.68,93.52,91.52a21.28,21.28,0,1,0-5.8,5.79l14.16,14.16a4.1,4.1,0,0,0,5.8-5.79Zm-51.23-26A19.44,19.44,0,1,1,75.89,99.12,19.43,19.43,0,0,1,56.45,79.68Zm48.33,31.19a2.24,2.24,0,0,1-1.62-.68L89.37,96.4l3.24-3.24L106.4,107a2.3,2.3,0,0,1-1.62,3.92Z" transform="translate(-13.66 -18.29)"/><path class="cls-3" d="M76.27,86.5a1.63,1.63,0,0,1-1.63-1.63V80.94a3.09,3.09,0,0,1,2.44-3,3.65,3.65,0,1,0-4.46-3.56,1.64,1.64,0,0,1-3.27,0,6.92,6.92,0,1,1,8.56,6.72v3.8A1.63,1.63,0,0,1,76.27,86.5Z" transform="translate(-13.66 -18.29)"/><path class="cls-3" d="M76.27,93a1.62,1.62,0,0,1-1.15-.48,1.64,1.64,0,0,1-.48-1.15,1.64,1.64,0,1,1,3.27,0,1.64,1.64,0,0,1-.48,1.15A1.63,1.63,0,0,1,76.27,93Z" transform="translate(-13.66 -18.29)"/></svg>