<?xml version="1.0" encoding="utf-8"?>
<!-- Generator: Adobe Illustrator 16.0.0, SVG Export Plug-In . SVG Version: 6.00 Build 0)  -->
<!DOCTYPE svg PUBLIC "-//W3C//DTD SVG 1.1//EN" "http://www.w3.org/Graphics/SVG/1.1/DTD/svg11.dtd">
<svg version="1.1" id="Capa_1" xmlns="http://www.w3.org/2000/svg" xmlns:xlink="http://www.w3.org/1999/xlink" x="0px" y="0px"
	 width="612px" height="792px" viewBox="0 0 612 792" enable-background="new 0 0 612 792" xml:space="preserve">
<g>
	<g>
		<linearGradient id="SVGID_1_" gradientUnits="userSpaceOnUse" x1="0" y1="396" x2="612" y2="396">
			<stop  offset="0" style="stop-color:#7BC0B1"/>
			<stop  offset="1" style="stop-color:#3A9DC4"/>
		</linearGradient>
		<path fill="url(#SVGID_1_)" d="M522.374,179.625C464.578,121.829,387.735,90,306,90c-81.737,0-158.581,31.83-216.375,89.625
			C31.829,237.42,0,314.265,0,396s31.829,158.58,89.625,216.375C147.419,670.17,224.263,702,306,702
			c81.735,0,158.578-31.829,216.374-89.625C580.17,554.578,612,477.735,612,396S580.17,237.421,522.374,179.625z M306,666.141
			C157.044,666.141,35.859,544.956,35.859,396S157.044,125.859,306,125.859S576.141,247.044,576.141,396
			S454.956,666.141,306,666.141z"/>
	</g>
</g>
<g>
	<g>
		<linearGradient id="SVGID_2_" gradientUnits="userSpaceOnUse" x1="220.853" y1="395.9985" x2="487.1689" y2="395.9985">
			<stop  offset="0" style="stop-color:#7BC0B1"/>
			<stop  offset="1" style="stop-color:#3A9DC3"/>
		</linearGradient>
		<path fill="url(#SVGID_2_)" d="M479.184,381.083l-230.456-153.64c-5.502-3.667-12.574-4.01-18.405-0.889
			c-5.83,3.12-9.469,9.195-9.469,15.808v307.274c0,6.612,3.64,12.688,9.469,15.809c2.651,1.419,5.558,2.121,8.459,2.121
			c3.478,0,6.947-1.011,9.946-3.011l230.456-153.636c4.988-3.325,7.985-8.925,7.985-14.919
			C487.168,390.007,484.172,384.408,479.184,381.083z M256.711,516.136V275.865l180.203,120.136L256.711,516.136z"/>
	</g>
</g>
</svg>
