<svg id="Layer_1" data-name="Layer 1" xmlns="http://www.w3.org/2000/svg" xmlns:xlink="http://www.w3.org/1999/xlink" viewBox="0 0 134.88 134.5"><defs><style>.cls-1{fill:url(#linear-gradient);}.cls-2{fill:#231f20;stroke:#231f20;stroke-miterlimit:10;stroke-width:0.75px;}</style><linearGradient id="linear-gradient" x1="688.48" y1="85.54" x2="823.36" y2="85.54" gradientUnits="userSpaceOnUse"><stop offset="0" stop-color="#60c29e"/><stop offset="0.37" stop-color="#33bdb0"/><stop offset="0.68" stop-color="#0aafe4"/><stop offset="1" stop-color="#2b80b3"/></linearGradient></defs><title>Citra Process - 7. Impact Evaluation</title><path class="cls-1" d="M756.11,18.29a67,67,0,0,0-45.21,17.5,5.23,5.23,0,0,0-2.67-.72,5.36,5.36,0,0,0-5.35,5.35A5.32,5.32,0,0,0,706,45.28a5.28,5.28,0,0,0,2.24.5,5.36,5.36,0,0,0,5.36-5.36A5.24,5.24,0,0,0,713,37.9a64.3,64.3,0,1,1-11.39,81.66c-.6-1-1.17-1.92-1.72-2.91a64.31,64.31,0,0,1-6.05-47h.05a5.35,5.35,0,0,0,.5-10.68,4.19,4.19,0,0,0-.5,0A5.35,5.35,0,0,0,691,68.8a67.23,67.23,0,0,0,7.15,50.76c.55.94,1.13,1.86,1.72,2.77a67.24,67.24,0,1,0,56.27-104ZM710.65,40.42a2.42,2.42,0,0,1-2.42,2.42l-.16,0a2.41,2.41,0,0,1,.16-4.81c.11,0,.21,0,.32,0a2.4,2.4,0,0,1,2.07,2.08C710.63,40.22,710.65,40.32,710.65,40.42ZM691.42,64.29a2.42,2.42,0,0,1,1.7-2.3,2.36,2.36,0,0,1,.72-.12,2.41,2.41,0,0,1,2,1.13,2.43,2.43,0,0,1,.37,1.29,2.41,2.41,0,0,1-1.59,2.26,2.48,2.48,0,0,1-.82.15,2.39,2.39,0,0,1-2-1A2.33,2.33,0,0,1,691.42,64.29Z" transform="translate(-688.48 -18.29)"/><path class="cls-2" d="M775,75.22a24.68,24.68,0,1,1-2.79-2.79l1.12-1.12a26.26,26.26,0,1,0,2.79,2.79Z" transform="translate(-688.48 -18.29)"/><path class="cls-2" d="M772.81,91.18a16.6,16.6,0,1,1-6.34-13L767.6,77a18.26,18.26,0,1,0,2.78,2.79L769.26,81A16.51,16.51,0,0,1,772.81,91.18Z" transform="translate(-688.48 -18.29)"/><path class="cls-2" d="M745.91,91.18a10.35,10.35,0,1,0,18.92-5.79l-1.15,1.14A8.69,8.69,0,0,1,765,91.18a8.81,8.81,0,1,1-4.12-7.43L762,82.6a10.34,10.34,0,0,0-16.13,8.58Z" transform="translate(-688.48 -18.29)"/><polygon class="cls-2" points="105.19 45.59 95.14 45.59 95.14 35.4 96.71 35.4 96.71 44.02 105.19 44.02 105.19 45.59"/><polygon class="cls-2" points="100 50.78 89.94 50.78 89.94 40.59 91.52 40.59 91.52 49.21 100 49.21 100 50.78"/><rect class="cls-2" x="750.48" y="76.45" width="39.42" height="1.58" transform="translate(-517.59 548.86) rotate(-44.99)"/></svg>