<?xml version="1.0" encoding="utf-8"?>
<!-- Generator: Adobe Illustrator 16.0.0, SVG Export Plug-In . SVG Version: 6.00 Build 0)  -->
<!DOCTYPE svg PUBLIC "-//W3C//DTD SVG 1.1//EN" "http://www.w3.org/Graphics/SVG/1.1/DTD/svg11.dtd">
<svg version="1.1" id="Layer_1" xmlns="http://www.w3.org/2000/svg" xmlns:xlink="http://www.w3.org/1999/xlink" x="0px" y="0px"
	 width="64px" height="80px" viewBox="0 0 64 80" enable-background="new 0 0 64 80" xml:space="preserve">
<g>
	<g transform="translate(-578 -1594)">
		<g>
			<g>
				<path id="e2b4a" fill="#0B232F" d="M622.13,1629.14l-2.25-1.7c-0.35-0.36-0.94-0.36-1.42,0c-1.3,0.85-2.601,1.46-4.14,1.82
					c-0.471,0.12-0.83,0.49-0.95,1.1l-0.351,2.9h-1.539l-0.36-2.9c-0.11-0.5-0.47-0.98-0.94-1.1c-1.521-0.222-2.953-0.847-4.15-1.81
					c-0.443-0.242-0.978-0.242-1.42,0l-2.25,1.7l-1.06-1.1l1.66-2.3c0.35-0.36,0.35-1.09,0-1.45c-0.846-1.281-1.411-2.726-1.66-4.24
					c-0.12-0.48-0.47-0.84-1.07-0.96l-2.72-0.37v-1.57l2.84-0.36c0.48-0.12,0.95-0.49,1.07-0.97c0.213-1.543,0.823-3.004,1.77-4.24
					c0.24-0.479,0.24-0.96,0-1.45l-1.9-2.3l1.07-1.09l2.14,1.7c0.35,0.36,1.06,0.36,1.42,0c1.24-0.86,2.653-1.44,4.14-1.7
					c0.47-0.12,0.831-0.48,0.95-1.09l0.351-2.9h1.54l0.359,2.9c0.11,0.49,0.471,0.97,0.94,1.1c1.519,0.219,2.952,0.84,4.149,1.8
					c0.471,0.25,0.94,0.25,1.42,0l2.25-1.69l1.061,1.1l-1.66,2.3c-0.35,0.36-0.35,0.96,0,1.45c0.813,1.308,1.413,2.735,1.78,4.23
					c0.12,0.48,0.47,0.85,1.06,0.97l2.851,0.36v1.45l-2.851,0.37c-0.47,0.12-0.939,0.48-1.06,0.96
					c-0.216,1.543-0.829,3.005-1.78,4.24c-0.23,0.48-0.23,0.97,0,1.45l1.66,2.3L622.13,1629.14z M625.57,1629.02
					c0.47-0.48,0.47-1.09,0.119-1.57l-1.779-2.42c0.6-1.1,1.18-2.3,1.42-3.63l2.96-0.37c0.601-0.12,1.069-0.6,1.069-1.2v-3.64
					c0-0.6-0.479-1.09-1.069-1.2l-2.96-0.37c-0.37-1.248-0.845-2.462-1.42-3.63l1.779-2.42c0.351-0.49,0.351-1.21-0.119-1.7
					l-2.49-2.66c-0.471-0.48-1.061-0.48-1.54-0.12l-2.37,1.94c-1.111-0.677-2.304-1.208-3.55-1.58l-0.351-3.02
					c-0.119-0.6-0.6-1.09-1.189-1.09h-3.55c-0.59,0-1.06,0.48-1.18,1.09l-0.36,3.02c-1.18,0.37-2.36,0.85-3.43,1.46l-2.37-1.94
					c-0.47-0.36-1.18-0.36-1.54,0.12l-2.48,2.66c-0.449,0.413-0.502,1.104-0.12,1.58l1.78,2.42c-0.6,1.09-1.19,2.3-1.43,3.63
					l-2.95,0.36c-0.6,0.12-1.07,0.6-1.07,1.21v3.63c0,0.6,0.47,1.09,1.07,1.21l2.95,0.36c0.36,1.21,0.83,2.42,1.43,3.63l-1.9,2.42
					c-0.35,0.49-0.35,1.21,0.12,1.58l2.49,2.66c0.47,0.48,1.06,0.48,1.53,0.12l2.37-1.94c1.07,0.61,2.25,1.22,3.44,1.46l0.35,3.02
					c0.12,0.6,0.6,1.1,1.18,1.1h3.561c0.59,0,1.06-0.5,1.18-1.1l0.35-3.02c1.189-0.37,2.37-0.85,3.439-1.46l2.371,1.82
					c0.229,0.12,0.47,0.24,0.699,0.24c0.36,0,0.721-0.12,0.95-0.36L625.57,1629.02z"/>
			</g>
		</g>
		<g>
			<g>
				<path id="e2b4b" fill="#0B232F" d="M612.37,1623.33c-2.846-0.027-5.144-2.334-5.16-5.18c0.021-2.842,2.318-5.143,5.16-5.17
					c2.843,0.027,5.138,2.328,5.159,5.17C617.514,1620.996,615.217,1623.303,612.37,1623.33z M612.37,1610.63
					c-4.1,0-7.51,3.41-7.51,7.52c-0.017,4.142,3.328,7.514,7.47,7.53c0.01,0,0.02,0,0.029,0c4.11,0,7.511-3.41,7.511-7.53
					C619.801,1614.034,616.486,1610.71,612.37,1610.63z"/>
			</g>
		</g>
		<g>
			<g>
				<path id="e2b4c" fill="#0B232F" d="M637.33,1644.47h-4.54v-4.46h4.66c1.2,0,2.28,0.96,2.28,2.301
					C639.62,1643.548,638.572,1644.49,637.33,1644.47L637.33,1644.47z M620.23,1649.57c-1.801,0-11.84,0.13-15.311,0.13l-0.36-2.8
					h16.03C620.471,1647.87,620.35,1648.72,620.23,1649.57L620.23,1649.57z M624.891,1660.45l-24.641,0.12v-8.471
					c8.5,0,19.26-0.119,24.641-0.119V1660.45z M594.99,1640.01h35.4v4.46H595L594.99,1640.01z M592.59,1640.37v3.87l-8.13-1.93
					L592.59,1640.37z M597.5,1633.35c-4.373-4.648-6.549-10.944-5.98-17.3c0.96-10.64,9.33-19.1,19.621-19.71
					c5.713-0.34,11.309,1.718,15.439,5.68c4.35,4.174,6.813,9.941,6.82,15.97c0,5.689-2.041,11.13-5.871,15.12
					c-1.285,1.359-2.41,2.863-3.35,4.48h-23.33C599.876,1636.069,598.754,1634.648,597.5,1633.35L597.5,1633.35z M614.25,1671.34
					h-3.109c-1.561,0-2.75-1.33-2.75-2.9v-5.33c0-0.119,0-0.119,0.11-0.119h8.26l0.12,0.119v5.33
					C616.88,1670.01,615.68,1671.34,614.25,1671.34z M637.33,1637.59h-10.4c0.711-0.97,1.43-1.939,2.271-2.779
					c4.234-4.569,6.548-10.592,6.46-16.82c0-6.65-2.75-13.18-7.54-17.66c-4.563-4.408-10.769-6.694-17.101-6.3
					c-11.489,0.73-20.819,10.05-21.899,21.9c-0.569,7.034,1.865,13.98,6.7,19.12l2.16,2.54h-4.43l-14.6,3.5
					c-0.6,0.13-0.95,0.61-0.95,1.221c0,0.6,0.36,1.079,0.96,1.199l14.47,3.51h8.61c0.24,0.851,0.36,1.82,0.36,2.791h-2.75
					c-0.48,0-0.95,0.239-1.31,0.6c-0.36,0.359-0.6,0.85-0.6,1.33v9.56c-0.017,1.05,0.82,1.913,1.87,1.93
					c0.013,0.001,0.027,0.001,0.04,0.001h6.1v3.629h-2.87c-0.72,0-1.2,0.601-1.2,1.211c0,0.729,0.48,1.209,1.2,1.209h3
					c0.35,2.66,2.39,4.721,5.021,4.721h3.1c2.647-0.029,4.833-2.08,5.029-4.721h3c0.669,0,1.211-0.541,1.211-1.209
					c0-0.669-0.542-1.211-1.211-1.211h-2.879v-3.629h6.22c0.479,0,0.96-0.24,1.319-0.601c0.36-0.36,0.601-0.851,0.601-1.33v-9.56
					c0.017-1.05-0.82-1.914-1.87-1.93c-0.017-0.001-0.033-0.001-0.05-0.001h-2.75l0.36-2.67h14.35
					c2.588-0.017,4.676-2.122,4.67-4.71c0.105-2.566-1.891-4.73-4.456-4.836C637.473,1637.591,637.401,1637.59,637.33,1637.59
					L637.33,1637.59z"/>
			</g>
		</g>
	</g>
</g>
</svg>
