<?xml version="1.0" encoding="utf-8"?>
<!-- Generator: Adobe Illustrator 16.0.0, SVG Export Plug-In . SVG Version: 6.00 Build 0)  -->
<!DOCTYPE svg PUBLIC "-//W3C//DTD SVG 1.1//EN" "http://www.w3.org/Graphics/SVG/1.1/DTD/svg11.dtd">
<svg version="1.1" id="Layer_1" xmlns="http://www.w3.org/2000/svg" xmlns:xlink="http://www.w3.org/1999/xlink" x="0px" y="0px"
	 width="80px" height="80px" viewBox="0 0 80 80" enable-background="new 0 0 80 80" xml:space="preserve">
<g>
	<g transform="translate(-350 -1594)">
		<g>
			<g>
				<path id="fid4a" fill="#0B232F" d="M398.67,1656.87c1.533-1.719,2.719-3.72,3.49-5.89h3.49
					C403.828,1653.474,401.435,1655.494,398.67,1656.87L398.67,1656.87z M374.24,1650.98h3.49c0.864,2.125,2.041,4.11,3.49,5.89
					C378.434,1655.526,376.033,1653.5,374.24,1650.98L374.24,1650.98z M381.22,1622.21c-1.357,1.647-2.49,3.466-3.37,5.41h-3.25
					c1.803-2.245,4.059-4.085,6.62-5.4V1622.21z M405.29,1627.62h-3.25c-0.808-1.979-1.947-3.806-3.37-5.4
					C401.231,1623.535,403.487,1625.375,405.29,1627.62z M404.32,1640.75h5.06c-0.167,2.727-0.905,5.389-2.17,7.811h-4.09
					C403.721,1646.16,404.2,1643.52,404.32,1640.75z M395.061,1648.561c0.359-3.24,0.479-6.25,0.479-7.811h6.38
					c-0.12,2.77-0.6,5.41-1.33,7.811H395.061z M393.01,1658.311c0.84-1.92,1.32-4.561,1.69-7.33h4.8
					C397.939,1654.58,395.66,1657.11,393.01,1658.311z M385.07,1650.98c0.36,2.649,0.96,5.3,1.68,7.33
					c-2.64-1.2-4.93-3.721-6.5-7.33H385.07z M377.97,1640.75h6.38c0,1.561,0.12,4.57,0.48,7.811h-5.42
					C378.53,1646.047,378.044,1643.412,377.97,1640.75z M384.83,1630.04c-0.294,2.757-0.455,5.527-0.48,8.3h-6.38
					c0.12-3,0.6-5.77,1.56-8.3H384.83z M386.75,1620.89c-0.813,2.214-1.376,4.511-1.68,6.85h-4.7
					C382.06,1624.38,384.23,1621.97,386.75,1620.89z M394.7,1627.62c-0.264-2.347-0.832-4.649-1.69-6.85
					c2.53,1.08,4.7,3.48,6.26,6.85H394.7z M389.88,1620.17c0.72,0.48,1.69,3,2.4,7.45h-4.68
					C388.2,1623.17,389.28,1620.65,389.88,1620.17z M386.75,1638.34c0-3.13,0.24-5.899,0.48-8.3h5.42c0.24,2.4,0.479,5.17,0.479,8.3
					H386.75z M387.23,1648.561c-0.24-2.28-0.36-4.92-0.48-7.811h6.38c0,2.891-0.239,5.53-0.479,7.811H387.23z M389.89,1659.051
					c-0.73-0.49-1.81-3.25-2.42-7.951h4.95C391.7,1655.801,390.609,1658.561,389.89,1659.051z M401.92,1638.35h-6.38
					c0-1.699-0.12-4.939-0.479-8.31h5.299c0.83,2.53,1.44,5.3,1.561,8.3V1638.35z M409.26,1638.35h-5.06
					c-0.12-3.02-0.601-5.779-1.44-8.31h3.971c1.555,2.498,2.428,5.359,2.529,8.3V1638.35z M373.03,1630.04h3.98
					c-0.872,2.685-1.36,5.479-1.45,8.3h-5.05C370.75,1635.34,371.59,1632.57,373.03,1630.04z M370.63,1640.75h5.05
					c0.12,2.77,0.48,5.41,1.33,7.811h-4.22C371.445,1646.172,370.704,1643.49,370.63,1640.75L370.63,1640.75z M411.78,1639.551
					c0.005-12.029-9.741-21.785-21.771-21.791c-12.028-0.005-21.784,9.741-21.79,21.77c-0.006,12.028,9.741,21.784,21.77,21.79
					c0.003,0,0.006,0,0.01,0c12.04,0.12,21.78-9.86,21.78-21.78V1639.551z"/>
			</g>
		</g>
		<g>
			<g>
				<path id="fid4b" fill="#0B232F" d="M372.93,1671.54h-20.52v-2.59c-0.022-3.364,2.675-6.116,6.04-6.16h8.45
					c3.36,0.05,6.052,2.8,6.03,6.16V1671.54z M362.79,1648.87c2.821,0.044,5.081,2.349,5.07,5.17c0,2.84-2.29,5.181-5.07,5.181
					c-2.825-0.045-5.087-2.355-5.07-5.181C357.72,1651.09,360.02,1648.87,362.79,1648.87z M366.89,1660.33h-0.11
					c2.17-1.412,3.485-3.82,3.5-6.41c0.022-4.17-3.32-7.58-7.49-7.641c-4.166,0.066-7.502,3.475-7.48,7.641
					c0.018,2.586,1.333,4.99,3.5,6.4h-0.36c-4.712,0.061-8.489,3.918-8.45,8.63v3.819c0,0.74,0.48,1.23,1.2,1.23h22.94
					c0.72,0,1.2-0.49,1.2-1.23v-3.819c0.034-4.704-3.736-8.555-8.44-8.62H366.89z"/>
			</g>
		</g>
		<g>
			<g>
				<path id="fid4c" fill="#0B232F" d="M427.58,1671.54h-20.52v-2.59c-0.023-3.364,2.676-6.116,6.039-6.16h8.45
					c3.36,0.05,6.053,2.8,6.03,6.16V1671.54z M417.439,1648.87c2.821,0.044,5.082,2.349,5.07,5.17c0,2.84-2.29,5.181-5.07,5.181
					c-2.824-0.045-5.086-2.355-5.069-5.181c-0.095-2.76,2.066-5.073,4.826-5.168C417.277,1648.869,417.359,1648.869,417.439,1648.87
					z M421.54,1660.33h-0.11c2.17-1.412,3.485-3.82,3.5-6.41c0.022-4.17-3.32-7.58-7.49-7.641c-4.166,0.066-7.502,3.475-7.479,7.641
					c0.019,2.586,1.333,4.99,3.5,6.4h-0.36c-4.711,0.061-8.488,3.918-8.449,8.63v3.819c0,0.74,0.479,1.23,1.199,1.23h22.94
					c0.72,0,1.2-0.49,1.2-1.23v-3.819c-0.01-4.687-3.754-8.512-8.44-8.62H421.54z"/>
			</g>
		</g>
		<g>
			<g>
				<path id="fid4d" fill="#0B232F" d="M352.41,1615.46c0.071-3.271,2.769-5.87,6.04-5.82h8.45c3.267-0.045,5.959,2.553,6.03,5.82
					v2.45h-20.52V1615.46z M362.79,1596.33c2.75-0.028,5.01,2.161,5.07,4.91c0,2.689-2.29,4.9-5.07,4.9
					c-2.746,0.028-5.004-2.155-5.07-4.9c0-2.69,2.3-4.9,5.07-4.9V1596.33z M351.21,1620.13h22.93c0.72,0,1.2-0.46,1.2-1.16v-3.62
					c0-4.55-3.86-8.16-8.44-8.16h-0.12c2.136-1.284,3.459-3.578,3.5-6.07c0-3.85-3.38-7.12-7.49-7.12c-4.1,0-7.48,3.27-7.48,7.23
					c0.041,2.492,1.364,4.786,3.5,6.07h-0.36c-4.583-0.062-8.357,3.587-8.45,8.17v3.62c0,0.58,0.48,1.05,1.2,1.05L351.21,1620.13z"
					/>
			</g>
		</g>
		<g>
			<g>
				<path id="fid4e" fill="#0B232F" d="M427.58,1619.14h-20.52v-2.6c-0.018-3.361,2.68-6.106,6.039-6.15h8.45
					c3.36,0.049,6.053,2.799,6.03,6.16V1619.14z M417.439,1596.46c2.825,0.044,5.088,2.355,5.07,5.18c0,2.83-2.29,5.17-5.07,5.17
					c-2.82-0.044-5.081-2.349-5.069-5.17c-0.056-2.805,2.174-5.124,4.979-5.179C417.379,1596.46,417.41,1596.46,417.439,1596.46z
					 M421.54,1607.92h-0.11c2.168-1.41,3.482-3.814,3.5-6.4c-0.119-4.07-3.38-7.52-7.49-7.52c-4.166,0.065-7.502,3.474-7.479,7.64
					c0.019,2.586,1.333,4.99,3.5,6.4h-0.36c-4.711,0.061-8.488,3.918-8.449,8.63v3.82c0,0.74,0.479,1.23,1.199,1.23h22.94
					c0.72,0,1.2-0.49,1.2-1.23v-3.82c0-4.8-3.86-8.75-8.44-8.75H421.54z"/>
			</g>
		</g>
		<g>
			<g>
				<path id="fid4f" fill="#0B232F" d="M357.46,1624.89c-0.67,0-1.12,0.48-1.12,1.2v18.98c0,0.729,0.45,1.199,1.12,1.199
					c0.66,0,1.11-0.47,1.11-1.199v-8.291h4.58c0.66,0,1.11-0.479,1.11-1.199c0-0.721-0.45-1.2-1.11-1.2h-4.58v-8.29
					C358.57,1625.49,358.12,1624.89,357.46,1624.89z"/>
			</g>
		</g>
		<g>
			<g>
				<path id="fid4g" fill="#0B232F" d="M421.76,1646.28c0.66,0,1.11-0.48,1.11-1.2v-18.99c0-0.72-0.45-1.2-1.11-1.2
					c-0.67,0-1.119,0.48-1.119,1.2v8.3h-4.57c-0.67,0-1.12,0.47-1.12,1.2c0,0.71,0.45,1.2,1.12,1.2h4.57v8.28
					c0,0.729,0.449,1.199,1.119,1.199V1646.28z"/>
			</g>
		</g>
	</g>
</g>
</svg>
