<?xml version="1.0" encoding="utf-8"?>
<!-- Generator: Adobe Illustrator 16.0.0, SVG Export Plug-In . SVG Version: 6.00 Build 0)  -->
<!DOCTYPE svg PUBLIC "-//W3C//DTD SVG 1.1//EN" "http://www.w3.org/Graphics/SVG/1.1/DTD/svg11.dtd">
<svg version="1.1" id="Layer_1" xmlns="http://www.w3.org/2000/svg" xmlns:xlink="http://www.w3.org/1999/xlink" x="0px" y="0px"
	 width="40px" height="82px" viewBox="0 0 40 82" enable-background="new 0 0 40 82" xml:space="preserve">
<g transform="translate(-978 -697)">
	<g>
		<g>
			<path id="awg5b" fill="#FEFEFE" d="M982.92,741.82v7.67c0,4.06,2,5.56,4.64,5.56c2.8,0,4.88-1.62,4.88-5.62v-7.609h-1.69v7.729
				c0,2.86-1.24,4.13-3.14,4.13c-1.72,0-3-1.24-3-4.13v-7.729H982.92z"/>
		</g>
	</g>
	<g>
		<defs>
			<rect id="SVGID_1_" x="978" y="676.18" width="39.9" height="81.66"/>
		</defs>
		<clipPath id="SVGID_2_">
			<use xlink:href="#SVGID_1_"  overflow="visible"/>
		</clipPath>
		<g clip-path="url(#SVGID_2_)">
			<g>
				<path id="awg5i_1_" fill="#0265B5" d="M978,757.84h19.34v-19.5H978V757.84z"/>
			</g>
		</g>
	</g>
	<g>
		<defs>
			<rect id="SVGID_3_" x="978" y="697.18" width="39.9" height="81.66"/>
		</defs>
		<clipPath id="SVGID_4_">
			<use xlink:href="#SVGID_3_"  overflow="visible"/>
		</clipPath>
		<g clip-path="url(#SVGID_4_)">
			<g>
				<path id="awg5d" fill="#0265B5" d="M998.55,758.13h19.33v-19.5h-19.33V758.13z"/>
			</g>
		</g>
	</g>
	<g>
		<defs>
			<rect id="SVGID_5_" x="978" y="697.18" width="39.9" height="81.66"/>
		</defs>
		<clipPath id="SVGID_6_">
			<use xlink:href="#SVGID_5_"  overflow="visible"/>
		</clipPath>
		<g clip-path="url(#SVGID_6_)">
			<g>
				<path id="awg5e" fill="#FEFEFE" d="M1004.939,754.891v-5.561c0-2.17-0.02-3.73-0.119-5.37l0.06-0.021
					c0.64,1.4,1.5,2.9,2.4,4.341l4.1,6.61h1.681V741.87h-1.57v5.47c0,2.01,0.039,3.59,0.199,5.33l-0.069,0.02
					c-0.591-1.35-1.351-2.699-2.3-4.229l-4.11-6.59h-1.84v13.021H1004.939z"/>
			</g>
		</g>
	</g>
	<g>
		<defs>
			<rect id="SVGID_7_" x="978" y="697.18" width="39.9" height="81.66"/>
		</defs>
		<clipPath id="SVGID_8_">
			<use xlink:href="#SVGID_7_"  overflow="visible"/>
		</clipPath>
		<g clip-path="url(#SVGID_8_)">
			<g>
				<path id="awg5f" fill="#0265B5" d="M998.55,778.82h19.33v-19.5h-19.33V778.82z"/>
			</g>
		</g>
	</g>
	<g>
		<defs>
			<rect id="SVGID_9_" x="978" y="697.18" width="39.9" height="81.66"/>
		</defs>
		<clipPath id="SVGID_10_">
			<use xlink:href="#SVGID_9_"  overflow="visible"/>
		</clipPath>
		<g clip-path="url(#SVGID_10_)">
			<g>
				<path id="awg5g" fill="#FEFEFE" d="M1011.48,763.5c-0.771-0.7-1.971-1.08-3.621-1.08c-1.34,0-2.399,0.12-3.199,0.27v12.851h1.67
					v-5.22c0.38,0.1,0.84,0.119,1.34,0.119c1.63,0,3.061-0.5,3.939-1.43c0.706-0.752,1.074-1.76,1.021-2.789
					C1012.63,765.061,1012.189,764.12,1011.48,763.5"/>
			</g>
		</g>
	</g>
	<g>
		<defs>
			<rect id="SVGID_11_" x="978" y="697.18" width="39.9" height="81.66"/>
		</defs>
		<clipPath id="SVGID_12_">
			<use xlink:href="#SVGID_11_"  overflow="visible"/>
		</clipPath>
		<g clip-path="url(#SVGID_12_)">
			<g>
				<path id="awg5h" fill="#0265B5" d="M1007.71,769.17c-0.54,0-1.021-0.04-1.38-0.13v-5.06c0.518-0.096,1.043-0.143,1.57-0.141
					c1.84,0,3.05,0.83,3.05,2.57C1010.95,768.17,1009.74,769.17,1007.71,769.17"/>
			</g>
		</g>
	</g>
	<g>
		<defs>
			<rect id="SVGID_13_" x="978" y="697.18" width="39.9" height="81.66"/>
		</defs>
		<clipPath id="SVGID_14_">
			<use xlink:href="#SVGID_13_"  overflow="visible"/>
		</clipPath>
		<g clip-path="url(#SVGID_14_)">
			<g>
				<path id="awg5i" fill="#0265B5" d="M978,778.84h19.34v-19.5H978V778.84z"/>
			</g>
		</g>
	</g>
	<g>
		<defs>
			<rect id="SVGID_15_" x="978" y="697.18" width="39.9" height="81.66"/>
		</defs>
		<clipPath id="SVGID_16_">
			<use xlink:href="#SVGID_15_"  overflow="visible"/>
		</clipPath>
		<g clip-path="url(#SVGID_16_)">
			<g>
				<path id="awg5j" fill="#FEFEFE" d="M991.6,764.02c-1.14-1.069-2.84-1.609-5.24-1.609c-1.32,0-2.52,0.12-3.56,0.27v12.801
					c0.86,0.119,1.84,0.16,3.05,0.16c2.5,0,4.5-0.65,5.73-1.871c1.266-1.373,1.932-3.193,1.85-5.06c0-2.101-0.67-3.63-1.84-4.7"/>
			</g>
		</g>
	</g>
	<g>
		<defs>
			<rect id="SVGID_17_" x="978" y="697.18" width="39.9" height="81.66"/>
		</defs>
		<clipPath id="SVGID_18_">
			<use xlink:href="#SVGID_17_"  overflow="visible"/>
		</clipPath>
		<g clip-path="url(#SVGID_18_)">
			<g>
				<path id="awg5k" fill="#0265B5" d="M986.17,774.29c-0.65,0-1.26,0-1.68-0.09v-10.29c0.44-0.1,1.1-0.17,1.95-0.17
					c3.53,0,5.25,1.91,5.23,5.02C991.67,772.27,989.74,774.3,986.17,774.29"/>
			</g>
		</g>
	</g>
	<g>
		<defs>
			<rect id="SVGID_19_" x="978" y="697.18" width="39.9" height="81.66"/>
		</defs>
		<clipPath id="SVGID_20_">
			<use xlink:href="#SVGID_19_"  overflow="visible"/>
		</clipPath>
		<g clip-path="url(#SVGID_20_)">
			<g>
				<path id="awg5l" fill="#0265B5" d="M978.02,737.4h39.88v-40.22h-39.88V737.4z"/>
			</g>
		</g>
	</g>
	<g>
		<defs>
			<rect id="SVGID_21_" x="978" y="697.18" width="39.9" height="81.66"/>
		</defs>
		<clipPath id="SVGID_22_">
			<use xlink:href="#SVGID_21_"  overflow="visible"/>
		</clipPath>
		<g clip-path="url(#SVGID_22_)">
			<g>
				<path id="awg5m" fill="#FEFEFE" d="M1012.23,718.12c-0.551,0.8-1.23,1.55-1.75,2.36c0.06-0.64,0.14-1.44-0.11-2.05
					c-0.431-1.3-0.81-2.64-0.931-4.09l0.011-0.55c0.33,1.48,1.76,2.5,1.67,4.14c0.03,0.4-0.091,0.74-0.16,1.1l0.021,0.02l0.069-0.07
					c0.21-0.81,0.32-1.67,0.65-2.42c0.47-1.09,1.05-2.19,0.819-3.5C1013.176,714.707,1013.069,716.559,1012.23,718.12"/>
			</g>
		</g>
	</g>
	<g>
		<defs>
			<rect id="SVGID_23_" x="978" y="697.18" width="39.9" height="81.66"/>
		</defs>
		<clipPath id="SVGID_24_">
			<use xlink:href="#SVGID_23_"  overflow="visible"/>
		</clipPath>
		<g clip-path="url(#SVGID_24_)">
			<g>
				<path id="awg5n" fill="#FEFEFE" d="M1011.35,709.78c0.957,1.418,1.131,3.225,0.461,4.8c-0.25,0.63-0.431,1.3-0.531,1.99
					c-0.049-0.12-0.06-0.28-0.1-0.42c-0.38-1.44-1.729-2.47-2.3-3.83c-0.18-0.449-0.313-0.914-0.399-1.39
					c0.6,1.11,2.06,1.69,2.459,2.9c0.16,0.32,0.16,0.7,0.25,1.04c0.031,0,0.051-0.02,0.051-0.04c-0.18-1.26-0.131-2.58,0.05-3.82
					c0.042-0.648-0.115-1.293-0.45-1.85c0.24,0.14,0.35,0.4,0.5,0.62"/>
			</g>
		</g>
	</g>
	<g>
		<defs>
			<rect id="SVGID_25_" x="978" y="697.18" width="39.9" height="81.66"/>
		</defs>
		<clipPath id="SVGID_26_">
			<use xlink:href="#SVGID_25_"  overflow="visible"/>
		</clipPath>
		<g clip-path="url(#SVGID_26_)">
			<g>
				<path id="awg5o" fill="#FEFEFE" d="M1010.689,709.53c0.24,1.13-0.119,2.22,0.11,3.36h-0.01c-0.601-1.2-1.899-1.76-2.78-2.73
					c-0.477-0.569-0.779-1.263-0.869-2c0.51,1.23,1.879,1.5,2.67,2.54c0.26,0.24,0.35,0.58,0.52,0.85l0.02-0.03
					c-0.449-0.97-0.6-2.07-0.91-3.11c-0.159-0.45-0.479-0.9-0.899-1.18C1009.57,707.44,1010.47,708.53,1010.689,709.53"/>
			</g>
		</g>
	</g>
	<g>
		<defs>
			<rect id="SVGID_27_" x="978" y="697.18" width="39.9" height="81.66"/>
		</defs>
		<clipPath id="SVGID_28_">
			<use xlink:href="#SVGID_27_"  overflow="visible"/>
		</clipPath>
		<g clip-path="url(#SVGID_28_)">
			<g>
				<path id="awg5p" fill="#FEFEFE" d="M1007.92,706.95c0.79,0.7,1.141,1.61,1.37,2.56l0.12,0.3
					c-1.146-0.838-2.124-1.887-2.881-3.09l-0.879-0.9C1006.43,706.15,1007.26,706.35,1007.92,706.95"/>
			</g>
		</g>
	</g>
	<g>
		<defs>
			<rect id="SVGID_29_" x="978" y="697.18" width="39.9" height="81.66"/>
		</defs>
		<clipPath id="SVGID_30_">
			<use xlink:href="#SVGID_29_"  overflow="visible"/>
		</clipPath>
		<g clip-path="url(#SVGID_30_)">
			<g>
				<path id="awg5q" fill="#FEFEFE" d="M993.13,706.08c1.506-0.746,3.16-1.143,4.84-1.16c4,0,7.83,2.38,9.58,6.12
					c2.604,5.316,0.407,11.738-4.909,14.343c-0.097,0.047-0.193,0.093-0.291,0.137c-3.383,1.524-7.313,1.199-10.399-0.86
					c-4.935-3.409-6.172-10.173-2.764-15.108C990.197,708.089,991.551,706.897,993.13,706.08"/>
			</g>
		</g>
	</g>
	<g>
		<defs>
			<rect id="SVGID_31_" x="978" y="697.18" width="39.9" height="81.66"/>
		</defs>
		<clipPath id="SVGID_32_">
			<use xlink:href="#SVGID_31_"  overflow="visible"/>
		</clipPath>
		<g clip-path="url(#SVGID_32_)">
			<g>
				<path id="awg5r" fill="#FEFEFE" d="M990.07,705.97c-0.78,0.7-1.33,1.56-1.9,2.38c-0.52,0.65-1.19,1.08-1.78,1.63
					c0.32-0.66,0.33-1.46,0.78-2.07C987.82,706.78,989.01,706.39,990.07,705.97"/>
			</g>
		</g>
	</g>
	<g>
		<defs>
			<rect id="SVGID_33_" x="978" y="697.18" width="39.9" height="81.66"/>
		</defs>
		<clipPath id="SVGID_34_">
			<use xlink:href="#SVGID_33_"  overflow="visible"/>
		</clipPath>
		<g clip-path="url(#SVGID_34_)">
			<g>
				<path id="awg5s" fill="#FEFEFE" d="M985.8,708.38c0.37-0.48,0.85-0.81,1.4-0.95c-1.06,0.73-0.99,2.04-1.32,3.12
					c-0.11,0.4-0.3,0.78-0.39,1.19l0.03,0.02c0.18-0.47,0.48-0.9,0.86-1.29c0.76-0.7,1.86-1.13,2.23-2.16
					c-0.02,1.43-1.2,2.56-2.33,3.36c-0.47,0.42-0.93,0.89-1.18,1.42c-0.03-0.36,0.05-0.73,0.03-1.11c-0.13-1.25-0.22-2.67,0.66-3.6"
					/>
			</g>
		</g>
	</g>
	<g>
		<defs>
			<rect id="SVGID_35_" x="978" y="697.18" width="39.9" height="81.66"/>
		</defs>
		<clipPath id="SVGID_36_">
			<use xlink:href="#SVGID_35_"  overflow="visible"/>
		</clipPath>
		<g clip-path="url(#SVGID_36_)">
			<g>
				<path id="awg5t" fill="#FEFEFE" d="M983.66,712.64c0.004-1.191,0.437-2.342,1.22-3.24l0.06-0.03c-0.8,1.24-0.14,2.8-0.17,4.2
					l-0.11,1.45c0.01,0,0.01,0.05,0.05,0.04c0.05-0.16,0.06-0.34,0.1-0.5c0.18-1.17,1.18-1.99,2.06-2.8
					c0.19-0.2,0.35-0.42,0.45-0.66c-0.082,0.588-0.25,1.161-0.5,1.7c-0.67,1.34-1.93,2.43-2.16,3.97
					C984.55,715.3,983.56,714.2,983.66,712.64"/>
			</g>
		</g>
	</g>
	<g>
		<defs>
			<rect id="SVGID_37_" x="978" y="697.18" width="39.9" height="81.66"/>
		</defs>
		<clipPath id="SVGID_38_">
			<use xlink:href="#SVGID_37_"  overflow="visible"/>
		</clipPath>
		<g clip-path="url(#SVGID_38_)">
			<g>
				<path id="awg5u" fill="#FEFEFE" d="M983.05,714.45c0.09-0.4,0.16-0.8,0.33-1.17c-0.33,1.67,0.79,2.88,1.16,4.33
					c0.15,0.54,0.19,1.12,0.4,1.63c0.03,0.02,0.04,0,0.06-0.02c-0.55-1.55,0.24-2.98,1.03-4.18c0.19-0.33,0.3-0.7,0.4-1.07
					c0.08,0.7-0.1,1.5-0.2,2.22c-0.18,0.93-0.47,1.8-0.72,2.7c-0.139,0.581-0.152,1.184-0.04,1.77l-0.08-0.07
					c-0.58-1.07-1.72-1.91-2.06-3.1C983,716.513,982.904,715.471,983.05,714.45"/>
			</g>
		</g>
	</g>
	<g>
		<defs>
			<rect id="SVGID_39_" x="978" y="697.18" width="39.9" height="81.66"/>
		</defs>
		<clipPath id="SVGID_40_">
			<use xlink:href="#SVGID_39_"  overflow="visible"/>
		</clipPath>
		<g clip-path="url(#SVGID_40_)">
			<g>
				<path id="awg5v" fill="#FEFEFE" d="M983,717.71c0.13,1.78,2.02,2.72,2.9,4.18c0.2,0.3,0.38,0.64,0.66,0.89
					c-0.05-0.19-0.22-0.35-0.28-0.54c-0.312-0.653-0.434-1.381-0.35-2.1c0.09-0.9,0.46-1.75,0.32-2.7c0.77,1.68,0.54,3.77,0.97,5.58
					c0.11,0.4,0.34,0.75,0.49,1.14c-1.59-1.1-3.75-2.13-4.45-4.12C982.991,719.295,982.902,718.497,983,717.71"/>
			</g>
		</g>
	</g>
	<g>
		<defs>
			<rect id="SVGID_41_" x="978" y="697.18" width="39.9" height="81.66"/>
		</defs>
		<clipPath id="SVGID_42_">
			<use xlink:href="#SVGID_41_"  overflow="visible"/>
		</clipPath>
		<g clip-path="url(#SVGID_42_)">
			<g>
				<path id="awg5w" fill="#FEFEFE" d="M983.94,721.79c0.88,2.01,3.1,2.18,4.58,3.4c0.27,0.25,0.56,0.46,0.86,0.6l0.02-0.02
					c-0.34-0.3-0.73-0.66-0.97-1.06c-0.87-1.22-0.57-2.92-1.22-4.23c0.6,0.71,1.13,1.45,1.49,2.26c0.53,1.32,0.73,2.8,1.96,3.8
					c-1.33-0.43-2.89-0.3-4.06-1.14C985.252,724.616,984.29,723.309,983.94,721.79"/>
			</g>
		</g>
	</g>
	<g>
		<defs>
			<rect id="SVGID_43_" x="978" y="697.18" width="39.9" height="81.66"/>
		</defs>
		<clipPath id="SVGID_44_">
			<use xlink:href="#SVGID_43_"  overflow="visible"/>
		</clipPath>
		<g clip-path="url(#SVGID_44_)">
			<g>
				<path id="awg5x" fill="#FEFEFE" d="M986.21,725.54c1.41,1.63,3.73,1.09,5.61,1.51c0.27,0.04,0.51,0.14,0.8,0.1
					c-0.23-0.14-0.54-0.13-0.79-0.26c-1.47-0.52-1.7-2.13-2.5-3.22c1.03,0.69,1.9,1.61,2.84,2.5c0.68,0.6,1.5,0.88,2.36,1.06
					c-0.21,0.08-0.48,0.06-0.7,0.12c-1.55,0.38-3.27,1-4.92,0.44C987.756,727.411,986.791,726.606,986.21,725.54"/>
			</g>
		</g>
	</g>
	<g>
		<defs>
			<rect id="SVGID_45_" x="978" y="697.18" width="39.9" height="81.66"/>
		</defs>
		<clipPath id="SVGID_46_">
			<use xlink:href="#SVGID_45_"  overflow="visible"/>
		</clipPath>
		<g clip-path="url(#SVGID_46_)">
			<g>
				<path id="awg5y" fill="#FEFEFE" d="M1005.42,729.33c-1.6,0.6-3.26-0.03-4.5-0.98c-0.5-0.32-0.95-0.79-1.6-0.74
					c-0.24-0.01-0.471,0-0.67,0.06c1.199,0.57,2.33,1.35,3.359,2.35c-0.17,0.2-0.4,0.39-0.6,0.56c-0.938-1.1-2.065-2.021-3.33-2.72
					c-0.23,0.03-0.46,0.18-0.68,0.3c-1,0.63-1.99,1.45-2.73,2.46l-0.64-0.53c0.973-1.004,2.117-1.828,3.38-2.43
					c-1.21-0.39-2,0.64-2.92,1.16c-1.817,1.319-4.345,1.009-5.79-0.71c1.02,0.7,2.54,0.78,3.7,0.32c1.56-0.68,3.17-1.54,5.05-1.13
					c0.29,0,0.58,0.3,0.85,0.05c1.408-0.336,2.892-0.148,4.171,0.53l1.239,0.5c1.149,0.42,2.64,0.3,3.62-0.4
					C1006.83,728.62,1006.13,729.08,1005.42,729.33"/>
			</g>
		</g>
	</g>
	<g>
		<defs>
			<rect id="SVGID_47_" x="978" y="697.18" width="39.9" height="81.66"/>
		</defs>
		<clipPath id="SVGID_48_">
			<use xlink:href="#SVGID_47_"  overflow="visible"/>
		</clipPath>
		<g clip-path="url(#SVGID_48_)">
			<g>
				<path id="awg5z" fill="#FEFEFE" d="M1007.13,727.66c-1.8,0.68-3.6-0.15-5.31-0.43l-0.33-0.04v-0.01
					c0.835-0.14,1.619-0.499,2.27-1.04c0.961-0.93,1.82-1.88,2.881-2.62c-0.791,1.02-0.871,2.48-2.181,3.14
					c-0.319,0.21-0.729,0.25-1.069,0.41c0.479,0.01,0.92-0.16,1.39-0.2c1.75-0.28,3.76,0,4.989-1.5
					c-0.553,1.076-1.498,1.899-2.64,2.3"/>
			</g>
		</g>
	</g>
	<g>
		<defs>
			<rect id="SVGID_49_" x="978" y="697.18" width="39.9" height="81.66"/>
		</defs>
		<clipPath id="SVGID_50_">
			<use xlink:href="#SVGID_49_"  overflow="visible"/>
		</clipPath>
		<g clip-path="url(#SVGID_50_)">
			<g>
				<path id="awg5A" fill="#FEFEFE" d="M1008.12,725.83c-0.91,0.25-1.89,0.33-2.78,0.63c1.5-1.3,1.42-3.32,2.42-4.85
					c0.32-0.43,0.59-0.89,0.96-1.3c-0.6,1.24-0.34,2.84-1.05,4.04c-0.27,0.47-0.65,0.94-1.08,1.31c0.141,0,0.26-0.12,0.38-0.2
					c1.15-1.15,2.63-1.47,3.87-2.4c0.49-0.4,0.939-0.92,1.16-1.48C1011.77,723.48,1009.9,725.26,1008.12,725.83"/>
			</g>
		</g>
	</g>
	<g>
		<defs>
			<rect id="SVGID_51_" x="978" y="697.18" width="39.9" height="81.66"/>
		</defs>
		<clipPath id="SVGID_52_">
			<use xlink:href="#SVGID_51_"  overflow="visible"/>
		</clipPath>
		<g clip-path="url(#SVGID_52_)">
			<g>
				<path id="awg5B" fill="#FEFEFE" d="M1010.38,722.59c-0.7,0.46-1.42,0.9-2.1,1.43v-0.07c1.04-1.74,0.53-4.14,1.17-6.06
					l0.239-0.64c-0.129,1.2,0.381,2.2,0.351,3.4c-0.038,0.697-0.263,1.371-0.649,1.95h0.06c0.51-0.67,0.909-1.39,1.5-2.03
					c0.93-0.9,1.87-1.82,2-3.07C1013.25,719.58,1012.1,721.4,1010.38,722.59"/>
			</g>
		</g>
	</g>
	<g>
		<defs>
			<rect id="SVGID_53_" x="978" y="697.18" width="39.9" height="81.66"/>
		</defs>
		<clipPath id="SVGID_54_">
			<use xlink:href="#SVGID_53_"  overflow="visible"/>
		</clipPath>
		<g clip-path="url(#SVGID_54_)">
			<g>
				<path id="awg5C" fill="#0265B5" d="M1002.38,722.45l0.08-0.1c0.32-0.25,0.66-0.49,0.95-0.8h0.029
					c-0.06-0.02-0.14,0.04-0.209,0.01c-0.16-0.07-0.181-0.2-0.181-0.36l-0.649-0.68l-0.041-0.1c-0.049,0.13-0.149,0.2-0.239,0.3
					c0,0.1-0.03,0.22,0.08,0.28c0.2,0.07,0.479,0.2,0.53,0.46c-0.08,0.24-0.53,0.45-0.26,0.7c0.1,0.13-0.121,0.18-0.091,0.3"/>
			</g>
		</g>
	</g>
	<g>
		<defs>
			<rect id="SVGID_55_" x="978" y="697.18" width="39.9" height="81.66"/>
		</defs>
		<clipPath id="SVGID_56_">
			<use xlink:href="#SVGID_55_"  overflow="visible"/>
		</clipPath>
		<g clip-path="url(#SVGID_56_)">
			<g>
				<path id="awg5D" fill="#0265B5" d="M998.58,713.74c0.13,0.07,0.2-0.05,0.3-0.08c0.14,0.02,0.261,0.14,0.351,0.24
					c0.1,0.04,0.189-0.02,0.27-0.05c0.061-0.44,0.609-0.38,0.78-0.8l-0.101,0.04c-0.05-0.06-0.149-0.03-0.14-0.13
					c0.08-0.08,0.2-0.22,0.31-0.25c-0.47-0.3-0.97-0.56-1.51-0.7c-0.21-0.05-0.44-0.06-0.64-0.13c0.1,0.3,0.01,0.76,0.08,1.11
					l0.38,0.13c0.109-0.19,0.35-0.23,0.46-0.4c0.069-0.06,0.149,0,0.2,0.06c0.02,0.14-0.021,0.29-0.061,0.43
					C999.109,713.5,998.77,713.53,998.58,713.74"/>
			</g>
		</g>
	</g>
	<g>
		<defs>
			<rect id="SVGID_57_" x="978" y="697.18" width="39.9" height="81.66"/>
		</defs>
		<clipPath id="SVGID_58_">
			<use xlink:href="#SVGID_57_"  overflow="visible"/>
		</clipPath>
		<g clip-path="url(#SVGID_58_)">
			<g>
				<path id="awg5E" fill="#0265B5" d="M1004.24,717.35c-0.2,0.725-0.514,1.414-0.93,2.04c-0.17,0.23-0.341,0.54-0.57,0.66
					l0.479,0.43c0.03-0.03,0.011-0.07,0.021-0.11c0-0.06,0.029-0.14,0.109-0.13c0.23,0,0.24,0.25,0.37,0.38
					c-0.03,0.2,0.15,0.36,0.101,0.55c1.294-1.393,2.049-3.201,2.13-5.1l0.069-0.1c-0.479,0.05-0.99,0.021-1.479,0.03l-0.12-0.04
					c0.04,0.33-0.05,0.64-0.07,0.96l0.17,0.2c0.045,0.078,0.033,0.176-0.029,0.24C1004.414,717.416,1004.311,717.412,1004.24,717.35
					"/>
			</g>
		</g>
	</g>
	<g>
		<defs>
			<rect id="SVGID_59_" x="978" y="697.18" width="39.9" height="81.66"/>
		</defs>
		<clipPath id="SVGID_60_">
			<use xlink:href="#SVGID_59_"  overflow="visible"/>
		</clipPath>
		<g clip-path="url(#SVGID_60_)">
			<g>
				<path id="awg5F" fill="#0265B5" d="M1002.97,712.6c-0.18-0.34-0.47-0.65-0.71-0.95l-0.029,0.07c-0.49,0.5-1.021,1.04-1.49,1.57
					c0.029,0.06,0.08,0.12,0.14,0.15c0.021-0.13,0.101-0.24,0.101-0.37c0.129-0.18,0.319-0.07,0.489-0.03
					c0.25-0.06,0.5,0.06,0.75,0.05c0.2,0.1,0.21,0.34,0.39,0.44c0.041,0.07,0,0.15-0.06,0.2c0.06,0.4,0.25-0.1,0.45,0
					c0.08,0.03,0.189,0.02,0.25,0.1c0.029,0.17,0.24,0.14,0.25,0.3c-0.02,0.08-0.1,0.1-0.16,0.15c0.051,0.16-0.16,0.26-0.09,0.43
					c0.311,0.06,0.32-0.3,0.46-0.46c-0.069-0.28-0.13-0.56-0.3-0.81c-0.17-0.04-0.27-0.25-0.45-0.28
					C1002.62,713.02,1003.01,712.81,1002.97,712.6"/>
			</g>
		</g>
	</g>
	<g>
		<defs>
			<rect id="SVGID_61_" x="978" y="697.18" width="39.9" height="81.66"/>
		</defs>
		<clipPath id="SVGID_62_">
			<use xlink:href="#SVGID_61_"  overflow="visible"/>
		</clipPath>
		<g clip-path="url(#SVGID_62_)">
			<g>
				<path id="awg5G" fill="#0265B5" d="M998.23,723.8c0.4-0.14,0.85-0.12,1.27-0.19c-0.08-0.03-0.17-0.05-0.23-0.14
					c-0.25-0.01-0.369-0.28-0.449-0.479c-0.03-0.14,0.06-0.26,0.119-0.38c-0.1-0.22-0.43-0.06-0.629-0.14
					c-0.05-0.04-0.09-0.1-0.16-0.12l0.08,0.12c0,0.44,0.05,0.89,0,1.32"/>
			</g>
		</g>
	</g>
	<g>
		<defs>
			<rect id="SVGID_63_" x="978" y="697.18" width="39.9" height="81.66"/>
		</defs>
		<clipPath id="SVGID_64_">
			<use xlink:href="#SVGID_63_"  overflow="visible"/>
		</clipPath>
		<g clip-path="url(#SVGID_64_)">
			<g>
				<path id="awg5H" fill="#0265B5" d="M998.57,719.61c0.13,0.03,0.039,0.18,0.14,0.24c0.21-0.08,0.38,0.18,0.55,0.02
					c0-0.25,0.28-0.23,0.43-0.3c0.24-0.14,0.511-0.33,0.49-0.65l-0.039-0.05c-0.17,0-0.25,0.13-0.371,0.23
					c-0.149,0.09-0.229-0.16-0.35-0.1c0,0.02,0.03,0.04,0.051,0.05c0.029,0.03,0.049,0.11,0,0.15c-0.181,0.17-0.261-0.08-0.431-0.06
					v0.06c0,0.04-0.01,0.1-0.069,0.08c-0.101-0.18-0.32-0.12-0.431-0.271c-0.07-0.04-0.13,0-0.18,0.05c-0.04,0.08-0.2,0-0.16,0.13
					c-0.13,0.05-0.15,0.2-0.25,0.28c-0.16-0.03-0.23,0.16-0.39,0.16c0.02,0.03,0,0.08,0.05,0.09c0.1,0.04,0.19,0.05,0.3,0.03
					C998.08,719.5,998.34,719.71,998.57,719.61"/>
			</g>
		</g>
	</g>
	<g>
		<defs>
			<rect id="SVGID_65_" x="978" y="697.18" width="39.9" height="81.66"/>
		</defs>
		<clipPath id="SVGID_66_">
			<use xlink:href="#SVGID_65_"  overflow="visible"/>
		</clipPath>
		<g clip-path="url(#SVGID_66_)">
			<g>
				<path id="awg5I" fill="#0265B5" d="M1000.141,717.52c0,0.08,0.02,0.19,0.1,0.26c0.229-0.03,0.13,0.25,0.35,0.229
					c0.12-0.03,0-0.13,0.04-0.2c-0.04-0.16-0.21-0.17-0.33-0.27c-0.021-0.03,0.011-0.06,0.03-0.08
					C1000.23,717.41,1000.2,717.46,1000.141,717.52"/>
			</g>
		</g>
	</g>
	<g>
		<defs>
			<rect id="SVGID_67_" x="978" y="697.18" width="39.9" height="81.66"/>
		</defs>
		<clipPath id="SVGID_68_">
			<use xlink:href="#SVGID_67_"  overflow="visible"/>
		</clipPath>
		<g clip-path="url(#SVGID_68_)">
			<g>
				<path id="awg5J" fill="#0265B5" d="M999.9,710.12c-0.551-0.19-1.131-0.27-1.72-0.36l0.05,0.12v1.45l0.13-0.03
					c0.88,0.12,1.69,0.4,2.39,0.98l0.03,0.11c0.239-0.33,0.6-0.62,0.88-0.94l0.27-0.16l-0.129-0.05
					C1001.238,710.756,1000.596,710.377,999.9,710.12"/>
			</g>
		</g>
	</g>
	<g>
		<defs>
			<rect id="SVGID_69_" x="978" y="697.18" width="39.9" height="81.66"/>
		</defs>
		<clipPath id="SVGID_70_">
			<use xlink:href="#SVGID_69_"  overflow="visible"/>
		</clipPath>
		<g clip-path="url(#SVGID_70_)">
			<g>
				<path id="awg5K" fill="#0265B5" d="M990.02,716.1l0.11,1c0.05,0.37,0.21,0.74,0.2,1.11c0.06-0.08,0.02-0.24,0.17-0.25
					c-0.06-0.12,0.1-0.22,0.01-0.33c0.05-0.25,0.08-0.52,0.3-0.7c0.28-0.01,0.3-0.37,0.57-0.39c0.14,0,0.22,0.18,0.28,0.25
					c-0.17-0.21-0.16-0.55-0.12-0.79l-0.11,0.05c-0.5,0-1.01,0.03-1.48-0.03L990.02,716.1z"/>
			</g>
		</g>
	</g>
	<g>
		<defs>
			<rect id="SVGID_71_" x="978" y="697.18" width="39.9" height="81.66"/>
		</defs>
		<clipPath id="SVGID_72_">
			<use xlink:href="#SVGID_71_"  overflow="visible"/>
		</clipPath>
		<g clip-path="url(#SVGID_72_)">
			<g>
				<path id="awg5L" fill="#0265B5" d="M999.54,718.66c0.14-0.15,0.45-0.15,0.46-0.36c-0.21-0.04-0.32,0.08-0.46,0.2
					C999.52,718.54,999.46,718.63,999.54,718.66"/>
			</g>
		</g>
	</g>
	<g>
		<defs>
			<rect id="SVGID_73_" x="978" y="697.18" width="39.9" height="81.66"/>
		</defs>
		<clipPath id="SVGID_74_">
			<use xlink:href="#SVGID_73_"  overflow="visible"/>
		</clipPath>
		<g clip-path="url(#SVGID_74_)">
			<g>
				<path id="awg5M" fill="#0265B5" d="M1002.92,715.93l0.16,0.16c0.17,0.12,0.061,0.36,0.23,0.45c0.199,0.11,0.279,0.35,0.379,0.53
					c0.03-0.04,0.03-0.1,0.041-0.15c0.08-0.3,0.06-0.63,0.159-0.92C1003.57,716.02,1003.189,716.05,1002.92,715.93"/>
			</g>
		</g>
	</g>
	<g>
		<defs>
			<rect id="SVGID_75_" x="978" y="697.18" width="39.9" height="81.66"/>
		</defs>
		<clipPath id="SVGID_76_">
			<use xlink:href="#SVGID_75_"  overflow="visible"/>
		</clipPath>
		<g clip-path="url(#SVGID_76_)">
			<g>
				<path id="awg5N" fill="#0265B5" d="M1000.78,719.68c0.18,0.05,0.3,0.28,0.53,0.2c0.189-0.1,0.5,0.07,0.64-0.13
					c-0.03-0.2,0.149-0.35,0.229-0.52l0.061-0.01c0.109,0.1,0.1,0.28,0.15,0.4c0.149-0.16,0.27-0.34,0.399-0.5
					c0.351-0.52,0.649-1.07,0.78-1.66c-0.15,0-0.29,0.03-0.42,0.07c-0.16,0-0.34,0.08-0.48-0.021c-0.039-0.04-0.08,0.021-0.07,0.06
					c-0.049,0.08-0.1,0.18-0.229,0.15c-0.101-0.05-0.101-0.15-0.13-0.22c0.01,0.06-0.01,0.11-0.02,0.16
					c-0.11,0.12-0.15,0.23-0.23,0.36c-0.109,0.13-0.3,0.08-0.41,0.18c-0.02,0.26-0.3,0.2-0.46,0.29c-0.01,0.03,0.021,0.04,0.04,0.06
					c0.07,0.02,0.17,0.02,0.23-0.05c0.22,0.06,0.17-0.23,0.299-0.32c0.111-0.02,0.221-0.12,0.33-0.04
					c0.121,0.14,0.15,0.35,0.131,0.54c-0.131,0.13-0.061,0.34-0.15,0.49c0.02,0.18-0.199,0.26-0.17,0.43
					c-0.061,0.08-0.18,0.1-0.29,0.1c-0.427-0.164-0.874-0.269-1.33-0.31c-0.039,0.017-0.063,0.057-0.06,0.1
					c0.199,0.1,0.43,0.1,0.63,0.2"/>
			</g>
		</g>
	</g>
	<g>
		<defs>
			<rect id="SVGID_77_" x="978" y="697.18" width="39.9" height="81.66"/>
		</defs>
		<clipPath id="SVGID_78_">
			<use xlink:href="#SVGID_77_"  overflow="visible"/>
		</clipPath>
		<g clip-path="url(#SVGID_78_)">
			<g>
				<path id="awg5O" fill="#0265B5" d="M997.61,724.38l0.06-0.08l-0.17,0.04c-2.034-0.099-3.962-0.938-5.42-2.36l-0.02,0.06
					l-1.09,1.11c1.578,1.437,3.549,2.37,5.66,2.68c0.35,0.06,0.73,0.03,1.06,0.13l-0.08-0.13V724.38z"/>
			</g>
		</g>
	</g>
	<g>
		<defs>
			<rect id="SVGID_79_" x="978" y="697.18" width="39.9" height="81.66"/>
		</defs>
		<clipPath id="SVGID_80_">
			<use xlink:href="#SVGID_79_"  overflow="visible"/>
		</clipPath>
		<g clip-path="url(#SVGID_80_)">
			<g>
				<path id="awg5P" fill="#0265B5" d="M995.47,718.6c0.57,0.47,1.2,0.76,1.92,0.89c0.03-0.15-0.03-0.33,0.05-0.45
					c0.05-0.12,0.2-0.12,0.3-0.1c0.06,0,0.1-0.08,0.06-0.14c-0.15-0.02-0.08-0.2-0.13-0.3c0-0.05,0.1-0.04,0.07-0.1
					c-0.1-0.1,0.05-0.19-0.04-0.28l0.08-0.07c-0.33,0.14-0.67-0.06-0.95-0.19c-0.14-0.08-0.34-0.16-0.37-0.33
					C996.23,717.91,995.79,718.25,995.47,718.6"/>
			</g>
		</g>
	</g>
	<g>
		<defs>
			<rect id="SVGID_81_" x="978" y="697.18" width="39.9" height="81.66"/>
		</defs>
		<clipPath id="SVGID_82_">
			<use xlink:href="#SVGID_81_"  overflow="visible"/>
		</clipPath>
		<g clip-path="url(#SVGID_82_)">
			<g>
				<path id="awg5Q" fill="#0265B5" d="M994.92,716.93c-0.05-0.03-0.06-0.02-0.1,0.02h-0.08c0-0.31-0.34-0.13-0.47-0.29
					c0.15,0.28,0.23,0.6,0.38,0.87c0.1,0.25,0.3,0.44,0.4,0.68c0.1-0.19,0.3-0.35,0.45-0.52c0.012-0.074-0.006-0.149-0.05-0.21
					c-0.04-0.11,0-0.27-0.09-0.37c-0.13,0.05,0.05,0.19,0,0.27c-0.06,0.04-0.13-0.01-0.13-0.07c-0.13-0.02-0.22-0.13-0.26-0.24
					C995.07,717.01,994.94,716.97,994.92,716.93"/>
			</g>
		</g>
	</g>
	<g>
		<defs>
			<rect id="SVGID_83_" x="978" y="697.18" width="39.9" height="81.66"/>
		</defs>
		<clipPath id="SVGID_84_">
			<use xlink:href="#SVGID_83_"  overflow="visible"/>
		</clipPath>
		<g clip-path="url(#SVGID_84_)">
			<g>
				<path id="awg5R" fill="#0265B5" d="M995.97,717.08c-0.045,0.153-0.132,0.292-0.25,0.4h0.021c0.14-0.1,0.25-0.29,0.43-0.3
					L995.97,717.08z"/>
			</g>
		</g>
	</g>
	<g>
		<defs>
			<rect id="SVGID_85_" x="978" y="697.18" width="39.9" height="81.66"/>
		</defs>
		<clipPath id="SVGID_86_">
			<use xlink:href="#SVGID_85_"  overflow="visible"/>
		</clipPath>
		<g clip-path="url(#SVGID_86_)">
			<g>
				<path id="awg5S" fill="#0265B5" d="M997.48,722.29c-1.249-0.073-2.446-0.527-3.43-1.3c0.03,0.13,0.2,0.21,0.16,0.37
					c-0.1,0.15-0.28,0.15-0.43,0.15c-0.3-0.05-0.52,0.18-0.8,0.2c-0.27,0.1-0.36-0.23-0.6-0.2c1.406,1.311,3.222,2.095,5.14,2.22
					l0.15,0.1l-0.06-0.18v-1.42L997.48,722.29z"/>
			</g>
		</g>
	</g>
	<g>
		<defs>
			<rect id="SVGID_87_" x="978" y="697.18" width="39.9" height="81.66"/>
		</defs>
		<clipPath id="SVGID_88_">
			<use xlink:href="#SVGID_87_"  overflow="visible"/>
		</clipPath>
		<g clip-path="url(#SVGID_88_)">
			<g>
				<path id="awg5T" fill="#0265B5" d="M991.74,721.6c-0.18-0.13-0.34-0.34-0.5-0.52c-0.186-0.051-0.344-0.173-0.44-0.34
					c-0.05-0.06,0-0.17-0.06-0.21l-0.07,0.08c-0.18,0.09-0.25-0.1-0.38-0.18c-0.16-0.1-0.08-0.41-0.3-0.35
					c-0.1,0-0.12-0.1-0.17-0.16c-0.2,0.02-0.26-0.2-0.37-0.32c-0.03,0.05,0,0.11-0.07,0.15c-0.21,0.04-0.28-0.22-0.43-0.33
					c-0.04,0.02-0.06,0.06-0.12,0.05c-0.13-0.114-0.21-0.276-0.22-0.45c-0.17-0.2-0.09-0.51-0.06-0.75c0.03-0.07,0.13-0.1,0.1-0.19
					c0.06-0.1,0.17-0.12,0.29-0.12c0.04,0.02,0.08,0.06,0.1,0.1c0.07-0.05,0.23,0,0.17-0.15c0.1-0.073,0.217-0.118,0.34-0.13
					c0.09,0.1,0.13,0.23,0.24,0.33l-0.07-0.12c-0.138-0.534-0.226-1.08-0.26-1.63c0-0.03-0.07-0.04-0.02-0.07v0.01
					c0.01-0.12,0-0.22,0.02-0.3l-0.14,0.05h-1.48c0.09,1.7,0.54,3.27,1.3,4.7c0.38,0.7,0.93,1.34,1.41,2l1.06-1.1L991.74,721.6z"/>
			</g>
		</g>
	</g>
	<g>
		<defs>
			<rect id="SVGID_89_" x="978" y="697.18" width="39.9" height="81.66"/>
		</defs>
		<clipPath id="SVGID_90_">
			<use xlink:href="#SVGID_89_"  overflow="visible"/>
		</clipPath>
		<g clip-path="url(#SVGID_90_)">
			<g>
				<path id="awg5U" fill="#0265B5" d="M993.44,709.08c-0.33,0.23-0.63,0.53-0.97,0.73c0.4,0.26,0.72,0.67,1.07,1l0.04,0.1
					c0.9-0.86,2-1.37,3.19-1.62c0.28-0.03,0.56-0.12,0.84-0.07c-0.02-0.5-0.07-1.04-0.01-1.54
					C996.06,707.78,994.68,708.24,993.44,709.08"/>
			</g>
		</g>
	</g>
	<g>
		<defs>
			<rect id="SVGID_91_" x="978" y="697.18" width="39.9" height="81.66"/>
		</defs>
		<clipPath id="SVGID_92_">
			<use xlink:href="#SVGID_91_"  overflow="visible"/>
		</clipPath>
		<g clip-path="url(#SVGID_92_)">
			<g>
				<path id="awg5V" fill="#0265B5" d="M992.18,714.68c-0.06,0.26-0.03,0.56-0.13,0.8c0.19-0.09,0.46-0.06,0.66-0.03
					c-0.12-0.06-0.01-0.22-0.09-0.3c-0.01-0.14-0.03-0.3,0.1-0.4c-0.02-0.21,0.21-0.32,0.23-0.52c0.06-0.23,0.32-0.08,0.44-0.2
					c0.08-0.04,0.01-0.11,0.01-0.17c0.1-0.15,0.27-0.14,0.4-0.22c0.09-0.14,0.2-0.29,0.36-0.37c0.32,0,0.32-0.44,0.62-0.46
					c-0.41-0.31-0.8-0.73-1.17-1.1C992.88,712.557,992.386,713.581,992.18,714.68"/>
			</g>
		</g>
	</g>
	<g>
		<defs>
			<rect id="SVGID_93_" x="978" y="697.18" width="39.9" height="81.66"/>
		</defs>
		<clipPath id="SVGID_94_">
			<use xlink:href="#SVGID_93_"  overflow="visible"/>
		</clipPath>
		<g clip-path="url(#SVGID_94_)">
			<g>
				<path id="awg5W" fill="#0265B5" d="M992.39,716.85c0.01-0.1-0.13-0.12-0.12-0.22c0.1-0.2,0-0.52,0.27-0.6
					c-0.19,0.03-0.35,0.07-0.51-0.05l0.08,0.13c0,0.35,0.15,0.69,0.07,1.05c0.06-0.1,0.08-0.24,0.2-0.3"/>
			</g>
		</g>
	</g>
	<g>
		<defs>
			<rect id="SVGID_95_" x="978" y="697.18" width="39.9" height="81.66"/>
		</defs>
		<clipPath id="SVGID_96_">
			<use xlink:href="#SVGID_95_"  overflow="visible"/>
		</clipPath>
		<g clip-path="url(#SVGID_96_)">
			<g>
				<path id="awg5X" fill="#070201" d="M993.85,720.72l-0.02-0.04l0.02,0.08V720.72z"/>
			</g>
		</g>
	</g>
	<g>
		<defs>
			<rect id="SVGID_97_" x="978" y="697.18" width="39.9" height="81.66"/>
		</defs>
		<clipPath id="SVGID_98_">
			<use xlink:href="#SVGID_97_"  overflow="visible"/>
		</clipPath>
		<g clip-path="url(#SVGID_98_)">
			<g>
				<path id="awg5Y" fill="#0265B5" d="M992.08,710.26L991.5,711c-0.909,1.311-1.435,2.848-1.52,4.44l1.46-0.02l0.14,0.05
					c-0.06-0.04-0.05-0.1-0.07-0.15c0.084-1.5,0.685-2.923,1.7-4.03c-0.4-0.35-0.79-0.73-1.13-1.13V710.26z"/>
			</g>
		</g>
	</g>
	<g>
		<defs>
			<rect id="SVGID_99_" x="978" y="697.18" width="39.9" height="81.66"/>
		</defs>
		<clipPath id="SVGID_100_">
			<use xlink:href="#SVGID_99_"  overflow="visible"/>
		</clipPath>
		<g clip-path="url(#SVGID_100_)">
			<g>
				<path id="awg5Z" fill="#0265B5" d="M996.56,720.28c0.12-0.12,0.26-0.2,0.4-0.26c-0.47,0.1-0.89-0.24-1.29-0.43
					c-0.23-0.17-0.53-0.31-0.66-0.57c-0.318,0.4-0.672,0.768-1.06,1.1c0.16,0,0.25,0.19,0.4,0.27c0.8,0.67,1.78,0.99,2.7,1.22
					l-0.25-0.12c-0.19-0.22-0.46-0.48-0.47-0.78C996.53,720.64,996.5,720.43,996.56,720.28"/>
			</g>
		</g>
	</g>
	<g>
		<defs>
			<rect id="SVGID_101_" x="978" y="697.18" width="39.9" height="81.66"/>
		</defs>
		<clipPath id="SVGID_102_">
			<use xlink:href="#SVGID_101_"  overflow="visible"/>
		</clipPath>
		<g clip-path="url(#SVGID_102_)">
			<g>
				<path id="awg5aa" fill="#0265B5" d="M992.94,716.02l-0.05,0.29c-0.06,0.16-0.27,0.04-0.36,0.15c-0.07,0.1,0,0.22,0.06,0.3
					c-0.15,0.35,0.34,0.46,0.33,0.771c0.15,0.2-0.02,0.47,0.2,0.64c0.04,0.35-0.06,0.82,0.25,1.1l0.05,0.33
					c0.06,0.23-0.27,0.17-0.23,0.37c0.07-0.03,0.08,0.06,0.09,0.08v-0.01c0.4-0.48,0.88-0.98,1.36-1.4l-0.2-0.21
					c-0.387-0.556-0.665-1.181-0.82-1.84l-0.15-0.08c0,0.17-0.09,0.3-0.08,0.48l-0.05,0.06c-0.11,0-0.18-0.1-0.28-0.15
					c-0.02-0.06-0.08-0.16,0.02-0.2c0.042-0.003,0.084,0.008,0.12,0.03c0.05-0.06,0.03-0.14,0.06-0.22c0.01-0.13-0.1-0.25-0.02-0.36
					c0.1,0,0.18,0.11,0.22,0.18c0.1,0.03,0.18-0.05,0.26-0.09c0-0.09,0.13-0.21,0-0.27c0.07-0.2,0.01-0.42-0.02-0.63
					c-0.06-0.17-0.25-0.14-0.4-0.13c-0.43,0.14,0.07,0.47-0.03,0.74C993.21,716.1,993.05,715.95,992.94,716.02"/>
			</g>
		</g>
	</g>
	<g>
		<defs>
			<rect id="SVGID_103_" x="978" y="697.18" width="39.9" height="81.66"/>
		</defs>
		<clipPath id="SVGID_104_">
			<use xlink:href="#SVGID_103_"  overflow="visible"/>
		</clipPath>
		<g clip-path="url(#SVGID_104_)">
			<g>
				<path id="awg5ab" fill="#0265B5" d="M1006.561,716l-0.101-0.07l0.06,0.15c-0.076,1.719-0.665,3.377-1.689,4.76
					c-0.189,0.23-0.37,0.52-0.62,0.69c0.399,0.32,0.851,0.8,1.19,1.17l0.039-0.08c1.622-1.803,2.56-4.117,2.65-6.54l0.061-0.13
					l-0.08,0.04L1006.561,716z"/>
			</g>
		</g>
	</g>
	<g>
		<defs>
			<rect id="SVGID_105_" x="978" y="697.18" width="39.9" height="81.66"/>
		</defs>
		<clipPath id="SVGID_106_">
			<use xlink:href="#SVGID_105_"  overflow="visible"/>
		</clipPath>
		<g clip-path="url(#SVGID_106_)">
			<g>
				<path id="awg5ac" fill="#0265B5" d="M992.15,709.44l0.03-0.07c1.473-1.398,3.401-2.215,5.43-2.3l-0.05-0.13l-0.02-1.29
					l0.05-0.15c-2.14,0.09-4.03,0.82-5.72,2.04c-0.32,0.23-0.6,0.57-0.94,0.76h0.05C991.4,708.61,991.8,709.06,992.15,709.44"/>
			</g>
		</g>
	</g>
	<g>
		<defs>
			<rect id="SVGID_107_" x="978" y="697.18" width="39.9" height="81.66"/>
		</defs>
		<clipPath id="SVGID_108_">
			<use xlink:href="#SVGID_107_"  overflow="visible"/>
		</clipPath>
		<g clip-path="url(#SVGID_108_)">
			<g>
				<path id="awg5ad" fill="#0265B5" d="M997.54,709.8c-1.35,0.1-2.53,0.67-3.55,1.52c0.4,0.28,0.76,0.74,1.13,1.06l0.08-0.11
					c0.481-0.382,1.031-0.671,1.62-0.85c0.27-0.03,0.53-0.15,0.8-0.09c-0.057-0.525-0.057-1.055,0-1.58L997.54,709.8z"/>
			</g>
		</g>
	</g>
	<g>
		<defs>
			<rect id="SVGID_109_" x="978" y="697.18" width="39.9" height="81.66"/>
		</defs>
		<clipPath id="SVGID_110_">
			<use xlink:href="#SVGID_109_"  overflow="visible"/>
		</clipPath>
		<g clip-path="url(#SVGID_110_)">
			<g>
				<path id="awg5ae" fill="#0265B5" d="M997.6,711.93c-0.85,0.11-1.63,0.4-2.26,1.08h0.11c0.13,0.13,0.34,0.1,0.44,0.271
					c0.04,0.1-0.1,0.09-0.09,0.17c0.03,0.02,0.07,0.02,0.09,0.06c0.1,0.04,0.08-0.06,0.11-0.1c0.14-0.13,0.16,0.13,0.28,0.13
					c0.1-0.06,0.22-0.07,0.28,0.04c0.1-0.08,0.27-0.01,0.3-0.15c0.17-0.17,0.07-0.45,0.32-0.56c0.08,0.05,0,0.13,0.02,0.2
					c0.17,0.07,0.35-0.14,0.49,0.03c-0.12-0.35-0.1-0.78-0.08-1.17"/>
			</g>
		</g>
	</g>
	<g>
		<defs>
			<rect id="SVGID_111_" x="978" y="697.18" width="39.9" height="81.66"/>
		</defs>
		<clipPath id="SVGID_112_">
			<use xlink:href="#SVGID_111_"  overflow="visible"/>
		</clipPath>
		<g clip-path="url(#SVGID_112_)">
			<g>
				<path id="awg5af" fill="#0265B5" d="M997.66,714.33c-0.16,0.26-0.42,0.32-0.67,0.4c-0.07,0.08-0.05,0.27-0.22,0.25
					c-0.05,0.12-0.23,0.2-0.16,0.37c-0.09,0.18-0.05,0.41-0.1,0.61c-0.3,0.2-0.22-0.26-0.38-0.36l-0.05,0.1
					c-0.06,0-0.1-0.03-0.15-0.07c-0.05-0.02-0.13-0.04-0.17,0.01c-0.07,0.12-0.17,0.21-0.15,0.37c-0.03,0.1-0.19,0.07-0.17,0.17
					c0.18,0,0.37-0.04,0.54-0.07c0.12,0.03,0.22-0.06,0.34-0.07c0.04,0.02,0.1,0.07,0.08,0.13h0.04c0.09-0.06,0.12-0.16,0.09-0.26
					c0-0.1,0.13-0.1,0.2-0.14c0.07,0.03,0.03,0.1,0.04,0.15c0.24,0.1-0.06,0.27-0.1,0.4c-0.05,0.1,0,0.33-0.2,0.3
					c-0.03-0.01-0.05-0.05-0.04-0.1h-0.03c0,0.1,0.06,0.21,0.14,0.25c0.15-0.12,0.15-0.33,0.37-0.36c0.11-0.12-0.05-0.3,0.12-0.4
					c0.27,0,0.57-0.12,0.79,0.1c-0.021,0.1-0.05,0.15,0.02,0.23c-0.05,0.12-0.08,0.25-0.19,0.36c0.03,0.06,0,0.15-0.05,0.2
					c-0.07,0.33-0.45,0.17-0.66,0.28c0.33,0.26,0.73,0.36,1.17,0.32c0.229,0,0.13-0.3,0.24-0.42c0.08-0.37,0.419-0.12,0.63-0.22
					c0.08-0.16,0.16-0.32,0.18-0.5c-0.133-0.086-0.193-0.248-0.15-0.4c-0.09-0.12-0.08-0.35-0.27-0.37
					c-0.03-0.04-0.01-0.1,0.02-0.13c0-0.11,0.1-0.15,0.141-0.24c-0.12-0.08-0.09-0.26-0.08-0.36c-0.2,0.06-0.23-0.22-0.38-0.28
					c-0.04-0.12-0.17-0.14-0.28-0.16c-0.25,0.12-0.3-0.2-0.49-0.27c-0.02-0.06-0.06-0.15,0-0.2c0.1-0.07,0.23,0,0.34-0.01l-0.1-0.05
					c-0.08-0.1-0.26-0.03-0.37,0C997.64,713.99,997.6,714.19,997.66,714.33"/>
			</g>
		</g>
	</g>
	<g>
		<defs>
			<rect id="SVGID_113_" x="978" y="697.18" width="39.9" height="81.66"/>
		</defs>
		<clipPath id="SVGID_114_">
			<use xlink:href="#SVGID_113_"  overflow="visible"/>
		</clipPath>
		<g clip-path="url(#SVGID_114_)">
			<g>
				<path id="awg5ag" fill="#0265B5" d="M989.47,715.46l-0.04-0.2c0.1-1.72,0.65-3.24,1.6-4.6c0.24-0.27,0.41-0.61,0.71-0.82
					c-0.35-0.32-0.7-0.7-1.07-1.06l-0.03-0.15c-1.497,1.619-2.451,3.664-2.73,5.85c-0.06,0.33-0.02,0.66-0.08,0.98
					C988.36,715.42,988.93,715.42,989.47,715.46"/>
			</g>
		</g>
	</g>
	<g>
		<defs>
			<rect id="SVGID_115_" x="978" y="697.18" width="39.9" height="81.66"/>
		</defs>
		<clipPath id="SVGID_116_">
			<use xlink:href="#SVGID_115_"  overflow="visible"/>
		</clipPath>
		<g clip-path="url(#SVGID_116_)">
			<g>
				<path id="awg5ah" fill="#0265B5" d="M1003.859,721.87c-0.159,0.3-0.479,0.48-0.729,0.7c-0.35,0.36-0.909,0.43-1.09,0.93
					c-0.181,0.17-0.25,0.44-0.5,0.54c-0.101,0.26-0.38,0.24-0.53,0.43c-0.449,0.4-0.73-0.26-1.14-0.34l-0.81,0.15
					c-0.281,0-0.561,0.1-0.831,0c0.04,0.563,0.04,1.127,0,1.69l0.1-0.07c2.492-0.104,4.863-1.11,6.67-2.83l-1.12-1.07
					L1003.859,721.87z"/>
			</g>
		</g>
	</g>
	<g>
		<defs>
			<rect id="SVGID_117_" x="978" y="697.18" width="39.9" height="81.66"/>
		</defs>
		<clipPath id="SVGID_118_">
			<use xlink:href="#SVGID_117_"  overflow="visible"/>
		</clipPath>
		<g clip-path="url(#SVGID_118_)">
			<g>
				<path id="awg5ai" fill="#0265B5" d="M998.2,706.92c-0.002-0.047,0.012-0.093,0.04-0.13c0.08-0.04,0.14,0.02,0.17,0.07
					c0,0.08,0.04,0.2-0.02,0.25c0.06,0.01,0.1-0.04,0.15-0.04c1.22,0.1,2.34,0.45,3.36,1.03v-0.02c0.199-0.1,0.47-0.24,0.68-0.06
					c0.26-0.1,0.3,0.22,0.51,0.26c0.25,0.15,0.53,0.43,0.561,0.72c0.05,0.1,0.199,0.17,0.22,0.27c0.17-0.36,0.51-0.62,0.8-0.94
					l0.18-0.07c-1.535-1.485-3.511-2.432-5.63-2.7c-0.34-0.05-0.72-0.02-1.04-0.12C998.24,705.86,998.23,706.44,998.2,706.92"/>
			</g>
		</g>
	</g>
	<g>
		<defs>
			<rect id="SVGID_119_" x="978" y="697.18" width="39.9" height="81.66"/>
		</defs>
		<clipPath id="SVGID_120_">
			<use xlink:href="#SVGID_119_"  overflow="visible"/>
		</clipPath>
		<g clip-path="url(#SVGID_120_)">
			<g>
				<path id="awg5aj" fill="#0265B5" d="M998.2,709.23c0.2-0.07,0.399,0.01,0.6,0.02c1.05,0.17,2.03,0.5,2.86,1.16
					c-0.1-0.11-0.221-0.23-0.24-0.4c0.02-0.01,0.04-0.02,0.07-0.01c0-0.17-0.17-0.25-0.2-0.4c0.03-0.04,0.069-0.07,0.12-0.05
					c0.18,0.17,0.33,0.36,0.47,0.55c0.12-0.05,0.21,0.03,0.3,0.09c0.15,0.1,0.061,0.29,0.17,0.4c0.021,0.31,0.4,0.49,0.391,0.8
					c0,0.08,0.1,0.02,0.119,0.06l0.32,0.4c-0.06,0.07,0,0.16,0.061,0.21c0.14,0.07,0.22-0.11,0.359-0.09
					c0.2,0.12-0.029,0.26-0.01,0.4c0.08,0,0.18-0.07,0.25,0c0.02,0.13-0.1,0.2-0.15,0.28c0,0.11,0.101,0.09,0.181,0.11
					c0.1,0,0.159,0.12,0.13,0.2c0.27,0.28-0.08,0.57,0.05,0.87c0.08,0.2-0.021,0.38-0.14,0.52c0,0.24-0.211,0.38-0.301,0.58
					l-0.26,0.06c-0.15,0.14,0.12,0.32-0.029,0.41l0.6,0.01l-0.061-0.06c-0.09-0.256-0.061-0.539,0.08-0.77
					c0.09-0.19,0.101-0.42,0.28-0.58c0.03-0.01,0.101-0.08,0.14,0c0,0.18,0,0.39-0.1,0.55c0.18,0.24,0.15,0.57,0.17,0.87
					c0.53-0.03,1.04-0.04,1.561-0.04l-0.051-0.1c-0.08-0.99-0.279-1.93-0.699-2.771c-0.101,0-0.18,0.1-0.311,0.06
					c-0.039-0.017-0.063-0.057-0.06-0.1c-0.22-0.21-0.351-0.48-0.591-0.66c-0.27,0.03-0.399-0.3-0.64-0.32
					c-0.21-0.1-0.06-0.45-0.38-0.35c-0.15-0.06-0.3-0.18-0.33-0.36c0-0.28-0.061-0.58-0.3-0.76c-0.2-0.07-0.28,0.19-0.47,0.14
					c-0.1-0.05-0.061-0.19-0.1-0.28c-0.031-0.08-0.121-0.14-0.101-0.25c0.25-0.33-0.3-0.32-0.181-0.65
					c-0.039-0.24-0.27-0.33-0.399-0.52c-0.813-0.379-1.681-0.629-2.569-0.74c-0.23-0.03-0.44,0.02-0.641-0.09l0.05,0.1
					C998.21,708.23,998.25,708.76,998.2,709.23"/>
			</g>
		</g>
	</g>
	<g>
		<defs>
			<rect id="SVGID_121_" x="978" y="697.18" width="39.9" height="81.66"/>
		</defs>
		<clipPath id="SVGID_122_">
			<use xlink:href="#SVGID_121_"  overflow="visible"/>
		</clipPath>
		<g clip-path="url(#SVGID_122_)">
			<g>
				<path id="awg5ak" fill="#0265B5" d="M1004.01,709.77c0.11,0.03,0.15,0.16,0.221,0.25c0.39,0.2,0.489,0.62,0.83,0.86
					c0.189,0.4,0.629,0.71,0.649,1.17c0.46,1.03,0.771,2.12,0.8,3.33l-0.039,0.06c0.049,0,0.1-0.02,0.129-0.04l1.53-0.03
					c-0.1-0.15-0.06-0.37-0.08-0.55c-0.224-2.328-1.208-4.517-2.8-6.23c-0.3,0.4-0.689,0.77-1.061,1.15L1004.01,709.77z"/>
			</g>
		</g>
	</g>
	<g>
		<defs>
			<rect id="SVGID_123_" x="978" y="697.18" width="39.9" height="81.66"/>
		</defs>
		<clipPath id="SVGID_124_">
			<use xlink:href="#SVGID_123_"  overflow="visible"/>
		</clipPath>
		<g clip-path="url(#SVGID_124_)">
			<g>
				<path id="awg5al" fill="#FEFEFE" d="M998.41,706.67c0.05-0.09,0.17-0.06,0.23-0.03l0.77-0.33c0.3,0.03,0.65,0.06,0.83,0.32v0.04
					c-0.2,0.16-0.44,0.29-0.7,0.18c-0.34,0.07-0.83,0.27-1.11-0.09C998.41,706.73,998.38,706.69,998.41,706.67"/>
			</g>
		</g>
	</g>
	<g>
		<defs>
			<rect id="SVGID_125_" x="978" y="697.18" width="39.9" height="81.66"/>
		</defs>
		<clipPath id="SVGID_126_">
			<use xlink:href="#SVGID_125_"  overflow="visible"/>
		</clipPath>
		<g clip-path="url(#SVGID_126_)">
			<g>
				<path id="awg5am" fill="#FEFEFE" d="M1002.98,707.64c0.1,0.04,0.199,0.08,0.239,0.2c-0.03,0.12,0.11,0.22,0.021,0.32
					c-0.28,0.07-0.301-0.25-0.53-0.33c-0.032-0.047-0.047-0.104-0.04-0.16c0.1-0.12,0.2,0.08,0.3-0.03"/>
			</g>
		</g>
	</g>
	<g>
		<g>
			<path id="awg5b_1_" fill="#FEFEFE" d="M982.92,741.82v7.67c0,4.06,2,5.56,4.64,5.56c2.799,0,4.879-1.62,4.879-5.62v-7.609h-1.689
				v7.729c0,2.86-1.24,4.13-3.14,4.13c-1.72,0-3-1.24-3-4.13v-7.729H982.92z"/>
		</g>
	</g>
</g>
</svg>
