<?xml version="1.0" encoding="utf-8"?>
<!-- Generator: Adobe Illustrator 16.0.0, SVG Export Plug-In . SVG Version: 6.00 Build 0)  -->
<!DOCTYPE svg PUBLIC "-//W3C//DTD SVG 1.1//EN" "http://www.w3.org/Graphics/SVG/1.1/DTD/svg11.dtd">
<svg version="1.1" id="Layer_1" xmlns="http://www.w3.org/2000/svg" xmlns:xlink="http://www.w3.org/1999/xlink" x="0px" y="0px"
	 width="80px" height="80px" viewBox="0 0 80 80" enable-background="new 0 0 80 80" xml:space="preserve">
<g>
	<g transform="translate(-1008 -1592)">
		<g>
			<g>
				<path id="fs8ea" fill="#0B232F" d="M1085.46,1660.8c0,4.82-4,8.8-8.84,8.8h-57.36c-4.862-0.01-8.807-3.938-8.84-8.8v-0.84h75.04
					V1660.8z M1013.93,1649.96h68.021v7.59h-68.021V1649.96z M1086.67,1657.55h-2.3v-46.6c-0.017-3.397-2.772-6.145-6.171-6.15
					h-0.85c-0.729,0-1.21,0.48-1.21,1.2c0,0.73,0.48,1.2,1.2,1.2h0.859c2.065,0.005,3.74,1.675,3.75,3.74v36.61h-68.02v-36.6
					c0-2.061,1.7-3.74,3.75-3.74h23.12c0.72,0,1.2-0.48,1.2-1.2c0-0.729-0.48-1.21-1.2-1.21h-23.12
					c-3.394,0.006-6.148,2.747-6.17,6.14v46.6h-2.3c-0.73,0-1.21,0.49-1.21,1.21v2.05c0,6.14,5.08,11.2,11.26,11.2h57.48
					c6.18,0,11.26-5.061,11.26-11.2v-2.05C1087.88,1658.15,1087.4,1657.55,1086.67,1657.55z"/>
			</g>
		</g>
		<g>
			<g>
				<path id="fs8eb" fill="#0B232F" d="M1053.88,1652.8h-13.48c-0.72,0-1.2,0.48-1.2,1.2s0.48,1.2,1.2,1.2h13.6
					c0.72,0,1.2-0.48,1.2-1.2C1055.08,1653.4,1054.6,1652.8,1053.88,1652.8z"/>
			</g>
		</g>
		<g>
			<g>
				<path id="fs8ec" fill="#0B232F" d="M1059.26,1594.4c6.641,0,12.09,4.45,12.09,9.86c0,5.41-5.449,9.86-12.1,9.86
					c-0.939,0-1.891-0.12-2.95-0.36c-0.396-0.128-0.831,0.019-1.069,0.36c-1.337,1.256-2.906,2.238-4.62,2.89
					c0.7-1.2,1.18-2.53,1.42-3.729c0.12-0.6-0.24-1.2-0.71-1.561c-2.6-1.93-4.15-4.57-4.15-7.34
					C1047.29,1598.85,1052.62,1594.4,1059.26,1594.4L1059.26,1594.4z M1049.66,1613.27c-0.334,1.609-1.214,3.054-2.49,4.09
					c-0.47,0.36-0.6,0.96-0.47,1.56c0.23,0.72,0.94,1.08,1.899,1.08c1.181,0,5.33-1.68,7.811-3.85
					c9.13,1.57,17.189-4.44,17.189-12.01c0.121-6.61-6.399-12.14-14.34-12.14c-7.939,0-14.459,5.53-14.459,12.26
					C1044.934,1607.855,1046.729,1611.184,1049.66,1613.27L1049.66,1613.27z"/>
			</g>
		</g>
		<g>
			<g>
				<path id="fs8ed" fill="#0B232F" d="M1029.64,1622.47c0.6-0.12,1.2-0.61,1.08-1.35c-0.12-0.61-0.6-1.23-1.32-1.1
					c-7.9,0.73-12.93,8.95-10.3,16.56c2.28,6.38,9.22,9.82,15.45,7.49c4.975-1.878,8.2-6.717,8.021-12.03l1.8,1.72
					c0.47,0.5,1.2,0.5,1.67,0c0.475-0.462,0.485-1.222,0.023-1.697c-0.008-0.008-0.016-0.015-0.023-0.023l-4.43-4.3
					c-0.6-0.48-1.44-0.36-1.8,0.25l-2.99,4.67c-0.36,0.6-0.24,1.35,0.36,1.71c0.6,0.37,1.32,0.25,1.68-0.36l1.43-2.21
					c0.24,4.3-2.15,8.46-6.46,9.94c-5.059,1.795-10.616-0.85-12.411-5.909c-0.013-0.037-0.026-0.074-0.039-0.111
					C1019.34,1629.59,1023.42,1623.08,1029.64,1622.47L1029.64,1622.47z"/>
			</g>
		</g>
		<g>
			<g>
				<path id="fs8ee" fill="#0B232F" d="M1043.96,1643.98c6.475-1.845,10.229-8.588,8.385-15.063
					c-0.277-0.975-0.675-1.911-1.185-2.788c-3.349-5.786-10.715-7.823-16.561-4.58c-4.591,2.592-6.971,7.862-5.88,13.021l-2.16-1.33
					c-0.36-0.36-1.2-0.24-1.56,0.37c-0.36,0.6-0.24,1.319,0.36,1.68l5.16,3.38c0.6,0.36,1.44,0.12,1.8-0.479l2.16-5.07
					c0.24-0.6,0-1.32-0.6-1.56c-0.6-0.24-1.32,0-1.56,0.6l-0.96,2.29c-1.013-4.254,0.891-8.667,4.68-10.85
					c4.664-2.681,10.617-1.074,13.298,3.59c0.004,0.007,0.008,0.014,0.012,0.02c2.677,4.774,0.977,10.814-3.798,13.491
					c-0.655,0.367-1.351,0.658-2.072,0.869c-0.6,0.12-0.96,0.84-0.84,1.439C1042.76,1643.74,1043.36,1644.1,1043.96,1643.98
					L1043.96,1643.98z"/>
			</g>
		</g>
		<g>
			<g>
				<path id="fs8ef" fill="#0B232F" d="M1052.4,1601.6h13.6c0.72,0,1.2-0.48,1.2-1.2c0-0.72-0.48-1.2-1.2-1.2h-13.6
					c-0.721,0-1.2,0.48-1.2,1.2C1051.2,1601.12,1051.68,1601.6,1052.4,1601.6z"/>
			</g>
		</g>
		<g>
			<g>
				<path id="fs8eg" fill="#0B232F" d="M1052.4,1605.6h13.6c0.72,0,1.2-0.48,1.2-1.2c0-0.72-0.48-1.2-1.2-1.2h-13.6
					c-0.721,0-1.2,0.48-1.2,1.2C1051.2,1605.12,1051.68,1605.6,1052.4,1605.6z"/>
			</g>
		</g>
		<g>
			<g>
				<path id="fs8eh" fill="#0B232F" d="M1052.4,1610.4h13.6c0.72,0,1.2-0.48,1.2-1.2c0-0.72-0.48-1.2-1.2-1.2h-13.6
					c-0.721,0-1.2,0.48-1.2,1.2C1051.2,1609.92,1051.68,1610.4,1052.4,1610.4z"/>
			</g>
		</g>
		<g>
			<g>
				<path id="fs8ei" fill="#0B232F" d="M1078.07,1624.8h-20.84c-0.74,0-1.23,0.48-1.23,1.2s0.5,1.2,1.23,1.2h20.72
					c0.739,0,1.229-0.48,1.229-1.2c0.131-0.72-0.49-1.2-1.1-1.2H1078.07z"/>
			</g>
		</g>
		<g>
			<g>
				<path id="fs8ej" fill="#0B232F" d="M1078.07,1632h-20.84c-0.74,0-1.23,0.48-1.23,1.2c0,0.72,0.5,1.2,1.23,1.2h20.72
					c0.739,0,1.229-0.48,1.229-1.2c0.131-0.72-0.49-1.2-1.1-1.2H1078.07z"/>
			</g>
		</g>
		<g>
			<g>
				<path id="fs8ek" fill="#0B232F" d="M1078.07,1639.2h-20.84c-0.74,0-1.23,0.479-1.23,1.2c0,0.72,0.5,1.199,1.23,1.199h20.72
					c0.739,0,1.229-0.479,1.229-1.199c0.131-0.721-0.49-1.2-1.1-1.2H1078.07z"/>
			</g>
		</g>
	</g>
</g>
</svg>
