<?xml version="1.0" encoding="utf-8"?>
<!-- Generator: Adobe Illustrator 16.0.0, SVG Export Plug-In . SVG Version: 6.00 Build 0)  -->
<!DOCTYPE svg PUBLIC "-//W3C//DTD SVG 1.1//EN" "http://www.w3.org/Graphics/SVG/1.1/DTD/svg11.dtd">
<svg version="1.1" id="Layer_1" xmlns="http://www.w3.org/2000/svg" xmlns:xlink="http://www.w3.org/1999/xlink" x="0px" y="0px"
	 width="80px" height="80px" viewBox="0 0 80 80" enable-background="new 0 0 80 80" xml:space="preserve">
<g>
	<g transform="translate(-128 -1595)">
		<g>
			<g>
				<path id="_x34_cpqa" fill="#0B232F" d="M179.9,1660.96c-0.131,0.24-0.25,0.479-0.25,0.72v10.9h-20.67v-10.9
					c0-0.479-0.37-0.97-0.85-1.199c-0.48-0.131-1.09,0-1.33,0.479c-1.57,2.3-3.5,3.63-5.44,3.63c-1.086-0.015-2.125-0.448-2.9-1.21
					c-0.48-0.6-0.85-1.21-0.73-1.819l0.97-11.141c0-0.359-0.12-0.72-0.36-0.96c-0.228-0.224-0.531-0.355-0.85-0.37h-5.2l6.17-11.13
					c0.242-0.367,0.242-0.843,0-1.21c-0.24-0.37-0.6-0.609-1.09-0.609h-0.12c-1.09,0-1.45-0.36-1.45-0.48
					c-0.6-0.85-0.24-2.67,0-3.27c4.84-19.13,17.9-19.13,22.24-19.13h1.21c3.15,0,12.7,0,19.35,12.71
					C195.24,1638.68,180.01,1660.71,179.9,1660.96L179.9,1660.96z M169.25,1610.84h-1.2c-12.82,0-21.16,7.02-24.67,20.82
					c-0.12,0.36-1.09,3.4,0.36,5.449c0.37,0.48,0.85,0.971,1.82,1.33l-6.29,11.381c-0.242,0.367-0.242,0.842,0,1.209
					c0.24,0.36,0.6,0.601,1.09,0.601h5.92l-0.84,9.93c0,1.33,0.48,2.66,1.45,3.63c1.251,1.244,2.945,1.942,4.71,1.94
					c1.921-0.056,3.762-0.785,5.2-2.06v8.719c0,0.721,0.48,1.201,1.21,1.201H181.1c0.73,0,1.2-0.48,1.2-1.201v-11.869
					c2.06-2.9,15.601-23.84,8.71-37.16C183.51,1610.84,172.76,1610.84,169.25,1610.84L169.25,1610.84z"/>
			</g>
		</g>
		<g>
			<g>
				<path id="_x34_cpqb" fill="#0B232F" d="M164.84,1601.19l1.99-2.07v8.13c0,0.73,0.47,1.22,1.17,1.22s1.17-0.49,1.17-1.22v-8.13
					l1.99,2.07c0.404,0.453,1.1,0.492,1.553,0.087c0.031-0.027,0.06-0.056,0.087-0.087c0.47-0.468,0.471-1.228,0.003-1.697
					c-0.001-0.001-0.002-0.002-0.003-0.003l-3.979-4.13c-0.405-0.453-1.101-0.492-1.554-0.086c-0.03,0.027-0.059,0.056-0.086,0.086
					l-3.98,4c-0.47,0.468-0.471,1.228-0.003,1.697c0.001,0.001,0.002,0.002,0.003,0.003
					C163.67,1601.56,164.37,1601.67,164.84,1601.19L164.84,1601.19z"/>
			</g>
		</g>
		<g>
			<g>
				<path id="_x34_cpqc" fill="#0B232F" d="M207.63,1634.23l-4.08-4.02c-0.446-0.467-1.188-0.482-1.653-0.036
					c-0.013,0.012-0.025,0.023-0.037,0.036c-0.455,0.427-0.479,1.142-0.053,1.597c0.018,0.018,0.035,0.036,0.053,0.053l2.051,2.01
					h-8.18c-0.721,0-1.201,0.48-1.201,1.19c0,0.7,0.48,1.18,1.201,1.18h8.06l-1.931,1.9c-0.455,0.426-0.479,1.141-0.053,1.597
					c0.018,0.019,0.035,0.036,0.053,0.053c0.48,0.479,1.201,0.479,1.69,0l4.08-3.899C208.12,1635.41,208.12,1634.59,207.63,1634.23
					L207.63,1634.23z"/>
			</g>
		</g>
		<g>
			<g>
				<path id="_x34_cpqd" fill="#0B232F" d="M132.12,1636.24h8.13c0.73,0,1.22-0.471,1.22-1.18c0-0.71-0.49-1.19-1.22-1.19h-8.13
					l2.07-2c0.48-0.48,0.48-1.2,0-1.66c-0.468-0.47-1.228-0.471-1.697-0.003c-0.001,0.001-0.002,0.002-0.003,0.003l-4.13,4.02
					c-0.458,0.423-0.487,1.138-0.063,1.596c0.02,0.022,0.041,0.043,0.063,0.064l4.13,3.899c0.468,0.47,1.228,0.471,1.697,0.003
					c0.001-0.001,0.002-0.002,0.003-0.003c0.48-0.47,0.48-1.181,0-1.66L132.12,1636.24z"/>
			</g>
		</g>
		<g>
			<g>
				<path id="_x34_cpqe" fill="#0B232F" d="M188.67,1616l5.811-5.75v2.82c0,0.73,0.49,1.22,1.22,1.22c0.72,0,1.2-0.49,1.2-1.22
					v-5.76c0-0.6-0.48-1.22-1.2-1.22h-5.82c-0.601,0-1.21,0.49-1.21,1.22c0,0.74,0.48,1.23,1.21,1.23h2.899l-5.799,5.87
					c-0.476,0.462-0.486,1.222-0.023,1.697c0.008,0.008,0.016,0.015,0.023,0.023C187.34,1616.49,188.18,1616.49,188.67,1616
					L188.67,1616z"/>
			</g>
		</g>
		<g>
			<g>
				<path id="_x34_cpqf" fill="#0B232F" d="M141.1,1614.33c0.72,0,1.2-0.49,1.2-1.21v-2.79l5.82,5.7c0.48,0.48,1.2,0.48,1.7,0
					c0.48-0.5,0.48-1.22,0-1.7l-5.82-5.82h2.9c0.73,0,1.22-0.6,1.22-1.2c0-0.61-0.6-1.22-1.21-1.22h-5.82
					c-0.73,0-1.21,0.6-1.21,1.21v5.7c0,0.84,0.6,1.33,1.21,1.33H141.1z"/>
			</g>
		</g>
		<g>
			<g>
				<path id="_x34_cpqg" fill="#0B232F" d="M168.79,1620.34c0.71,0,1.19-0.49,1.19-1.23v-3.08c0-0.74-0.48-1.23-1.201-1.23
					c-0.699,0-1.179,0.5-1.179,1.23v3.08C167.6,1619.85,168.2,1620.34,168.79,1620.34L168.79,1620.34z"/>
			</g>
		</g>
		<g>
			<g>
				<path id="_x34_cpqh" fill="#0B232F" d="M186.96,1633.81h-3.08c-0.739,0-1.229,0.48-1.229,1.19s0.5,1.189,1.229,1.189h3.08
					c0.74,0,1.229-0.479,1.229-1.199C188.189,1634.4,187.7,1633.81,186.96,1633.81L186.96,1633.81z"/>
			</g>
		</g>
		<g>
			<g>
				<path id="_x34_cpqi" fill="#0B232F" d="M154.93,1635c0-0.71-0.49-1.19-1.23-1.19h-3.08c-0.74,0-1.23,0.48-1.23,1.19
					s0.5,1.189,1.23,1.189h3.08c0.74,0,1.23-0.479,1.23-1.199V1635z"/>
			</g>
		</g>
		<g>
			<g>
				<path id="_x34_cpqj" fill="#0B232F" d="M180.82,1625.52l2.25-2.25c0.5-0.5,0.5-1.25,0-1.75
					c-0.453-0.483-1.213-0.507-1.696-0.054c-0.019,0.017-0.036,0.035-0.054,0.054l-2.25,2.25c-0.5,0.5-0.5,1.25,0,1.75
					S180.439,1626.02,180.82,1625.52z"/>
			</g>
		</g>
		<g>
			<g>
				<path id="_x34_cpqk" fill="#0B232F" d="M156.77,1625.52c0.5,0.5,1.25,0.5,1.75,0s0.5-1.25,0-1.75l-2.25-2.25
					c-0.454-0.483-1.213-0.507-1.696-0.054c-0.019,0.017-0.036,0.035-0.054,0.054c-0.5,0.5-0.5,1.25,0,1.75L156.77,1625.52z"/>
			</g>
		</g>
		<g>
			<g>
				<path id="_x34_cpql" fill="#0B232F" d="M185.859,1640.8l-3-1.34c-0.649-0.271-1.43,0-1.689,0.67c-0.26,0.671,0,1.48,0.65,1.75
					l3,1.341c0.65,0.27,1.43,0,1.699-0.671C186.779,1641.88,186.52,1641.07,185.859,1640.8L185.859,1640.8z"/>
			</g>
		</g>
		<g>
			<g>
				<path id="_x34_cpqm" fill="#0B232F" d="M150.93,1630l3,1.34c0.65,0.27,1.43,0,1.7-0.67c0.26-0.67,0-1.48-0.66-1.75l-3-1.34
					c-0.65-0.27-1.43,0-1.69,0.67C150.02,1628.92,150.28,1629.73,150.93,1630L150.93,1630z"/>
			</g>
		</g>
		<g>
			<g>
				<path id="_x34_cpqn" fill="#0B232F" d="M174.779,1621.83c0.65,0.27,1.441,0,1.701-0.65l1.319-3c0.261-0.65,0-1.43-0.659-1.689
					c-0.65-0.26-1.44,0-1.701,0.65l-1.319,3c-0.399,0.65-0.13,1.43,0.659,1.7V1621.83z"/>
			</g>
		</g>
		<g>
			<g>
				<path id="_x34_cpqo" fill="#0B232F" d="M161.92,1621.13c0.27,0.65,1.08,1.04,1.75,0.65c0.67-0.26,0.94-1.03,0.67-1.68
					l-1.34-2.97c-0.27-0.64-1.08-0.9-1.75-0.64c-0.67,0.26-0.94,1.03-0.67,1.68L161.92,1621.13z"/>
			</g>
		</g>
		<g>
			<g>
				<path id="_x34_cpqp" fill="#0B232F" d="M153.93,1640.22l-3,1.08c-0.65,0.21-0.91,0.86-0.65,1.4c0.26,0.54,1.04,0.75,1.7,0.54
					l3-1.08c0.64-0.221,0.9-0.86,0.64-1.4C155.36,1640.33,154.58,1640,153.93,1640.22z"/>
			</g>
		</g>
		<g>
			<g>
				<path id="_x34_cpqq" fill="#0B232F" d="M181.96,1629.87c0.261,0.67,1.04,0.94,1.7,0.67l3-1.34c0.64-0.27,0.9-1.08,0.64-1.75
					c-0.26-0.67-1.04-0.94-1.69-0.67l-3,1.34C181.96,1628.39,181.7,1629.2,181.96,1629.87z"/>
			</g>
		</g>
		<g>
			<g>
				<path id="_x34_cpqr" fill="#0B232F" d="M168.79,1638.57c-1.083-0.027-1.954-0.898-1.98-1.98c0-1.061,0.92-1.98,1.98-1.98
					c1.06,0,1.979,0.92,1.979,1.98C170.77,1637.641,169.971,1638.57,168.79,1638.57z M176.34,1641.92
					c-2.217,2.335-3.611,5.33-3.97,8.53h-2.41v-10.101c1.813-0.518,3.051-2.193,3.011-4.08c0-2.279-1.931-4.199-4.211-4.199
					c-2.313,0.021-4.188,1.886-4.22,4.199c0.043,1.859,1.247,3.49,3.01,4.08v10.101h-2.29c-0.38-3.183-1.821-6.146-4.09-8.41
					c-2.23-2.298-3.333-5.464-3.01-8.65c0.48-5.29,4.7-9.62,10-9.86c6.13-0.36,11.199,4.69,11.311,10.82
					C179.382,1637.17,178.27,1639.861,176.34,1641.92L176.34,1641.92z M162.84,1655.99v-3.061c0.25,0,11.77,0,11.891-0.1v3.05
					c-11.88,0.11-4.871,0-11.88,0.11H162.84z M169.98,1661.39c0,0.47-0.34,0.94-0.801,0.94h-1.58c-0.45,0-0.8-0.471-0.8-0.94v-2.229
					h3.181V1661.39z M167.92,1621.17c-6.497,0.46-11.669,5.624-12.14,12.12c-0.36,4,0.96,7.89,3.72,10.68c1.8,1.94,3,4.36,3.37,6.79
					h-0.48c-0.48,0-0.96,0.24-1.32,0.6c-0.36,0.371-0.6,0.851-0.6,1.341v4.36c0,1.1,0.84,1.939,1.92,1.939h2.4v0.85h-0.96
					c-0.671,0-1.215,0.544-1.215,1.215c0,0.672,0.544,1.215,1.215,1.215h1.08c0.366,1.429,1.655,2.426,3.13,2.421h1.68
					c1.56,0,2.761-1.091,3.12-2.54h1.09c0.672,0,1.215-0.544,1.215-1.215c0-0.672-0.543-1.215-1.215-1.215h-0.97v-0.851h2.399
					c1.05,0.017,1.914-0.82,1.931-1.869c0.001-0.023,0.001-0.048,0-0.071v-4.359c0.022-1.049-0.811-1.918-1.859-1.939
					c-0.021-0.001-0.04-0.001-0.061,0h-0.479c0.337-2.611,1.517-5.041,3.359-6.921c2.4-2.54,3.6-5.819,3.6-9.33
					C181.62,1626.87,175.37,1620.69,167.92,1621.17L167.92,1621.17z"/>
			</g>
		</g>
	</g>
</g>
</svg>
