<?xml version="1.0" encoding="utf-8"?>
<!-- Generator: Adobe Illustrator 16.0.0, SVG Export Plug-In . SVG Version: 6.00 Build 0)  -->
<!DOCTYPE svg PUBLIC "-//W3C//DTD SVG 1.1//EN" "http://www.w3.org/Graphics/SVG/1.1/DTD/svg11.dtd">
<svg version="1.1" id="Layer_1" xmlns="http://www.w3.org/2000/svg" xmlns:xlink="http://www.w3.org/1999/xlink" x="0px" y="0px"
	 width="612px" height="461px" viewBox="0 0 612 461" enable-background="new 0 0 612 461" xml:space="preserve">
<g>
	<g>
		<g>
			<linearGradient id="SVGID_1_" gradientUnits="userSpaceOnUse" x1="3.1196" y1="233.5283" x2="609.1025" y2="233.5283">
				<stop  offset="0" style="stop-color:#5FC19E"/>
				<stop  offset="0.3727" style="stop-color:#30BCAF"/>
				<stop  offset="0.3793" style="stop-color:#2FBBB1"/>
				<stop  offset="0.4705" style="stop-color:#25B6C7"/>
				<stop  offset="0.5538" style="stop-color:#15B3D6"/>
				<stop  offset="0.6257" style="stop-color:#00B1E0"/>
				<stop  offset="0.6781" style="stop-color:#00B0E4"/>
				<stop  offset="0.7279" style="stop-color:#14A0D3"/>
				<stop  offset="0.8149" style="stop-color:#238EC1"/>
				<stop  offset="0.9045" style="stop-color:#2784B7"/>
				<stop  offset="1" style="stop-color:#2980B3"/>
			</linearGradient>
			<path fill="url(#SVGID_1_)" d="M373.701,449.648c-0.421,0-0.838-0.012-1.249-0.012c-32.552-0.37-63.348-14.885-89.034-41.499
				c-12.193,15.83-26.935,29.05-44.522,35.923c-25.073,9.766-52.181,5.341-80.559-13.175
				C58.758,365.889-7.263,235.639,4.466,171.143c3.384-18.605,11.708-30.946,24.739-36.676c26.04-11.428,60.127,9.764,61.572,10.673
				c35.689,19.907,88.604,87.871,141.592,163.584c51.069-31.31,92.177-63.383,103.91-119.003c2.865-13.619,6.662-26.43,11.27-38.207
				c17.739-56.203,45.066-109.229,89.692-125.964c32.245-12.074,62.506-10.711,90.01,4.028
				c42.873,22.983,67.716,72.47,76.677,111.124c4.664,20.116,16.589,90.133-25.565,146.612
				c-16.626,22.282-39.126,38.896-67.259,49.745c-6.052,15.594-13.724,30.415-23.208,43.861
				C456.601,425.276,416.076,449.648,373.701,449.648z M293.089,394.281c23.067,24.891,50.64,38.486,79.546,38.812
				c0.346,0,0.7,0.017,1.056,0.017c36.861,0,72.577-21.89,100.678-61.727c6.062-8.583,11.318-17.858,15.831-27.594
				c-15.555,4.105-32.535,6.72-50.908,7.843c-45.84,2.777-86.369,2.129-123.782-1.983
				C309.708,364.137,302.298,379.77,293.089,394.281z M119.124,377.994c14.711,14.41,30.834,27.666,48.259,39.044
				c23.639,15.43,45.664,19.36,65.492,11.61c15.424-6.02,28.506-18.36,39.406-33.214c-3.36-4.207-6.613-8.642-9.735-13.306
				c-8.842-13.14-20.344-30.25-33.419-49.194c-1.131-0.3-2.252-0.615-3.371-0.915c-5.138,3.046-10.35,6.109-15.616,9.209
				c-7.42,4.36-14.938,8.776-22.53,13.329C156.797,373.019,134.631,378.491,119.124,377.994z M253.349,339.076
				c7.698,11.261,15.367,22.583,22.917,33.834c1.84,2.726,3.713,5.366,5.631,7.93c6.485-10.922,11.978-22.423,16.521-33.332
				C281.597,345.114,266.789,342.193,253.349,339.076z M145.703,315.325c-24.478,0-37.079,8.197-41.949,12.429
				c-4.985,4.341-7.893,9.575-7.755,14.006c0.162,5.326,2.952,12.465,10.33,16.507c8.356,4.576,28.937,8.365,72.771-17.903
				c7.634-4.564,15.197-9.016,22.647-13.395c0.647-0.377,1.293-0.766,1.94-1.143c-12.611-3.514-23.983-6.503-35.39-8.453
				C159.845,315.93,152.337,315.325,145.703,315.325z M321.492,333.653c35.32,3.622,73.632,4.103,116.783,1.455
				c22.246-1.344,42.212-5.018,59.84-10.974c17.707-50.96,18.047-110.154,8.642-152.362c-8.119-36.395-23.437-63.338-42.016-73.918
				c-17.446-9.93-34.476-11.287-50.597-4.022c-20.101,9.041-38.021,31.448-50.284,61.597c-13.367,41.826-21.37,85.769-26.77,115.372
				c-2.54,13.918-4.543,24.902-6.391,32.258C328.956,309.933,325.935,320.829,321.492,333.653z M46.458,147.611
				c-3.78,0-7.398,0.587-10.619,2.009c-7.68,3.393-12.751,11.627-15.087,24.486C14.45,208.741,36.768,274.303,80.599,333.59
				c1.918-6.58,6.161-12.978,12.298-18.314c9.898-8.609,33.171-21.907,78.18-14.211c14.032,2.393,28.226,6.333,43.197,10.557
				C170.818,249.93,116.149,178.23,82.333,159.356C75.948,155.365,60.147,147.611,46.458,147.611z M245.42,320.12
				c17.05,4.316,36.241,8.452,59.148,11.531c5.388-14.937,8.693-27.16,10.082-32.653c1.736-6.816,3.685-17.555,6.17-31.159
				c0.655-3.638,1.35-7.441,2.076-11.37C303.148,281.551,276.062,301.117,245.42,320.12z M434.954,72.717
				c12.577,0,25.392,3.598,37.972,10.76c22.963,13.074,40.711,43.157,49.967,84.699c9.408,42.149,9.818,97.372-4.663,147.691
				c19.16-9.472,34.824-22.31,46.876-38.452c37.882-50.758,26.965-114.618,22.71-132.976c-7.773-33.516-30.333-79.892-68.38-100.283
				c-23.129-12.397-48.84-13.462-76.378-3.119c-19.705,7.388-35.826,23.97-49.075,45.416c4.315-3.063,8.772-5.642,13.374-7.709
				C416.296,74.722,425.562,72.717,434.954,72.717z"/>
		</g>
		<defs>
			<filter id="Adobe_OpacityMaskFilter" filterUnits="userSpaceOnUse" x="293.849" y="347.543" width="21.503" height="12.624">
				<feFlood  style="flood-color:white;flood-opacity:1" result="back"/>
				<feBlend  in="SourceGraphic" in2="back" mode="normal"/>
			</filter>
		</defs>
		<mask maskUnits="userSpaceOnUse" x="293.849" y="347.543" width="21.503" height="12.624" id="SVGID_2_">
			<g filter="url(#Adobe_OpacityMaskFilter)">
				<defs>
					
						<filter id="Adobe_OpacityMaskFilter_1_" filterUnits="userSpaceOnUse" x="293.849" y="347.543" width="21.503" height="12.624">
						<feFlood  style="flood-color:white;flood-opacity:1" result="back"/>
						<feBlend  in="SourceGraphic" in2="back" mode="normal"/>
					</filter>
				</defs>
				<mask maskUnits="userSpaceOnUse" x="293.849" y="347.543" width="21.503" height="12.624" id="SVGID_2_">
					<g filter="url(#Adobe_OpacityMaskFilter_1_)">
					</g>
				</mask>
				<linearGradient id="SVGID_3_" gradientUnits="userSpaceOnUse" x1="303.0791" y1="357.541" x2="307.4901" y2="347.5514">
					<stop  offset="0" style="stop-color:#000000"/>
					<stop  offset="0.9845" style="stop-color:#FFFFFF"/>
				</linearGradient>
				<path mask="url(#SVGID_2_)" fill="url(#SVGID_3_)" d="M310.957,360.167l-17.108-2.025c0,0,3.804-8.958,4.583-10.599l16.92,2.092
					C315.353,349.635,312.836,356.278,310.957,360.167z"/>
			</g>
		</mask>
		<linearGradient id="SVGID_4_" gradientUnits="userSpaceOnUse" x1="303.0791" y1="357.541" x2="307.4901" y2="347.5514">
			<stop  offset="0" style="stop-color:#11B9A5"/>
			<stop  offset="0.9845" style="stop-color:#11B9A5"/>
		</linearGradient>
		<path opacity="0.65" fill="url(#SVGID_4_)" d="M310.957,360.167l-17.108-2.025c0,0,3.804-8.958,4.583-10.599l16.92,2.092
			C315.353,349.635,312.836,356.278,310.957,360.167z"/>
		<defs>
			<filter id="Adobe_OpacityMaskFilter_2_" filterUnits="userSpaceOnUse" x="304.602" y="319.424" width="20.646" height="14.234">
				<feFlood  style="flood-color:white;flood-opacity:1" result="back"/>
				<feBlend  in="SourceGraphic" in2="back" mode="normal"/>
			</filter>
		</defs>
		<mask maskUnits="userSpaceOnUse" x="304.602" y="319.424" width="20.646" height="14.234" id="SVGID_5_">
			<g filter="url(#Adobe_OpacityMaskFilter_2_)">
				<defs>
					
						<filter id="Adobe_OpacityMaskFilter_3_" filterUnits="userSpaceOnUse" x="304.602" y="319.424" width="20.646" height="14.234">
						<feFlood  style="flood-color:white;flood-opacity:1" result="back"/>
						<feBlend  in="SourceGraphic" in2="back" mode="normal"/>
					</filter>
				</defs>
				<mask maskUnits="userSpaceOnUse" x="304.602" y="319.424" width="20.646" height="14.234" id="SVGID_5_">
					<g filter="url(#Adobe_OpacityMaskFilter_3_)">
					</g>
				</mask>
				<linearGradient id="SVGID_6_" gradientUnits="userSpaceOnUse" x1="316.6221" y1="321.1396" x2="313.1615" y2="332.6461">
					<stop  offset="0" style="stop-color:#000000"/>
					<stop  offset="0.9845" style="stop-color:#FFFFFF"/>
				</linearGradient>
				<path mask="url(#SVGID_5_)" fill="url(#SVGID_6_)" d="M304.602,331.626l16.795,2.032c0,0,2.549-7.352,3.852-11.723
					l-16.436-2.512C308.813,319.424,305.278,329.938,304.602,331.626z"/>
			</g>
		</mask>
		<linearGradient id="SVGID_7_" gradientUnits="userSpaceOnUse" x1="316.6221" y1="321.1396" x2="313.1615" y2="332.6461">
			<stop  offset="0" style="stop-color:#11B9A5"/>
			<stop  offset="0.9845" style="stop-color:#11B9A5"/>
		</linearGradient>
		<path opacity="0.65" fill="url(#SVGID_7_)" d="M304.602,331.626l16.795,2.032c0,0,2.549-7.352,3.852-11.723l-16.436-2.512
			C308.813,319.424,305.278,329.938,304.602,331.626z"/>
		<defs>
			<filter id="Adobe_OpacityMaskFilter_4_" filterUnits="userSpaceOnUse" x="458.982" y="324.223" width="39.078" height="25.412">
				<feFlood  style="flood-color:white;flood-opacity:1" result="back"/>
				<feBlend  in="SourceGraphic" in2="back" mode="normal"/>
			</filter>
		</defs>
		<mask maskUnits="userSpaceOnUse" x="458.982" y="324.223" width="39.078" height="25.412" id="SVGID_8_">
			<g filter="url(#Adobe_OpacityMaskFilter_4_)">
				<defs>
					
						<filter id="Adobe_OpacityMaskFilter_5_" filterUnits="userSpaceOnUse" x="458.982" y="324.223" width="39.078" height="25.412">
						<feFlood  style="flood-color:white;flood-opacity:1" result="back"/>
						<feBlend  in="SourceGraphic" in2="back" mode="normal"/>
					</filter>
				</defs>
				<mask maskUnits="userSpaceOnUse" x="458.982" y="324.223" width="39.078" height="25.412" id="SVGID_8_">
					<g filter="url(#Adobe_OpacityMaskFilter_5_)">
					</g>
				</mask>
				<linearGradient id="SVGID_9_" gradientUnits="userSpaceOnUse" x1="460.8584" y1="339.4492" x2="491.6461" y2="335.0838">
					<stop  offset="0" style="stop-color:#000000"/>
					<stop  offset="0.9845" style="stop-color:#FFFFFF"/>
				</linearGradient>
				<path mask="url(#SVGID_8_)" fill="url(#SVGID_9_)" d="M498.061,324.223c-10.598,3.579-22.138,6.231-34.406,8.15l-4.672,17.262
					c10.874-1.408,21.401-3.184,31.161-5.756L498.061,324.223z"/>
			</g>
		</mask>
		<linearGradient id="SVGID_10_" gradientUnits="userSpaceOnUse" x1="460.8584" y1="339.4492" x2="491.6461" y2="335.0838">
			<stop  offset="0" style="stop-color:#27AAE1"/>
			<stop  offset="0.9845" style="stop-color:#27AAE1"/>
		</linearGradient>
		<path opacity="0.65" fill="url(#SVGID_10_)" d="M498.061,324.223c-10.598,3.579-22.138,6.231-34.406,8.15l-4.672,17.262
			c10.874-1.408,21.401-3.184,31.161-5.756L498.061,324.223z"/>
		<defs>
			<filter id="Adobe_OpacityMaskFilter_6_" filterUnits="userSpaceOnUse" x="510.977" y="294.576" width="43.303" height="42.524">
				<feFlood  style="flood-color:white;flood-opacity:1" result="back"/>
				<feBlend  in="SourceGraphic" in2="back" mode="normal"/>
			</filter>
		</defs>
		<mask maskUnits="userSpaceOnUse" x="510.977" y="294.576" width="43.303" height="42.524" id="SVGID_11_">
			<g filter="url(#Adobe_OpacityMaskFilter_6_)">
				<defs>
					
						<filter id="Adobe_OpacityMaskFilter_7_" filterUnits="userSpaceOnUse" x="510.977" y="294.576" width="43.303" height="42.524">
						<feFlood  style="flood-color:white;flood-opacity:1" result="back"/>
						<feBlend  in="SourceGraphic" in2="back" mode="normal"/>
					</filter>
				</defs>
				<mask maskUnits="userSpaceOnUse" x="510.977" y="294.576" width="43.303" height="42.524" id="SVGID_11_">
					<g filter="url(#Adobe_OpacityMaskFilter_7_)">
					</g>
				</mask>
				<linearGradient id="SVGID_12_" gradientUnits="userSpaceOnUse" x1="552.0977" y1="305.8809" x2="514.1852" y2="323.3436">
					<stop  offset="0" style="stop-color:#000000"/>
					<stop  offset="0.9845" style="stop-color:#FFFFFF"/>
				</linearGradient>
				<path mask="url(#SVGID_11_)" fill="url(#SVGID_12_)" d="M518.111,315.906l-7.135,21.194
					c16.464-6.345,30.744-14.906,43.303-25.177l-5.083-17.348C540.112,302.887,529.855,310.105,518.111,315.906z"/>
			</g>
		</mask>
		<linearGradient id="SVGID_13_" gradientUnits="userSpaceOnUse" x1="552.0977" y1="305.8809" x2="514.1852" y2="323.3436">
			<stop  offset="0" style="stop-color:#27AAE1"/>
			<stop  offset="0.9845" style="stop-color:#27AAE1"/>
		</linearGradient>
		<path opacity="0.65" fill="url(#SVGID_13_)" d="M518.111,315.906l-7.135,21.194c16.464-6.345,30.744-14.906,43.303-25.177
			l-5.083-17.348C540.112,302.887,529.855,310.105,518.111,315.906z"/>
		<defs>
			<filter id="Adobe_OpacityMaskFilter_8_" filterUnits="userSpaceOnUse" x="283.357" y="394.354" width="32.216" height="33.702">
				<feFlood  style="flood-color:white;flood-opacity:1" result="back"/>
				<feBlend  in="SourceGraphic" in2="back" mode="normal"/>
			</filter>
		</defs>
		<mask maskUnits="userSpaceOnUse" x="283.357" y="394.354" width="32.216" height="33.702" id="SVGID_14_">
			<g filter="url(#Adobe_OpacityMaskFilter_8_)">
				<defs>
					
						<filter id="Adobe_OpacityMaskFilter_9_" filterUnits="userSpaceOnUse" x="283.357" y="394.354" width="32.216" height="33.702">
						<feFlood  style="flood-color:white;flood-opacity:1" result="back"/>
						<feBlend  in="SourceGraphic" in2="back" mode="normal"/>
					</filter>
				</defs>
				<mask maskUnits="userSpaceOnUse" x="283.357" y="394.354" width="32.216" height="33.702" id="SVGID_14_">
					<g filter="url(#Adobe_OpacityMaskFilter_9_)">
					</g>
				</mask>
				<linearGradient id="SVGID_15_" gradientUnits="userSpaceOnUse" x1="312.3867" y1="423.5771" x2="288.2638" y2="400.3732">
					<stop  offset="0" style="stop-color:#000000"/>
					<stop  offset="0.9845" style="stop-color:#FFFFFF"/>
				</linearGradient>
				<path mask="url(#SVGID_14_)" fill="url(#SVGID_15_)" d="M293.03,394.354l-9.673,13.854c7.413,7.684,15.293,14.231,23.475,19.848
					l8.741-14.116C307.703,408.473,300.131,402.015,293.03,394.354z"/>
			</g>
		</mask>
		<linearGradient id="SVGID_16_" gradientUnits="userSpaceOnUse" x1="312.3867" y1="423.5771" x2="288.2638" y2="400.3732">
			<stop  offset="0" style="stop-color:#11B9A5"/>
			<stop  offset="0.9845" style="stop-color:#11B9A5"/>
		</linearGradient>
		<path opacity="0.65" fill="url(#SVGID_16_)" d="M293.03,394.354l-9.673,13.854c7.413,7.684,15.293,14.231,23.475,19.848
			l8.741-14.116C307.703,408.473,300.131,402.015,293.03,394.354z"/>
		<defs>
			<filter id="Adobe_OpacityMaskFilter_10_" filterUnits="userSpaceOnUse" x="258.203" y="363.71" width="23.702" height="31.66">
				<feFlood  style="flood-color:white;flood-opacity:1" result="back"/>
				<feBlend  in="SourceGraphic" in2="back" mode="normal"/>
			</filter>
		</defs>
		<mask maskUnits="userSpaceOnUse" x="258.203" y="363.71" width="23.702" height="31.66" id="SVGID_17_">
			<g filter="url(#Adobe_OpacityMaskFilter_10_)">
				<defs>
					<filter id="Adobe_OpacityMaskFilter_11_" filterUnits="userSpaceOnUse" x="258.203" y="363.71" width="23.702" height="31.66">
						<feFlood  style="flood-color:white;flood-opacity:1" result="back"/>
						<feBlend  in="SourceGraphic" in2="back" mode="normal"/>
					</filter>
				</defs>
				<mask maskUnits="userSpaceOnUse" x="258.203" y="363.71" width="23.702" height="31.66" id="SVGID_17_">
					<g filter="url(#Adobe_OpacityMaskFilter_11_)">
					</g>
				</mask>
				<linearGradient id="SVGID_18_" gradientUnits="userSpaceOnUse" x1="264.2466" y1="369.8145" x2="276.1825" y2="387.1994">
					<stop  offset="0" style="stop-color:#000000"/>
					<stop  offset="0.9845" style="stop-color:#FFFFFF"/>
				</linearGradient>
				<path mask="url(#SVGID_17_)" fill="url(#SVGID_18_)" d="M270.077,363.71l-11.874,11.902c1.473,2.19,2.995,4.451,4.349,6.463
					c3.123,4.663,6.373,9.099,9.735,13.295c0,0,0.407-0.615,0.98-1.485l0.784-1.188c0.013-0.021,0.027-0.041,0.039-0.06
					c1.034-1.57,2.349-3.564,3.655-5.545c0.427-0.646,0.829-1.26,1.231-1.87c0.522-0.787,0.99-1.5,1.419-2.152
					c0.087-0.133,0.177-0.27,0.261-0.396c0.535-0.813,0.999-1.516,1.25-1.894c-1.917-2.565-3.793-5.198-5.634-7.929
					C274.23,369.81,272.133,366.757,270.077,363.71z"/>
			</g>
		</mask>
		<linearGradient id="SVGID_19_" gradientUnits="userSpaceOnUse" x1="264.2466" y1="369.8145" x2="276.1825" y2="387.1994">
			<stop  offset="0" style="stop-color:#11B9A5"/>
			<stop  offset="0.9845" style="stop-color:#11B9A5"/>
		</linearGradient>
		<path opacity="0.65" fill="url(#SVGID_19_)" d="M270.077,363.71l-11.874,11.902c1.473,2.19,2.995,4.451,4.349,6.463
			c3.123,4.663,6.373,9.099,9.735,13.295c0,0,0.407-0.615,0.98-1.485l0.784-1.188c0.013-0.021,0.027-0.041,0.039-0.06
			c1.034-1.57,2.349-3.564,3.655-5.545c0.427-0.646,0.829-1.26,1.231-1.87c0.522-0.787,0.99-1.5,1.419-2.152
			c0.087-0.133,0.177-0.27,0.261-0.396c0.535-0.813,0.999-1.516,1.25-1.894c-1.917-2.565-3.793-5.198-5.634-7.929
			C274.23,369.81,272.133,366.757,270.077,363.71z"/>
		<defs>
			<filter id="Adobe_OpacityMaskFilter_12_" filterUnits="userSpaceOnUse" x="194.649" y="277.245" width="37.654" height="36.672">
				<feFlood  style="flood-color:white;flood-opacity:1" result="back"/>
				<feBlend  in="SourceGraphic" in2="back" mode="normal"/>
			</filter>
		</defs>
		<mask maskUnits="userSpaceOnUse" x="194.649" y="277.245" width="37.654" height="36.672" id="SVGID_20_">
			<g filter="url(#Adobe_OpacityMaskFilter_12_)">
				<defs>
					
						<filter id="Adobe_OpacityMaskFilter_13_" filterUnits="userSpaceOnUse" x="194.649" y="277.245" width="37.654" height="36.672">
						<feFlood  style="flood-color:white;flood-opacity:1" result="back"/>
						<feBlend  in="SourceGraphic" in2="back" mode="normal"/>
					</filter>
				</defs>
				<mask maskUnits="userSpaceOnUse" x="194.649" y="277.245" width="37.654" height="36.672" id="SVGID_20_">
					<g filter="url(#Adobe_OpacityMaskFilter_13_)">
					</g>
				</mask>
				<linearGradient id="SVGID_21_" gradientUnits="userSpaceOnUse" x1="201.3794" y1="280.8691" x2="225.383" y2="311.2305">
					<stop  offset="0" style="stop-color:#000000"/>
					<stop  offset="0.9845" style="stop-color:#FFFFFF"/>
				</linearGradient>
				<path mask="url(#SVGID_20_)" fill="url(#SVGID_21_)" d="M209.949,277.245l-15.3,6.993c6.686,9.189,13.249,18.361,19.559,27.32
					l8.036,2.358l10.059-5.248C224.831,297.991,217.367,287.497,209.949,277.245z"/>
			</g>
		</mask>
		<linearGradient id="SVGID_22_" gradientUnits="userSpaceOnUse" x1="201.3794" y1="280.8691" x2="225.383" y2="311.2305">
			<stop  offset="0" style="stop-color:#11B9A5"/>
			<stop  offset="0.9845" style="stop-color:#11B9A5"/>
		</linearGradient>
		<path opacity="0.65" fill="url(#SVGID_22_)" d="M209.949,277.245l-15.3,6.993c6.686,9.189,13.249,18.361,19.559,27.32l8.036,2.358
			l10.059-5.248C224.831,297.991,217.367,287.497,209.949,277.245z"/>
		<defs>
			<filter id="Adobe_OpacityMaskFilter_14_" filterUnits="userSpaceOnUse" x="229.153" y="333.008" width="38.18" height="35.979">
				<feFlood  style="flood-color:white;flood-opacity:1" result="back"/>
				<feBlend  in="SourceGraphic" in2="back" mode="normal"/>
			</filter>
		</defs>
		<mask maskUnits="userSpaceOnUse" x="229.153" y="333.008" width="38.18" height="35.979" id="SVGID_23_">
			<g filter="url(#Adobe_OpacityMaskFilter_14_)">
				<defs>
					
						<filter id="Adobe_OpacityMaskFilter_15_" filterUnits="userSpaceOnUse" x="229.153" y="333.008" width="38.18" height="35.979">
						<feFlood  style="flood-color:white;flood-opacity:1" result="back"/>
						<feBlend  in="SourceGraphic" in2="back" mode="normal"/>
					</filter>
				</defs>
				<mask maskUnits="userSpaceOnUse" x="229.153" y="333.008" width="38.18" height="35.979" id="SVGID_23_">
					<g filter="url(#Adobe_OpacityMaskFilter_15_)">
					</g>
				</mask>
				<linearGradient id="SVGID_24_" gradientUnits="userSpaceOnUse" x1="260.0254" y1="363.0264" x2="243.4829" y2="339.4949">
					<stop  offset="0" style="stop-color:#000000"/>
					<stop  offset="0.9845" style="stop-color:#FFFFFF"/>
				</linearGradient>
				<path mask="url(#SVGID_23_)" fill="url(#SVGID_24_)" d="M253.349,339.138c0.172,0.038,0.36,0.08,0.534,0.118l-24.721-6.248
					l-0.009,0.025c9.108,13.191,17.312,25.297,24.495,35.954l13.686-9.198C262.692,352.909,258.054,346.02,253.349,339.138z"/>
			</g>
		</mask>
		<linearGradient id="SVGID_25_" gradientUnits="userSpaceOnUse" x1="260.0254" y1="363.0264" x2="243.4829" y2="339.4949">
			<stop  offset="0" style="stop-color:#11B9A5"/>
			<stop  offset="0.9845" style="stop-color:#11B9A5"/>
		</linearGradient>
		<path opacity="0.65" fill="url(#SVGID_25_)" d="M253.349,339.138c0.172,0.038,0.36,0.08,0.534,0.118l-24.721-6.248l-0.009,0.025
			c9.108,13.191,17.312,25.297,24.495,35.954l13.686-9.198C262.692,352.909,258.054,346.02,253.349,339.138z"/>
		<defs>
			<filter id="Adobe_OpacityMaskFilter_16_" filterUnits="userSpaceOnUse" x="172.245" y="325.92" width="53.296" height="26.487">
				<feFlood  style="flood-color:white;flood-opacity:1" result="back"/>
				<feBlend  in="SourceGraphic" in2="back" mode="normal"/>
			</filter>
		</defs>
		<mask maskUnits="userSpaceOnUse" x="172.245" y="325.92" width="53.296" height="26.487" id="SVGID_26_">
			<g filter="url(#Adobe_OpacityMaskFilter_16_)">
				<defs>
					
						<filter id="Adobe_OpacityMaskFilter_17_" filterUnits="userSpaceOnUse" x="172.245" y="325.92" width="53.296" height="26.487">
						<feFlood  style="flood-color:white;flood-opacity:1" result="back"/>
						<feBlend  in="SourceGraphic" in2="back" mode="normal"/>
					</filter>
				</defs>
				<mask maskUnits="userSpaceOnUse" x="172.245" y="325.92" width="53.296" height="26.487" id="SVGID_26_">
					<g filter="url(#Adobe_OpacityMaskFilter_17_)">
					</g>
				</mask>
				<linearGradient id="SVGID_27_" gradientUnits="userSpaceOnUse" x1="183.7627" y1="348.0498" x2="210.4729" y2="330.6451">
					<stop  offset="0" style="stop-color:#000000"/>
					<stop  offset="0.9845" style="stop-color:#FFFFFF"/>
				</linearGradient>
				<path mask="url(#SVGID_26_)" fill="url(#SVGID_27_)" d="M178.875,340.46c-2.287,1.37-4.471,2.608-6.63,3.82
					c5.722,2.436,13.169,5.62,18.934,8.127c6.295-3.751,12.574-7.47,18.746-11.101c5.267-3.089,10.467-6.146,15.616-9.205
					l-22.068-6.182c-0.644,0.38-1.292,0.752-1.938,1.127C194.083,331.435,186.511,335.882,178.875,340.46z"/>
			</g>
		</mask>
		<linearGradient id="SVGID_28_" gradientUnits="userSpaceOnUse" x1="183.7627" y1="348.0498" x2="210.4729" y2="330.6451">
			<stop  offset="0" style="stop-color:#11B9A5"/>
			<stop  offset="0.9845" style="stop-color:#11B9A5"/>
		</linearGradient>
		<path opacity="0.65" fill="url(#SVGID_28_)" d="M178.875,340.46c-2.287,1.37-4.471,2.608-6.63,3.82
			c5.722,2.436,13.169,5.62,18.934,8.127c6.295-3.751,12.574-7.47,18.746-11.101c5.267-3.089,10.467-6.146,15.616-9.205
			l-22.068-6.182c-0.644,0.38-1.292,0.752-1.938,1.127C194.083,331.435,186.511,335.882,178.875,340.46z"/>
		<defs>
			<filter id="Adobe_OpacityMaskFilter_18_" filterUnits="userSpaceOnUse" x="222.26" y="290.752" width="50.611" height="29.297">
				<feFlood  style="flood-color:white;flood-opacity:1" result="back"/>
				<feBlend  in="SourceGraphic" in2="back" mode="normal"/>
			</filter>
		</defs>
		<mask maskUnits="userSpaceOnUse" x="222.26" y="290.752" width="50.611" height="29.297" id="SVGID_29_">
			<g filter="url(#Adobe_OpacityMaskFilter_18_)">
				<defs>
					
						<filter id="Adobe_OpacityMaskFilter_19_" filterUnits="userSpaceOnUse" x="222.26" y="290.752" width="50.611" height="29.297">
						<feFlood  style="flood-color:white;flood-opacity:1" result="back"/>
						<feBlend  in="SourceGraphic" in2="back" mode="normal"/>
					</filter>
				</defs>
				<mask maskUnits="userSpaceOnUse" x="222.26" y="290.752" width="50.611" height="29.297" id="SVGID_29_">
					<g filter="url(#Adobe_OpacityMaskFilter_19_)">
					</g>
				</mask>
				<linearGradient id="SVGID_30_" gradientUnits="userSpaceOnUse" x1="263.2031" y1="295.916" x2="238.0443" y2="315.2159">
					<stop  offset="0" style="stop-color:#000000"/>
					<stop  offset="0.9845" style="stop-color:#FFFFFF"/>
				</linearGradient>
				<path mask="url(#SVGID_29_)" fill="url(#SVGID_30_)" d="M245.38,320.049c9.567-5.93,18.732-11.941,27.491-18.135l-12.913-11.162
					c-8.775,6.095-18.032,12.019-27.643,17.91l-10.055,5.248L245.38,320.049z"/>
			</g>
		</mask>
		<linearGradient id="SVGID_31_" gradientUnits="userSpaceOnUse" x1="263.2031" y1="295.916" x2="238.0443" y2="315.2159">
			<stop  offset="0" style="stop-color:#11B9A5"/>
			<stop  offset="0.9845" style="stop-color:#11B9A5"/>
		</linearGradient>
		<path opacity="0.65" fill="url(#SVGID_31_)" d="M245.38,320.049c9.567-5.93,18.732-11.941,27.491-18.135l-12.913-11.162
			c-8.775,6.095-18.032,12.019-27.643,17.91l-10.055,5.248L245.38,320.049z"/>
	</g>
</g>
</svg>
