<?xml version="1.0" encoding="utf-8"?>
<!-- Generator: Adobe Illustrator 16.0.0, SVG Export Plug-In . SVG Version: 6.00 Build 0)  -->
<!DOCTYPE svg PUBLIC "-//W3C//DTD SVG 1.1//EN" "http://www.w3.org/Graphics/SVG/1.1/DTD/svg11.dtd">
<svg version="1.1" id="Layer_1" xmlns="http://www.w3.org/2000/svg" xmlns:xlink="http://www.w3.org/1999/xlink" x="0px" y="0px"
	 width="237.289px" height="274.237px" viewBox="0 0 237.289 274.237" enable-background="new 0 0 237.289 274.237"
	 xml:space="preserve">
<g>
	<g>
		<g>
			<g>
				<linearGradient id="SVGID_1_" gradientUnits="userSpaceOnUse" x1="44.9019" y1="56.4907" x2="194.8843" y2="56.4907">
					<stop  offset="0" style="stop-color:#5FC19E"/>
					<stop  offset="0.3727" style="stop-color:#30BCAF"/>
					<stop  offset="0.3793" style="stop-color:#2FBBB1"/>
					<stop  offset="0.4705" style="stop-color:#25B6C7"/>
					<stop  offset="0.5538" style="stop-color:#15B3D6"/>
					<stop  offset="0.6257" style="stop-color:#00B1E0"/>
					<stop  offset="0.6781" style="stop-color:#00B0E4"/>
					<stop  offset="0.7279" style="stop-color:#14A0D3"/>
					<stop  offset="0.8149" style="stop-color:#238EC1"/>
					<stop  offset="0.9045" style="stop-color:#2784B7"/>
					<stop  offset="1" style="stop-color:#2980B3"/>
				</linearGradient>
				<path fill="url(#SVGID_1_)" d="M136.623,109.981c-0.104,0-0.208-0.003-0.31-0.003c-8.056-0.09-15.679-3.684-22.036-10.271
					c-3.018,3.918-6.667,7.189-11.02,8.89c-6.206,2.417-12.915,1.322-19.938-3.26C58.673,89.25,42.333,57.013,45.235,41.05
					c0.837-4.605,2.898-7.66,6.123-9.078c6.445-2.828,14.882,2.417,15.239,2.642c8.833,4.927,21.93,21.749,35.044,40.487
					c12.64-7.749,22.814-15.687,25.718-29.453c0.709-3.371,1.649-6.542,2.79-9.456c4.391-13.911,11.153-27.035,22.199-31.177
					c7.98-2.988,15.471-2.651,22.276,0.997c10.611,5.688,16.761,17.937,18.979,27.503c1.154,4.979,4.105,22.308-6.328,36.287
					c-4.115,5.515-9.684,9.628-16.646,12.312c-1.498,3.86-3.396,7.528-5.744,10.857
					C157.139,103.949,147.111,109.981,136.623,109.981z M116.67,96.277c5.71,6.16,12.533,9.526,19.688,9.606
					c0.085,0,0.173,0.003,0.261,0.003c9.124,0,17.964-5.417,24.918-15.276c1.501-2.125,2.802-4.42,3.918-6.83
					c-3.849,1.016-8.053,1.664-12.6,1.941c-11.345,0.688-21.376,0.527-30.636-0.491C120.784,88.816,118.95,92.687,116.67,96.277z
					 M73.613,92.247c3.641,3.567,7.632,6.848,11.944,9.663c5.851,3.819,11.302,4.792,16.209,2.874
					c3.817-1.49,7.056-4.545,9.753-8.221c-0.832-1.04-1.637-2.138-2.41-3.292c-2.188-3.252-5.035-7.488-8.271-12.176
					c-0.28-0.075-0.558-0.152-0.834-0.227c-1.271,0.754-2.562,1.512-3.865,2.279c-1.836,1.08-3.697,2.172-5.576,3.3
					C82.938,91.015,77.452,92.37,73.613,92.247z M106.834,82.613c1.906,2.788,3.804,5.59,5.672,8.375
					c0.456,0.674,0.919,1.327,1.394,1.962c1.604-2.703,2.964-5.55,4.089-8.25C113.826,84.109,110.161,83.386,106.834,82.613z
					 M80.192,76.736c-6.059,0-9.177,2.028-10.382,3.076c-1.234,1.074-1.954,2.37-1.919,3.465c0.04,1.319,0.73,3.086,2.557,4.086
					c2.068,1.133,7.162,2.071,18.011-4.43c1.89-1.13,3.761-2.231,5.605-3.316c0.16-0.093,0.32-0.189,0.48-0.283
					c-3.121-0.869-5.936-1.61-8.759-2.092C83.692,76.885,81.834,76.736,80.192,76.736z M123.7,81.272
					c8.743,0.896,18.225,1.016,28.905,0.36c5.505-0.333,10.446-1.242,14.81-2.716c4.383-12.613,4.468-27.263,2.139-37.71
					c-2.01-9.008-5.801-15.676-10.398-18.295c-4.318-2.458-8.533-2.793-12.523-0.996c-4.974,2.238-9.409,7.784-12.445,15.246
					c-3.308,10.352-5.288,21.228-6.624,28.555c-0.629,3.444-1.125,6.163-1.583,7.983C125.547,75.4,124.8,78.098,123.7,81.272z
					 M55.628,35.226c-0.936,0-1.831,0.145-2.628,0.497c-1.901,0.84-3.156,2.877-3.734,6.06c-1.56,8.573,3.964,24.799,14.813,39.474
					c0.475-1.629,1.525-3.212,3.044-4.534c2.45-2.13,8.21-5.422,19.35-3.516c3.473,0.592,6.986,1.567,10.691,2.612
					C86.408,60.55,72.877,42.804,64.508,38.133C62.927,37.145,59.017,35.226,55.628,35.226z M104.873,77.922
					c4.22,1.069,8.97,2.093,14.639,2.855c1.333-3.697,2.151-6.723,2.496-8.082c0.429-1.688,0.911-4.345,1.527-7.711
					c0.162-0.901,0.333-1.842,0.514-2.815C119.16,68.376,112.456,73.22,104.873,77.922z M151.782,16.689
					c3.113,0,6.285,0.891,9.398,2.663c5.684,3.236,10.076,10.681,12.368,20.963c2.327,10.432,2.429,24.1-1.154,36.553
					c4.742-2.343,8.618-5.521,11.601-9.516c9.378-12.563,6.675-28.369,5.622-32.912c-1.925-8.295-7.509-19.773-16.924-24.82
					c-5.726-3.068-12.088-3.332-18.904-0.772c-4.878,1.829-8.868,5.933-12.146,11.241c1.068-0.758,2.172-1.396,3.311-1.908
					C147.165,17.186,149.458,16.689,151.782,16.689z"/>
			</g>
			<defs>
				<filter id="Adobe_OpacityMaskFilter" filterUnits="userSpaceOnUse" x="116.858" y="84.709" width="5.323" height="3.125">
					<feFlood  style="flood-color:white;flood-opacity:1" result="back"/>
					<feBlend  in="SourceGraphic" in2="back" mode="normal"/>
				</filter>
			</defs>
			<mask maskUnits="userSpaceOnUse" x="116.858" y="84.709" width="5.323" height="3.125" id="SVGID_2_">
				<g filter="url(#Adobe_OpacityMaskFilter)">
					<defs>
						<filter id="Adobe_OpacityMaskFilter_1_" filterUnits="userSpaceOnUse" x="116.858" y="84.709" width="5.323" height="3.125">
							<feFlood  style="flood-color:white;flood-opacity:1" result="back"/>
							<feBlend  in="SourceGraphic" in2="back" mode="normal"/>
						</filter>
					</defs>
					<mask maskUnits="userSpaceOnUse" x="116.858" y="84.709" width="5.323" height="3.125" id="SVGID_2_">
						<g filter="url(#Adobe_OpacityMaskFilter_1_)">
						</g>
					</mask>
					<linearGradient id="SVGID_3_" gradientUnits="userSpaceOnUse" x1="119.1431" y1="87.1841" x2="120.2348" y2="84.7117">
						<stop  offset="0" style="stop-color:#000000"/>
						<stop  offset="0.9845" style="stop-color:#FFFFFF"/>
					</linearGradient>
					<path mask="url(#SVGID_2_)" fill="url(#SVGID_3_)" d="M121.093,87.834l-4.235-0.501c0,0,0.942-2.217,1.134-2.624l4.188,0.519
						C122.181,85.228,121.557,86.871,121.093,87.834z"/>
				</g>
			</mask>
			<linearGradient id="SVGID_4_" gradientUnits="userSpaceOnUse" x1="119.1431" y1="87.1841" x2="120.2348" y2="84.7117">
				<stop  offset="0" style="stop-color:#11B9A5"/>
				<stop  offset="0.9845" style="stop-color:#11B9A5"/>
			</linearGradient>
			<path opacity="0.65" fill="url(#SVGID_4_)" d="M121.093,87.834l-4.235-0.501c0,0,0.942-2.217,1.134-2.624l4.188,0.519
				C122.181,85.228,121.557,86.871,121.093,87.834z"/>
			<defs>
				<filter id="Adobe_OpacityMaskFilter_2_" filterUnits="userSpaceOnUse" x="119.52" y="77.751" width="5.109" height="3.522">
					<feFlood  style="flood-color:white;flood-opacity:1" result="back"/>
					<feBlend  in="SourceGraphic" in2="back" mode="normal"/>
				</filter>
			</defs>
			<mask maskUnits="userSpaceOnUse" x="119.52" y="77.751" width="5.109" height="3.522" id="SVGID_5_">
				<g filter="url(#Adobe_OpacityMaskFilter_2_)">
					<defs>
						<filter id="Adobe_OpacityMaskFilter_3_" filterUnits="userSpaceOnUse" x="119.52" y="77.751" width="5.109" height="3.522">
							<feFlood  style="flood-color:white;flood-opacity:1" result="back"/>
							<feBlend  in="SourceGraphic" in2="back" mode="normal"/>
						</filter>
					</defs>
					<mask maskUnits="userSpaceOnUse" x="119.52" y="77.751" width="5.109" height="3.522" id="SVGID_5_">
						<g filter="url(#Adobe_OpacityMaskFilter_3_)">
						</g>
					</mask>
					<linearGradient id="SVGID_6_" gradientUnits="userSpaceOnUse" x1="122.4946" y1="78.1758" x2="121.6383" y2="81.023">
						<stop  offset="0" style="stop-color:#000000"/>
						<stop  offset="0.9845" style="stop-color:#FFFFFF"/>
					</linearGradient>
					<path mask="url(#SVGID_5_)" fill="url(#SVGID_6_)" d="M119.52,80.77l4.156,0.503c0,0,0.632-1.82,0.953-2.901l-4.067-0.621
						C120.562,77.751,119.688,80.353,119.52,80.77z"/>
				</g>
			</mask>
			<linearGradient id="SVGID_7_" gradientUnits="userSpaceOnUse" x1="122.4946" y1="78.1758" x2="121.6383" y2="81.023">
				<stop  offset="0" style="stop-color:#11B9A5"/>
				<stop  offset="0.9845" style="stop-color:#11B9A5"/>
			</linearGradient>
			<path opacity="0.65" fill="url(#SVGID_7_)" d="M119.52,80.77l4.156,0.503c0,0,0.632-1.82,0.953-2.901l-4.067-0.621
				C120.562,77.751,119.688,80.353,119.52,80.77z"/>
			<defs>
				<filter id="Adobe_OpacityMaskFilter_4_" filterUnits="userSpaceOnUse" x="157.729" y="78.938" width="9.672" height="6.289">
					<feFlood  style="flood-color:white;flood-opacity:1" result="back"/>
					<feBlend  in="SourceGraphic" in2="back" mode="normal"/>
				</filter>
			</defs>
			<mask maskUnits="userSpaceOnUse" x="157.729" y="78.938" width="9.672" height="6.289" id="SVGID_8_">
				<g filter="url(#Adobe_OpacityMaskFilter_4_)">
					<defs>
						<filter id="Adobe_OpacityMaskFilter_5_" filterUnits="userSpaceOnUse" x="157.729" y="78.938" width="9.672" height="6.289">
							<feFlood  style="flood-color:white;flood-opacity:1" result="back"/>
							<feBlend  in="SourceGraphic" in2="back" mode="normal"/>
						</filter>
					</defs>
					<mask maskUnits="userSpaceOnUse" x="157.729" y="78.938" width="9.672" height="6.289" id="SVGID_8_">
						<g filter="url(#Adobe_OpacityMaskFilter_5_)">
						</g>
					</mask>
					<linearGradient id="SVGID_9_" gradientUnits="userSpaceOnUse" x1="158.1929" y1="82.707" x2="165.8128" y2="81.6266">
						<stop  offset="0" style="stop-color:#000000"/>
						<stop  offset="0.9845" style="stop-color:#FFFFFF"/>
					</linearGradient>
					<path mask="url(#SVGID_8_)" fill="url(#SVGID_9_)" d="M167.401,78.938c-2.622,0.886-5.479,1.542-8.516,2.017l-1.156,4.272
						c2.692-0.347,5.297-0.787,7.713-1.424L167.401,78.938z"/>
				</g>
			</mask>
			<linearGradient id="SVGID_10_" gradientUnits="userSpaceOnUse" x1="158.1929" y1="82.707" x2="165.8128" y2="81.6266">
				<stop  offset="0" style="stop-color:#27AAE1"/>
				<stop  offset="0.9845" style="stop-color:#27AAE1"/>
			</linearGradient>
			<path opacity="0.65" fill="url(#SVGID_10_)" d="M167.401,78.938c-2.622,0.886-5.479,1.542-8.516,2.017l-1.156,4.272
				c2.692-0.347,5.297-0.787,7.713-1.424L167.401,78.938z"/>
			<defs>
				<filter id="Adobe_OpacityMaskFilter_6_" filterUnits="userSpaceOnUse" x="170.599" y="71.6" width="10.716" height="10.526">
					<feFlood  style="flood-color:white;flood-opacity:1" result="back"/>
					<feBlend  in="SourceGraphic" in2="back" mode="normal"/>
				</filter>
			</defs>
			<mask maskUnits="userSpaceOnUse" x="170.599" y="71.6" width="10.716" height="10.526" id="SVGID_11_">
				<g filter="url(#Adobe_OpacityMaskFilter_6_)">
					<defs>
						<filter id="Adobe_OpacityMaskFilter_7_" filterUnits="userSpaceOnUse" x="170.599" y="71.6" width="10.716" height="10.526">
							<feFlood  style="flood-color:white;flood-opacity:1" result="back"/>
							<feBlend  in="SourceGraphic" in2="back" mode="normal"/>
						</filter>
					</defs>
					<mask maskUnits="userSpaceOnUse" x="170.599" y="71.6" width="10.716" height="10.526" id="SVGID_11_">
						<g filter="url(#Adobe_OpacityMaskFilter_7_)">
						</g>
					</mask>
					<linearGradient id="SVGID_12_" gradientUnits="userSpaceOnUse" x1="180.7769" y1="74.3984" x2="171.3931" y2="78.7207">
						<stop  offset="0" style="stop-color:#000000"/>
						<stop  offset="0.9845" style="stop-color:#FFFFFF"/>
					</linearGradient>
					<path mask="url(#SVGID_11_)" fill="url(#SVGID_12_)" d="M172.364,76.879l-1.765,5.246c4.073-1.57,7.608-3.689,10.716-6.231
						l-1.257-4.294C177.809,73.657,175.27,75.444,172.364,76.879z"/>
				</g>
			</mask>
			<linearGradient id="SVGID_13_" gradientUnits="userSpaceOnUse" x1="180.7769" y1="74.3984" x2="171.3931" y2="78.7207">
				<stop  offset="0" style="stop-color:#27AAE1"/>
				<stop  offset="0.9845" style="stop-color:#27AAE1"/>
			</linearGradient>
			<path opacity="0.65" fill="url(#SVGID_13_)" d="M172.364,76.879l-1.765,5.246c4.073-1.57,7.608-3.689,10.716-6.231l-1.257-4.294
				C177.809,73.657,175.27,75.444,172.364,76.879z"/>
			<defs>
				<filter id="Adobe_OpacityMaskFilter_8_" filterUnits="userSpaceOnUse" x="114.262" y="96.295" width="7.973" height="8.342">
					<feFlood  style="flood-color:white;flood-opacity:1" result="back"/>
					<feBlend  in="SourceGraphic" in2="back" mode="normal"/>
				</filter>
			</defs>
			<mask maskUnits="userSpaceOnUse" x="114.262" y="96.295" width="7.973" height="8.342" id="SVGID_14_">
				<g filter="url(#Adobe_OpacityMaskFilter_8_)">
					<defs>
						<filter id="Adobe_OpacityMaskFilter_9_" filterUnits="userSpaceOnUse" x="114.262" y="96.295" width="7.973" height="8.342">
							<feFlood  style="flood-color:white;flood-opacity:1" result="back"/>
							<feBlend  in="SourceGraphic" in2="back" mode="normal"/>
						</filter>
					</defs>
					<mask maskUnits="userSpaceOnUse" x="114.262" y="96.295" width="7.973" height="8.342" id="SVGID_14_">
						<g filter="url(#Adobe_OpacityMaskFilter_9_)">
						</g>
					</mask>
					<linearGradient id="SVGID_15_" gradientUnits="userSpaceOnUse" x1="121.4468" y1="103.5288" x2="115.4751" y2="97.7846">
						<stop  offset="0" style="stop-color:#000000"/>
						<stop  offset="0.9845" style="stop-color:#FFFFFF"/>
					</linearGradient>
					<path mask="url(#SVGID_14_)" fill="url(#SVGID_15_)" d="M116.656,96.295l-2.394,3.431c1.835,1.901,3.785,3.521,5.81,4.911
						l2.163-3.493C120.288,99.791,118.414,98.192,116.656,96.295z"/>
				</g>
			</mask>
			<linearGradient id="SVGID_16_" gradientUnits="userSpaceOnUse" x1="121.4468" y1="103.5288" x2="115.4751" y2="97.7846">
				<stop  offset="0" style="stop-color:#11B9A5"/>
				<stop  offset="0.9845" style="stop-color:#11B9A5"/>
			</linearGradient>
			<path opacity="0.65" fill="url(#SVGID_16_)" d="M116.656,96.295l-2.394,3.431c1.835,1.901,3.785,3.521,5.81,4.911l2.163-3.493
				C120.288,99.791,118.414,98.192,116.656,96.295z"/>
			<defs>
				<filter id="Adobe_OpacityMaskFilter_10_" filterUnits="userSpaceOnUse" x="108.036" y="88.711" width="5.866" height="7.836">
					<feFlood  style="flood-color:white;flood-opacity:1" result="back"/>
					<feBlend  in="SourceGraphic" in2="back" mode="normal"/>
				</filter>
			</defs>
			<mask maskUnits="userSpaceOnUse" x="108.036" y="88.711" width="5.866" height="7.836" id="SVGID_17_">
				<g filter="url(#Adobe_OpacityMaskFilter_10_)">
					<defs>
						<filter id="Adobe_OpacityMaskFilter_11_" filterUnits="userSpaceOnUse" x="108.036" y="88.711" width="5.866" height="7.836">
							<feFlood  style="flood-color:white;flood-opacity:1" result="back"/>
							<feBlend  in="SourceGraphic" in2="back" mode="normal"/>
						</filter>
					</defs>
					<mask maskUnits="userSpaceOnUse" x="108.036" y="88.711" width="5.866" height="7.836" id="SVGID_17_">
						<g filter="url(#Adobe_OpacityMaskFilter_11_)">
						</g>
					</mask>
					<linearGradient id="SVGID_18_" gradientUnits="userSpaceOnUse" x1="109.5317" y1="90.2217" x2="112.4863" y2="94.5251">
						<stop  offset="0" style="stop-color:#000000"/>
						<stop  offset="0.9845" style="stop-color:#FFFFFF"/>
					</linearGradient>
					<path mask="url(#SVGID_17_)" fill="url(#SVGID_18_)" d="M110.975,88.711l-2.939,2.946c0.364,0.542,0.741,1.102,1.076,1.599
						c0.773,1.154,1.578,2.252,2.41,3.292c0,0,0.101-0.153,0.243-0.369l0.194-0.294c0.003-0.005,0.006-0.01,0.01-0.015
						c0.256-0.389,0.581-0.882,0.904-1.373c0.106-0.16,0.205-0.311,0.305-0.463c0.129-0.195,0.245-0.371,0.351-0.533
						c0.021-0.032,0.044-0.067,0.064-0.098c0.132-0.201,0.247-0.375,0.309-0.469c-0.475-0.634-0.938-1.287-1.395-1.962
						C112.003,90.222,111.484,89.465,110.975,88.711z"/>
				</g>
			</mask>
			<linearGradient id="SVGID_19_" gradientUnits="userSpaceOnUse" x1="109.5317" y1="90.2217" x2="112.4863" y2="94.5251">
				<stop  offset="0" style="stop-color:#11B9A5"/>
				<stop  offset="0.9845" style="stop-color:#11B9A5"/>
			</linearGradient>
			<path opacity="0.65" fill="url(#SVGID_19_)" d="M110.975,88.711l-2.939,2.946c0.364,0.542,0.741,1.102,1.076,1.599
				c0.773,1.154,1.578,2.252,2.41,3.292c0,0,0.101-0.153,0.243-0.369l0.194-0.294c0.003-0.005,0.006-0.01,0.01-0.015
				c0.256-0.389,0.581-0.882,0.904-1.373c0.106-0.16,0.205-0.311,0.305-0.463c0.129-0.195,0.245-0.371,0.351-0.533
				c0.021-0.032,0.044-0.067,0.064-0.098c0.132-0.201,0.247-0.375,0.309-0.469c-0.475-0.634-0.938-1.287-1.395-1.962
				C112.003,90.222,111.484,89.465,110.975,88.711z"/>
			<defs>
				<filter id="Adobe_OpacityMaskFilter_12_" filterUnits="userSpaceOnUse" x="92.306" y="67.311" width="9.319" height="9.077">
					<feFlood  style="flood-color:white;flood-opacity:1" result="back"/>
					<feBlend  in="SourceGraphic" in2="back" mode="normal"/>
				</filter>
			</defs>
			<mask maskUnits="userSpaceOnUse" x="92.306" y="67.311" width="9.319" height="9.077" id="SVGID_20_">
				<g filter="url(#Adobe_OpacityMaskFilter_12_)">
					<defs>
						<filter id="Adobe_OpacityMaskFilter_13_" filterUnits="userSpaceOnUse" x="92.306" y="67.311" width="9.319" height="9.077">
							<feFlood  style="flood-color:white;flood-opacity:1" result="back"/>
							<feBlend  in="SourceGraphic" in2="back" mode="normal"/>
						</filter>
					</defs>
					<mask maskUnits="userSpaceOnUse" x="92.306" y="67.311" width="9.319" height="9.077" id="SVGID_20_">
						<g filter="url(#Adobe_OpacityMaskFilter_13_)">
						</g>
					</mask>
					<linearGradient id="SVGID_21_" gradientUnits="userSpaceOnUse" x1="93.9722" y1="68.2075" x2="99.9133" y2="75.7222">
						<stop  offset="0" style="stop-color:#000000"/>
						<stop  offset="0.9845" style="stop-color:#FFFFFF"/>
					</linearGradient>
					<path mask="url(#SVGID_20_)" fill="url(#SVGID_21_)" d="M96.093,67.311l-3.787,1.731c1.655,2.274,3.279,4.544,4.841,6.761
						l1.989,0.584l2.489-1.299C99.776,72.446,97.929,69.849,96.093,67.311z"/>
				</g>
			</mask>
			<linearGradient id="SVGID_22_" gradientUnits="userSpaceOnUse" x1="93.9722" y1="68.2075" x2="99.9133" y2="75.7222">
				<stop  offset="0" style="stop-color:#11B9A5"/>
				<stop  offset="0.9845" style="stop-color:#11B9A5"/>
			</linearGradient>
			<path opacity="0.65" fill="url(#SVGID_22_)" d="M96.093,67.311l-3.787,1.731c1.655,2.274,3.279,4.544,4.841,6.761l1.989,0.584
				l2.489-1.299C99.776,72.446,97.929,69.849,96.093,67.311z"/>
			<defs>
				<filter id="Adobe_OpacityMaskFilter_14_" filterUnits="userSpaceOnUse" x="100.846" y="81.111" width="9.45" height="8.906">
					<feFlood  style="flood-color:white;flood-opacity:1" result="back"/>
					<feBlend  in="SourceGraphic" in2="back" mode="normal"/>
				</filter>
			</defs>
			<mask maskUnits="userSpaceOnUse" x="100.846" y="81.111" width="9.45" height="8.906" id="SVGID_23_">
				<g filter="url(#Adobe_OpacityMaskFilter_14_)">
					<defs>
						<filter id="Adobe_OpacityMaskFilter_15_" filterUnits="userSpaceOnUse" x="100.846" y="81.111" width="9.45" height="8.906">
							<feFlood  style="flood-color:white;flood-opacity:1" result="back"/>
							<feBlend  in="SourceGraphic" in2="back" mode="normal"/>
						</filter>
					</defs>
					<mask maskUnits="userSpaceOnUse" x="100.846" y="81.111" width="9.45" height="8.906" id="SVGID_23_">
						<g filter="url(#Adobe_OpacityMaskFilter_15_)">
						</g>
					</mask>
					<linearGradient id="SVGID_24_" gradientUnits="userSpaceOnUse" x1="108.4873" y1="88.542" x2="104.3928" y2="82.7177">
						<stop  offset="0" style="stop-color:#000000"/>
						<stop  offset="0.9845" style="stop-color:#FFFFFF"/>
					</linearGradient>
					<path mask="url(#SVGID_23_)" fill="url(#SVGID_24_)" d="M106.834,82.629c0.043,0.01,0.089,0.02,0.132,0.029l-6.118-1.547
						l-0.002,0.007c2.254,3.265,4.285,6.261,6.063,8.898l3.387-2.277C109.147,86.037,107.999,84.333,106.834,82.629z"/>
				</g>
			</mask>
			<linearGradient id="SVGID_25_" gradientUnits="userSpaceOnUse" x1="108.4873" y1="88.542" x2="104.3928" y2="82.7177">
				<stop  offset="0" style="stop-color:#11B9A5"/>
				<stop  offset="0.9845" style="stop-color:#11B9A5"/>
			</linearGradient>
			<path opacity="0.65" fill="url(#SVGID_25_)" d="M106.834,82.629c0.043,0.01,0.089,0.02,0.132,0.029l-6.118-1.547l-0.002,0.007
				c2.254,3.265,4.285,6.261,6.063,8.898l3.387-2.277C109.147,86.037,107.999,84.333,106.834,82.629z"/>
			<defs>
				<filter id="Adobe_OpacityMaskFilter_16_" filterUnits="userSpaceOnUse" x="86.761" y="79.358" width="13.191" height="6.556">
					<feFlood  style="flood-color:white;flood-opacity:1" result="back"/>
					<feBlend  in="SourceGraphic" in2="back" mode="normal"/>
				</filter>
			</defs>
			<mask maskUnits="userSpaceOnUse" x="86.761" y="79.358" width="13.191" height="6.556" id="SVGID_26_">
				<g filter="url(#Adobe_OpacityMaskFilter_16_)">
					<defs>
						<filter id="Adobe_OpacityMaskFilter_17_" filterUnits="userSpaceOnUse" x="86.761" y="79.358" width="13.191" height="6.556">
							<feFlood  style="flood-color:white;flood-opacity:1" result="back"/>
							<feBlend  in="SourceGraphic" in2="back" mode="normal"/>
						</filter>
					</defs>
					<mask maskUnits="userSpaceOnUse" x="86.761" y="79.358" width="13.191" height="6.556" id="SVGID_26_">
						<g filter="url(#Adobe_OpacityMaskFilter_17_)">
						</g>
					</mask>
					<linearGradient id="SVGID_27_" gradientUnits="userSpaceOnUse" x1="89.6128" y1="84.8354" x2="96.2234" y2="80.5279">
						<stop  offset="0" style="stop-color:#000000"/>
						<stop  offset="0.9845" style="stop-color:#FFFFFF"/>
					</linearGradient>
					<path mask="url(#SVGID_26_)" fill="url(#SVGID_27_)" d="M88.402,82.957c-0.566,0.339-1.106,0.646-1.641,0.945
						c1.416,0.604,3.259,1.392,4.686,2.012c1.558-0.929,3.112-1.849,4.64-2.747c1.304-0.765,2.591-1.522,3.865-2.279l-5.462-1.53
						c-0.16,0.093-0.32,0.187-0.48,0.28C92.166,80.723,90.292,81.824,88.402,82.957z"/>
				</g>
			</mask>
			<linearGradient id="SVGID_28_" gradientUnits="userSpaceOnUse" x1="89.6128" y1="84.8354" x2="96.2234" y2="80.5279">
				<stop  offset="0" style="stop-color:#11B9A5"/>
				<stop  offset="0.9845" style="stop-color:#11B9A5"/>
			</linearGradient>
			<path opacity="0.65" fill="url(#SVGID_28_)" d="M88.402,82.957c-0.566,0.339-1.106,0.646-1.641,0.945
				c1.416,0.604,3.259,1.392,4.686,2.012c1.558-0.929,3.112-1.849,4.64-2.747c1.304-0.765,2.591-1.522,3.865-2.279l-5.462-1.53
				c-0.16,0.093-0.32,0.187-0.48,0.28C92.166,80.723,90.292,81.824,88.402,82.957z"/>
			<defs>
				<filter id="Adobe_OpacityMaskFilter_18_" filterUnits="userSpaceOnUse" x="99.14" y="70.654" width="12.526" height="7.25">
					<feFlood  style="flood-color:white;flood-opacity:1" result="back"/>
					<feBlend  in="SourceGraphic" in2="back" mode="normal"/>
				</filter>
			</defs>
			<mask maskUnits="userSpaceOnUse" x="99.14" y="70.654" width="12.526" height="7.25" id="SVGID_29_">
				<g filter="url(#Adobe_OpacityMaskFilter_18_)">
					<defs>
						<filter id="Adobe_OpacityMaskFilter_19_" filterUnits="userSpaceOnUse" x="99.14" y="70.654" width="12.526" height="7.25">
							<feFlood  style="flood-color:white;flood-opacity:1" result="back"/>
							<feBlend  in="SourceGraphic" in2="back" mode="normal"/>
						</filter>
					</defs>
					<mask maskUnits="userSpaceOnUse" x="99.14" y="70.654" width="12.526" height="7.25" id="SVGID_29_">
						<g filter="url(#Adobe_OpacityMaskFilter_19_)">
						</g>
					</mask>
					<linearGradient id="SVGID_30_" gradientUnits="userSpaceOnUse" x1="109.2729" y1="71.9316" x2="103.0465" y2="76.7081">
						<stop  offset="0" style="stop-color:#000000"/>
						<stop  offset="0.9845" style="stop-color:#FFFFFF"/>
					</linearGradient>
					<path mask="url(#SVGID_29_)" fill="url(#SVGID_30_)" d="M104.862,77.904c2.368-1.467,4.636-2.955,6.804-4.487l-3.196-2.763
						c-2.172,1.509-4.463,2.975-6.842,4.433l-2.489,1.299L104.862,77.904z"/>
				</g>
			</mask>
			<linearGradient id="SVGID_31_" gradientUnits="userSpaceOnUse" x1="109.2729" y1="71.9316" x2="103.0465" y2="76.7081">
				<stop  offset="0" style="stop-color:#11B9A5"/>
				<stop  offset="0.9845" style="stop-color:#11B9A5"/>
			</linearGradient>
			<path opacity="0.65" fill="url(#SVGID_31_)" d="M104.862,77.904c2.368-1.467,4.636-2.955,6.804-4.487l-3.196-2.763
				c-2.172,1.509-4.463,2.975-6.842,4.433l-2.489,1.299L104.862,77.904z"/>
		</g>
	</g>
	<g>
		<g>
			<path fill="#FFFFFF" d="M33.168,206.226c-2.84,0.516-6.71,0.947-10.756,0.947c-11.706,0-18.332-8.264-18.332-20.912v-6.714
				c0-12.648,6.542-20.912,18.332-20.912c3.958,0,7.916,0.432,10.756,0.947c1.377,0.259,1.721,0.69,1.721,1.893v3.1
				c0,0.862-0.687,1.29-1.462,1.29c-0.172,0-0.259,0-0.344,0c-3.786-0.428-6.454-0.604-10.671-0.604
				c-6.885,0-10.759,4.562-10.759,14.286v6.714c0,9.637,3.79,14.286,10.759,14.286c4.217,0,6.885-0.172,10.671-0.604
				c0.084,0,0.172,0,0.344,0c0.775,0,1.462,0.432,1.462,1.29v3.1C34.89,205.451,34.546,205.967,33.168,206.226z"/>
			<path fill="#FFFFFF" d="M69.579,151.666h-4.385c-0.946,0-1.721-0.775-1.721-1.722v-6.886c0-0.946,0.775-1.721,1.721-1.721h4.385
				c0.947,0,1.722,0.774,1.722,1.721v6.886C71.301,150.891,70.526,151.666,69.579,151.666z M69.408,206.569h-4.13
				c-0.946,0-1.721-0.774-1.721-1.722v-43.889c0-0.946,0.775-1.721,1.721-1.721h4.13c0.946,0,1.721,0.774,1.721,1.721v43.889
				C71.129,205.795,70.354,206.569,69.408,206.569z"/>
			<path fill="#FFFFFF" d="M122.945,206.657c-1.638,0.256-5.165,0.516-8.264,0.516c-8.087,0-12.736-2.668-12.736-11.962v-44.404
				c0-0.862,0.775-1.466,1.721-1.637l4.218-0.688c0.084,0,0.172,0,0.172,0c0.859,0,1.461,0.774,1.461,1.634v9.122h13.428
				c0.946,0,1.633,0.603,1.633,1.55v2.927c0,0.859-0.687,1.546-1.633,1.546h-13.428v29.95c0,4.992,1.638,5.851,6.37,5.851h6.97
				c1.206,0,1.809,0.344,1.809,1.206v2.924C124.666,205.967,124.235,206.481,122.945,206.657z"/>
			<path fill="#FFFFFF" d="M170.283,165.261c-5.851,0-8.69,0.176-11.961,0.862v38.725c0,0.863-0.604,1.722-1.55,1.722h-4.474
				c-0.858,0-1.549-0.774-1.549-1.722v-41.823c0-0.946,0.603-1.55,1.549-1.978c4.904-2.152,10.844-2.412,17.984-2.412
				c1.118,0,1.81,0.088,1.81,1.294v3.958C172.092,164.833,171.92,165.261,170.283,165.261z"/>
			<path fill="#FFFFFF" d="M232.339,205.191c-4.562,1.118-10.584,1.981-15.832,1.981c-12.824,0-18.764-8.348-18.764-21.256v-6.026
				c0-12.908,5.855-21.256,18.764-21.256c5.16,0,11.271,0.863,15.832,1.981c1.549,0.343,1.809,0.774,1.809,1.98v40.618
				C234.148,204.333,233.888,204.848,232.339,205.191z M226.576,165.864c-2.324-0.428-6.454-0.859-10.068-0.859
				c-8.523,0-11.19,5.768-11.19,14.886v6.026c0,9.034,2.667,14.886,11.19,14.886c3.614,0,7.656-0.428,10.068-0.859V165.864z"/>
		</g>
	</g>
	<g>
		<g>
			<g>
				<path fill="#FFFFFF" d="M9.41,244.26c-1.001,0-2.423-0.157-3.22-0.314c-0.311-0.069-0.49-0.157-0.49-0.358v-0.248
					c0-0.223,0.154-0.314,0.354-0.314c0.044,0,0.088,0,0.136,0c1.063,0.179,2.354,0.358,3.263,0.358
					c1.601,0,2.821-0.424,2.821-2.244c0-0.917-0.49-1.414-2.354-2.445L8.5,237.908c-1.667-0.921-2.69-1.659-2.69-3.188
					c0-2.086,1.645-2.759,3.399-2.759c1.601,0,2.423,0.109,3.176,0.201c0.314,0.044,0.468,0.179,0.468,0.38v0.183
					c0,0.267-0.153,0.358-0.376,0.358c-0.022,0-0.069,0-0.091,0c-0.578-0.069-1.864-0.249-3.084-0.249
					c-1.422,0-2.511,0.293-2.511,1.886c0,0.987,0.8,1.572,2.152,2.336l1.491,0.829c1.842,1.031,2.818,1.772,2.818,3.253
					C13.25,243.54,11.474,244.26,9.41,244.26z"/>
				<path fill="#FFFFFF" d="M22.387,244.26c-3.041,0-4.575-1.978-4.575-5.365v-1.571c0-3.388,1.535-5.361,4.575-5.361
					c3.044,0,4.576,1.974,4.576,5.361v1.571C26.962,242.282,25.431,244.26,22.387,244.26z M25.987,237.323
					c0-2.759-0.998-4.488-3.6-4.488c-2.598,0-3.596,1.729-3.596,4.488v1.571c0,2.763,0.998,4.488,3.596,4.488
					c2.603,0,3.6-1.726,3.6-4.488V237.323z"/>
				<path fill="#FFFFFF" d="M38.727,244.059c-0.932,0.109-1.977,0.201-2.686,0.201c-3.176,0-4.4-2.492-4.4-5.431v-1.506
					c0-2.982,1.224-5.361,4.4-5.361c0.709,0,1.754,0.088,2.686,0.201c0.333,0.044,0.424,0.157,0.424,0.405v0.157
					c0,0.223-0.157,0.314-0.38,0.314c-0.021,0-0.065,0-0.087,0c-1.045-0.136-1.911-0.205-2.642-0.205
					c-2.533,0-3.421,1.772-3.421,4.488v1.506c0,2.715,0.888,4.554,3.421,4.554c0.731,0,1.597-0.066,2.642-0.201
					c0.022,0,0.066,0,0.087,0c0.223,0,0.38,0.091,0.38,0.314v0.157C39.151,243.901,39.06,244.011,38.727,244.059z"/>
				<path fill="#FFFFFF" d="M44.688,229.854h-0.131c-0.223,0-0.424-0.184-0.424-0.428v-1.663c0-0.223,0.201-0.424,0.424-0.424h0.131
					c0.223,0,0.424,0.201,0.424,0.424v1.663C45.112,229.67,44.911,229.854,44.688,229.854z M44.688,244.26h-0.131
					c-0.223,0-0.424-0.201-0.424-0.428v-11.333c0-0.223,0.201-0.428,0.424-0.428h0.131c0.223,0,0.424,0.205,0.424,0.428v11.333
					C45.112,244.059,44.911,244.26,44.688,244.26z"/>
				<path fill="#FFFFFF" d="M58.422,243.832c-0.979,0.201-2.467,0.428-3.731,0.428c-3.066,0-4.356-2.222-4.356-5.453v-1.392
					c0-3.231,1.29-5.453,4.356-5.453c1.265,0,2.752,0.223,3.731,0.424c0.267,0.069,0.333,0.157,0.333,0.428v10.595
					C58.754,243.675,58.688,243.767,58.422,243.832z M57.775,233.128c-0.797-0.136-2.021-0.293-3.084-0.293
					c-2.489,0-3.377,1.685-3.377,4.58v1.392c0,2.895,0.888,4.576,3.377,4.576c1.063,0,2.288-0.157,3.084-0.289V233.128z"/>
				<path fill="#FFFFFF" d="M64.916,244.26h-0.219c-0.223,0-0.38-0.201-0.38-0.428v-15.956c0-0.223,0.157-0.424,0.38-0.424h0.219
					c0.223,0,0.38,0.201,0.38,0.424v15.956C65.296,244.059,65.139,244.26,64.916,244.26z"/>
				<path fill="#FFFFFF" d="M79.948,229.854h-0.132c-0.223,0-0.424-0.184-0.424-0.428v-1.663c0-0.223,0.201-0.424,0.424-0.424h0.132
					c0.223,0,0.424,0.201,0.424,0.424v1.663C80.372,229.67,80.17,229.854,79.948,229.854z M79.948,244.26h-0.132
					c-0.223,0-0.424-0.201-0.424-0.428v-11.333c0-0.223,0.201-0.428,0.424-0.428h0.132c0.223,0,0.424,0.205,0.424,0.428v11.333
					C80.372,244.059,80.17,244.26,79.948,244.26z"/>
				<path fill="#FFFFFF" d="M93.905,244.26h-0.223c-0.223,0-0.38-0.201-0.38-0.428v-7.74c0-2.829-1.287-3.188-2.774-3.188H89.57
					c-1.487,0-2.774,0.358-2.774,3.188v7.74c0,0.227-0.157,0.428-0.38,0.428h-0.223c-0.219,0-0.376-0.201-0.376-0.428v-7.74
					c0-3.771,2.222-4.13,3.753-4.13h0.958c1.531,0,3.753,0.358,3.753,4.13v7.74C94.281,244.059,94.124,244.26,93.905,244.26z"/>
				<path fill="#FFFFFF" d="M107.485,244.26h-0.223c-0.223,0-0.38-0.201-0.38-0.428v-7.74c0-2.829-1.287-3.188-2.774-3.188h-0.958
					c-1.487,0-2.774,0.358-2.774,3.188v7.74c0,0.227-0.157,0.428-0.38,0.428h-0.223c-0.219,0-0.376-0.201-0.376-0.428v-7.74
					c0-3.771,2.222-4.13,3.753-4.13h0.958c1.531,0,3.753,0.358,3.753,4.13v7.74C107.862,244.059,107.705,244.26,107.485,244.26z"/>
				<path fill="#FFFFFF" d="M117.334,244.26c-3.041,0-4.576-1.978-4.576-5.365v-1.571c0-3.388,1.535-5.361,4.576-5.361
					c3.045,0,4.576,1.974,4.576,5.361v1.571C121.911,242.282,120.379,244.26,117.334,244.26z M120.934,237.323
					c0-2.759-0.998-4.488-3.6-4.488c-2.598,0-3.596,1.729-3.596,4.488v1.571c0,2.763,0.998,4.488,3.596,4.488
					c2.602,0,3.6-1.726,3.6-4.488V237.323z"/>
				<path fill="#FFFFFF" d="M135.136,232.635l-2.909,10.211c-0.332,1.188-0.866,1.414-1.509,1.414c-0.622,0-1.221-0.227-1.558-1.414
					l-2.909-10.211c-0.021-0.066-0.021-0.136-0.021-0.18c0-0.227,0.135-0.384,0.354-0.384h0.223c0.157,0,0.311,0.092,0.398,0.406
					l2.844,10.119c0.201,0.676,0.424,0.812,0.669,0.812c0.244,0,0.42-0.136,0.621-0.812l2.843-10.119
					c0.088-0.314,0.245-0.406,0.398-0.406h0.267c0.224,0,0.337,0.136,0.337,0.34C135.184,232.478,135.159,232.543,135.136,232.635z"
					/>
				<path fill="#FFFFFF" d="M147.566,243.832c-0.979,0.201-2.467,0.428-3.731,0.428c-3.066,0-4.356-2.222-4.356-5.453v-1.392
					c0-3.231,1.29-5.453,4.356-5.453c1.265,0,2.752,0.223,3.731,0.424c0.267,0.069,0.333,0.157,0.333,0.428v10.595
					C147.899,243.675,147.833,243.767,147.566,243.832z M146.918,233.128c-0.796-0.136-2.021-0.293-3.084-0.293
					c-2.489,0-3.377,1.685-3.377,4.58v1.392c0,2.895,0.888,4.576,3.377,4.576c1.063,0,2.288-0.157,3.084-0.289V233.128z"/>
				<path fill="#FFFFFF" d="M157.97,244.19c-0.288,0.047-1.02,0.069-1.688,0.069c-1.955,0-3.044-0.65-3.044-2.873v-11.826
					c0-0.227,0.179-0.428,0.424-0.428h0.18c0.219,0,0.397,0.201,0.397,0.428v2.511h3.731c0.245,0,0.424,0.136,0.424,0.362v0.201
					c0,0.223-0.179,0.357-0.424,0.357h-3.731v8.395c0,1.729,0.556,1.996,2.043,1.996h1.688c0.333,0,0.468,0.091,0.468,0.292v0.157
					C158.438,244.011,158.373,244.146,157.97,244.19z"/>
				<path fill="#FFFFFF" d="M163.668,229.854h-0.132c-0.223,0-0.424-0.184-0.424-0.428v-1.663c0-0.223,0.201-0.424,0.424-0.424
					h0.132c0.223,0,0.424,0.201,0.424,0.424v1.663C164.092,229.67,163.891,229.854,163.668,229.854z M163.668,244.26h-0.132
					c-0.223,0-0.424-0.201-0.424-0.428v-11.333c0-0.223,0.201-0.428,0.424-0.428h0.132c0.223,0,0.424,0.205,0.424,0.428v11.333
					C164.092,244.059,163.891,244.26,163.668,244.26z"/>
				<path fill="#FFFFFF" d="M173.89,244.26c-3.041,0-4.575-1.978-4.575-5.365v-1.571c0-3.388,1.534-5.361,4.575-5.361
					c3.044,0,4.576,1.974,4.576,5.361v1.571C178.466,242.282,176.934,244.26,173.89,244.26z M177.49,237.323
					c0-2.759-0.997-4.488-3.6-4.488c-2.599,0-3.596,1.729-3.596,4.488v1.571c0,2.763,0.997,4.488,3.596,4.488
					c2.603,0,3.6-1.726,3.6-4.488V237.323z"/>
				<path fill="#FFFFFF" d="M191.451,244.26h-0.223c-0.224,0-0.38-0.201-0.38-0.428v-7.74c0-2.829-1.287-3.188-2.774-3.188h-0.957
					c-1.488,0-2.774,0.358-2.774,3.188v7.74c0,0.227-0.157,0.428-0.38,0.428h-0.223c-0.22,0-0.377-0.201-0.377-0.428v-7.74
					c0-3.771,2.223-4.13,3.754-4.13h0.957c1.531,0,3.754,0.358,3.754,4.13v7.74C191.828,244.059,191.67,244.26,191.451,244.26z"/>
				<path fill="#FFFFFF" d="M206.194,244.26h-0.22c-0.223,0-0.38-0.201-0.38-0.428v-15.956c0-0.223,0.157-0.424,0.38-0.424h0.22
					c0.223,0,0.38,0.201,0.38,0.424v15.956C206.574,244.059,206.417,244.26,206.194,244.26z"/>
				<path fill="#FFFFFF" d="M219.884,243.832c-0.98,0.201-2.468,0.428-3.731,0.428c-3.066,0-4.356-2.222-4.356-5.453v-1.392
					c0-3.231,1.29-5.453,4.356-5.453c1.264,0,2.751,0.223,3.731,0.424c0.267,0.069,0.332,0.157,0.332,0.428v10.595
					C220.216,243.675,220.151,243.767,219.884,243.832z M219.237,233.128c-0.797-0.136-2.021-0.293-3.084-0.293
					c-2.489,0-3.377,1.685-3.377,4.58v1.392c0,2.895,0.888,4.576,3.377,4.576c1.063,0,2.287-0.157,3.084-0.289V233.128z"/>
				<path fill="#FFFFFF" d="M229.624,244.26c-1.269,0-2.756-0.227-3.731-0.428c-0.267-0.065-0.336-0.157-0.336-0.424v-15.532
					c0-0.223,0.157-0.424,0.38-0.424h0.223c0.22,0,0.377,0.201,0.377,0.424v4.422c0.888-0.201,2.222-0.336,3.088-0.336
					c2.887,0,4.353,1.816,4.353,5.361v1.483C233.976,242.038,232.69,244.26,229.624,244.26z M233,237.323
					c0-2.96-0.936-4.488-3.377-4.488c-0.866,0-2.244,0.113-3.088,0.293v9.966c0.8,0.132,2.021,0.289,3.088,0.289
					c2.489,0,3.377-1.682,3.377-4.576V237.323z"/>
			</g>
		</g>
	</g>
	<g>
		<g>
			<path fill="#FFFFFF" d="M72.726,269.703c-0.78,0-1.359-0.08-1.849-0.16c-0.188-0.033-0.212-0.077-0.212-0.201v-0.45
				c0-0.124,0.089-0.179,0.19-0.179c0.011,0,0.022,0,0.033,0c0.514,0.044,1.325,0.065,1.838,0.065c1.336,0,1.692-0.541,1.692-1.326
				c0-0.563-0.324-0.877-1.336-1.51l-1.08-0.661c-1.025-0.632-1.537-1.206-1.537-2.105c0-1.359,0.968-1.991,2.661-1.991
				c0.658,0,1.515,0.069,1.937,0.135c0.112,0.022,0.19,0.081,0.19,0.194v0.482c0,0.113-0.079,0.179-0.19,0.179
				c-0.011,0-0.011,0-0.021,0c-0.49-0.033-1.269-0.065-1.915-0.065c-1.148,0-1.638,0.248-1.638,1.066
				c0,0.53,0.368,0.845,1.215,1.363l1.023,0.618c1.292,0.774,1.749,1.396,1.749,2.295C75.476,268.53,74.919,269.703,72.726,269.703z
				"/>
			<path fill="#FFFFFF" d="M88.204,269.623h-0.78c-0.133,0-0.155,0-0.245-0.146l-1.994-3.352c-0.033,0-0.065,0-0.099,0
				c-0.067,0-0.123,0-0.19,0c-0.367,0-0.946-0.021-1.225-0.036v3.308c0,0.113-0.078,0.227-0.201,0.227H82.87
				c-0.111,0-0.201-0.103-0.201-0.227v-7.872c0-0.157,0.067-0.227,0.269-0.249c0.479-0.055,1.314-0.091,1.959-0.091
				c1.76,0,3.118,0.6,3.118,2.419v0.081c0,1.261-0.735,2.002-1.747,2.272l2.048,3.454c0.022,0.032,0.033,0.065,0.033,0.099
				C88.348,269.579,88.304,269.623,88.204,269.623z M87.012,263.604c0-1.125-0.724-1.494-2.116-1.494c-0.345,0-0.958,0-1.225,0.032
				v3.081c0.234,0,0.969,0.025,1.225,0.025c1.371,0,2.116-0.351,2.116-1.563V263.604z"/>
			<path fill="#FFFFFF" d="M96.32,269.623h-0.612c-0.111,0-0.201-0.103-0.201-0.227v-7.92c0-0.109,0.079-0.212,0.201-0.212h0.612
				c0.111,0,0.201,0.092,0.201,0.212v7.92C96.521,269.51,96.443,269.623,96.32,269.623z"/>
			<path fill="#FFFFFF" d="M117.503,269.601c-0.291,0.044-1.126,0.103-2.173,0.103c-1.191,0-2.372-0.237-2.372-2.094v-6.118
				c0-0.124,0.101-0.227,0.223-0.227h0.568c0.123,0,0.223,0.103,0.223,0.227v6.118c0,0.855,0.188,1.169,1.369,1.169h2.149
				c0.079,0,0.123,0.059,0.123,0.136v0.529C117.612,269.51,117.568,269.59,117.503,269.601z"/>
			<path fill="#FFFFFF" d="M129.684,269.623h-0.612c-0.111,0-0.199-0.103-0.199-0.227v-3.329h-3.408v3.329
				c0,0.113-0.079,0.227-0.201,0.227h-0.612c-0.111,0-0.201-0.113-0.201-0.227v-5.881c0-1.721,0.792-2.331,2.395-2.331h0.646
				c1.592,0,2.394,0.61,2.394,2.331v5.881C129.884,269.51,129.795,269.623,129.684,269.623z M128.873,263.516
				c0-1.173-0.369-1.429-1.382-1.429h-0.646c-1.013,0-1.38,0.256-1.38,1.429v1.652h3.408V263.516z"/>
			<path fill="#FFFFFF" d="M142.912,269.623h-0.623c-0.111,0-0.19-0.103-0.19-0.227v-4.971c0-1.959-0.668-2.35-2.048-2.35
				c-0.479,0-1.371,0.044-1.648,0.065v7.255c0,0.113-0.079,0.227-0.201,0.227h-0.612c-0.122,0-0.201-0.103-0.201-0.227v-7.693
				c0-0.281,0.09-0.361,0.313-0.395c0.591-0.088,1.804-0.136,2.372-0.136c2.005,0,3.039,0.768,3.039,3.253v4.971
				C143.111,269.51,143.034,269.623,142.912,269.623z"/>
			<path fill="#FFFFFF" d="M155.826,269.623h-0.893c-0.099,0-0.175-0.033-0.244-0.113l-3.15-3.893v3.779
				c0,0.113-0.077,0.227-0.201,0.227h-0.61c-0.113,0-0.201-0.103-0.201-0.227v-7.92c0-0.109,0.088-0.212,0.212-0.212h0.589
				c0.113,0,0.212,0.092,0.212,0.212v3.626l3.209-3.735c0.065-0.069,0.109-0.103,0.223-0.103h0.778c0.12,0,0.179,0.065,0.179,0.136
				c0,0.032-0.021,0.065-0.047,0.102l-3.362,3.823l3.377,4.118c0.021,0.033,0.032,0.056,0.032,0.088
				C155.927,269.59,155.88,269.623,155.826,269.623z"/>
			<path fill="#FFFFFF" d="M168.284,269.623h-0.613c-0.11,0-0.198-0.103-0.198-0.227v-3.329h-3.409v3.329
				c0,0.113-0.077,0.227-0.201,0.227h-0.61c-0.113,0-0.201-0.113-0.201-0.227v-5.881c0-1.721,0.79-2.331,2.395-2.331h0.646
				c1.59,0,2.394,0.61,2.394,2.331v5.881C168.485,269.51,168.394,269.623,168.284,269.623z M167.472,263.516
				c0-1.173-0.369-1.429-1.381-1.429h-0.646c-1.013,0-1.382,0.256-1.382,1.429v1.652h3.409V263.516z"/>
		</g>
	</g>
	<g>
		<linearGradient id="SVGID_32_" gradientUnits="userSpaceOnUse" x1="183.5161" y1="266.3672" x2="233.2603" y2="266.3672">
			<stop  offset="0" style="stop-color:#00B0E4"/>
			<stop  offset="0.1548" style="stop-color:#14A0D3"/>
			<stop  offset="0.4251" style="stop-color:#238EC1"/>
			<stop  offset="0.7034" style="stop-color:#2784B7"/>
			<stop  offset="1" style="stop-color:#2980B3"/>
		</linearGradient>
		<path fill="url(#SVGID_32_)" d="M232.792,266.835h-48.809c-0.258,0-0.468-0.209-0.468-0.468c0-0.26,0.21-0.468,0.468-0.468h48.809
			c0.258,0,0.468,0.208,0.468,0.468C233.26,266.626,233.05,266.835,232.792,266.835z"/>
	</g>
	<g>
		<linearGradient id="SVGID_33_" gradientUnits="userSpaceOnUse" x1="4.8979" y1="266.3672" x2="55.7324" y2="266.3672">
			<stop  offset="0" style="stop-color:#5FC19E"/>
			<stop  offset="1" style="stop-color:#30BCAF"/>
		</linearGradient>
		<path fill="url(#SVGID_33_)" d="M55.265,266.835H5.366c-0.258,0-0.468-0.209-0.468-0.468c0-0.26,0.21-0.468,0.468-0.468h49.899
			c0.257,0,0.468,0.208,0.468,0.468C55.732,266.626,55.522,266.835,55.265,266.835z"/>
	</g>
</g>
</svg>
